{
.appVersion = "3151";
.formatVersion = 3;
axes = (
{
default = 400;
name = Weight;
tag = wght;
}
);
customParameters = (
{
name = vendorID;
value = "    ";
},
{
name = panose;
value = (
0,
0,
0,
0,
0,
0,
0,
0,
0,
0
);
},
{
name = unicodeRanges;
value = (
0,
1,
2,
5,
6,
7,
31,
32
);
},
{
name = codePageRanges;
value = (
"1252",
"1250",
"1253",
"1254",
"1257"
);
},
{
name = fsType;
value = (
);
},
{
name = glyphOrder;
value = (
.notdef,
.null,
uni000D,
space,
exclam,
quotedbl,
numbersign,
dollar,
percent,
ampersand,
quotesingle,
parenleft,
parenright,
asterisk,
plus,
comma,
hyphen,
period,
slash,
zero,
one,
two,
three,
four,
five,
six,
seven,
eight,
nine,
colon,
semicolon,
less,
equal,
greater,
question,
at,
A,
B,
C,
D,
E,
F,
G,
H,
J,
K,
L,
M,
N,
O,
P,
Q,
R,
S,
T,
U,
V,
W,
X,
Y,
Z,
bracketleft,
backslash,
bracketright,
asciicircum,
underscore,
grave,
a,
b,
c,
d,
e,
f,
g,
h,
i,
j,
k,
l,
m,
n,
o,
p,
q,
r,
s,
t,
u,
v,
w,
x,
y,
z,
braceleft,
bar,
braceright,
asciitilde,
uni00A0,
exclamdown,
cent,
sterling,
currency,
yen,
brokenbar,
section,
dieresis,
copyright,
ordfeminine,
guillemotleft,
logicalnot,
uni00AD,
registered,
degree,
plusminus,
twosuperior,
threesuperior,
acute,
uni03BC,
paragraph,
periodcentered,
cedilla,
onesuperior,
ordmasculine,
guillemotright,
onequarter,
onehalf,
threequarters,
questiondown,
Agrave,
Aacute,
Acircumflex,
Atilde,
Adieresis,
Aring,
AE,
Egrave,
Eacute,
Ecircumflex,
Edieresis,
Eth,
Ntilde,
Ograve,
Oacute,
Ocircumflex,
Otilde,
Odieresis,
multiply,
Oslash,
Ugrave,
Uacute,
Ucircumflex,
Udieresis,
Yacute,
Thorn,
germandbls,
agrave,
aacute,
acircumflex,
atilde,
adieresis,
aring,
ae,
ccedilla,
egrave,
eacute,
ecircumflex,
edieresis,
igrave,
iacute,
idieresis,
eth,
ntilde,
ograve,
oacute,
ocircumflex,
otilde,
odieresis,
divide,
oslash,
ugrave,
uacute,
ucircumflex,
udieresis,
yacute,
thorn,
ydieresis,
Amacron,
amacron,
Abreve,
abreve,
Aogonek,
aogonek,
Cacute,
cacute,
Ccircumflex,
ccircumflex,
cdotaccent,
Ccaron,
ccaron,
Dcaron,
dcaron,
Dcroat,

glyphs = (
{
glyphname = .notdef;
layers = (
{
layerId = m01;
shapes = (
{
closed = 1;
nodes = (
(528,720,l),
(528,0,l),
(2,0,l),
(2,720,l)
);
},
{
closed = 1;
nodes = (
(100,663,l),
(265,419,l),
(429,663,l)
);
},
{
closed = 1;
nodes = (
(462,598,l),
(303,360,l),
(462,124,l)
);
},
{
closed = 1;
nodes = (
(265,303,l),
(100,57,l),
(429,57,l)
);
},
{
closed = 1;
nodes = (
(227,360,l),
(68,599,l),
(68,124,l)
);
}
);
width = 529;
},
{
layerId = "45735946-F1C1-40B8-8BE5-3E07C57E9E20";
shapes = (
{
closed = 1;
nodes = (
(519,720,l),
(519,0,l),
(-6,0,l),
(-6,720,l)
);
},
{
closed = 1;
nodes = (
(91,663,l),
(256,419,l),
(421,663,l)
);
},
{
closed = 1;
nodes = (
(454,599,l),
(294,360,l),
(454,123,l)
);
},
{
closed = 1;
nodes = (
(256,303,l),
(91,57,l),
(421,57,l)
);
},
{
closed = 1;
nodes = (
(219,360,l),
(59,600,l),
(59,123,l)
);
}
);
width = 515;
},
{
layerId = "3A3847A9-C47D-449F-9BC4-FC5D6C4739D9";
shapes = (
{
closed = 1;
nodes = (
(571,720,l),
(571,0,l),
(42,0,l),
(42,720,l)
);
},
{
closed = 1;
nodes = (
(144,663,l),
(307,421,l),
(468,663,l)
);
},
{
closed = 1;
nodes = (
(501,593,l),
(346,360,l),
(501,128,l)
);
},
{
closed = 1;
nodes = (
(307,300,l),
(144,57,l),
(468,57,l)
);
},
{
closed = 1;
nodes = (
(267,360,l),
(112,594,l),
(112,128,l)
);
}
);
width = 600;
}
);
note = ".notdef";
},
{
glyphname = exclam;
layers = (
{
layerId = m01;
shapes = (
{
closed = 1;
nodes = (
(204,620,l),
(180,207,l),
(118,207,l),
(93,620,l),
(90,704,l),
(207,704,l)
);
},
{
closed = 1;
nodes = (
(121,121,o),
(149,121,qs),
(178,121,o),
(216,83,o),
(216,56,qs),
(216,25,o),
(178,-11,o),
(149,-11,qs),
(121,-11,o),
(81,25,o),
(81,56,qs),
(81,83,o)
);
}
);
width = 299;
},
{
layerId = "45735946-F1C1-40B8-8BE5-3E07C57E9E20";
shapes = (
{
closed = 1;
nodes = (
(189,621,l),
(172,203,l),
(117,203,l),
(99,621,l),
(95,705,l),
(193,705,l)
);
},
{
closed = 1;
nodes = (
(121,109,o),
(145,109,q),
(170,109,o),
(204,73,o),
(204,50,q),
(204,23,o),
(170,-10,o),
(145,-10,q),
(120,-10,o),
(85,23,o),
(85,50,q),
(85,73,o)
);
}
);
width = 290;
},
{
layerId = "3A3847A9-C47D-449F-9BC4-FC5D6C4739D9";
shapes = (
{
closed = 1;
nodes = (
(278,615,l),
(220,228,l),
(120,228,l),
(62,615,l),
(62,700,l),
(278,700,l)
);
},
{
closed = 1;
nodes = (
(124,180,o),
(169,180,q),
(214,180,o),
(277,132,o),
(277,84,q),
(277,36,o),
(214,-13,o),
(169,-13,q),
(124,-13,o),
(62,36,o),
(62,84,q),
(62,132,o)
);
}
);
width = 341;
}
);
note = exclam;
unicode = 33;
},
{
glyphname = quotedbl;
layers = (
{
layerId = m01;
shapes = (
{
closed = 1;
nodes = (
(99,707,l),
(209,707,l),
(209,707,l),
(199,662,l),
(136,426,l),
(74,426,l)
);
},
{
closed = 1;
nodes = (
(401,707,l),
(401,707,l),
(391,662,l),
(328,426,l),
(266,426,l),
(291,707,l)
);
}
);
width = 474;
},
{
layerId = "45735946-F1C1-40B8-8BE5-3E07C57E9E20";
shapes = (
{
closed = 1;
nodes = (
(97,708,l),
(188,708,l),
(188,708,l),
(176,655,l),
(126,443,l),
(71,443,l)
);
},
{
closed = 1;
nodes = (
(367,708,l),
(367,708,l),
(355,655,l),
(305,443,l),
(250,443,l),
(276,708,l)
);
}
);
width = 437;
},
{
layerId = "3A3847A9-C47D-449F-9BC4-FC5D6C4739D9";
shapes = (
{
closed = 1;
nodes = (
(111,700,l),
(315,700,l),
(315,699,l),
(315,697,l),
(188,341,l),
(89,341,l)
);
},
{
closed = 1;
nodes = (
(572,700,l),
(572,699,l),
(572,697,l),
(445,341,l),
(345,341,l),
(368,700,l)
);
}
);
width = 660;
}
);
note = quotedbl;
unicode = 34;
},
{
glyphname = numbersign;
layers = (
{
layerId = m01;
shapes = (
{
closed = 1;
nodes = (
(25,185,l),
(25,271,l),
(139,271,l),
(166,440,l),
(58,440,l),
(58,527,l),
(179,527,l),
(206,705,l),
(291,705,l),
(264,527,l),
(421,527,l),
(447,705,l),
(532,705,l),
(506,527,l),
(602,527,l),
(602,440,l),
(492,440,l),
(465,271,l),
(569,271,l),
(569,184,l),
(451,184,l),
(424,0,l),
(339,0,l),
(366,184,l),
(209,184,l),
(181,0,l),
(96,0,l),
(125,185,l)
);
},
{
closed = 1;
nodes = (
(222,270,l),
(381,270,l),
(408,440,l),
(249,440,l)
);
}
);
width = 625;
},
{
layerId = "45735946-F1C1-40B8-8BE5-3E07C57E9E20";
shapes = (
{
closed = 1;
nodes = (
(23,195,l),
(23,266,l),
(139,266,l),
(167,446,l),
(56,446,l),
(56,518,l),
(177,518,l),
(206,706,l),
(278,706,l),
(251,518,l),
(414,518,l),
(441,706,l),
(513,706,l),
(487,518,l),
(586,518,l),
(586,446,l),
(476,446,l),
(447,266,l),
(553,266,l),
(553,194,l),
(436,194,l),
(408,0,l),
(335,0,l),
(363,194,l),
(200,194,l),
(171,0,l),
(98,0,l),
(128,195,l)
);
},
{
closed = 1;
nodes = (
(211,266,l),
(374,266,l),
(403,446,l),
(239,446,l)
);
}
);
width = 608;
},
{
layerId = "3A3847A9-C47D-449F-9BC4-FC5D6C4739D9";
shapes = (
{
closed = 1;
nodes = (
(33,135,l),
(33,296,l),
(139,296,l),
(158,408,l),
(66,408,l),
(66,569,l),
(186,569,l),
(208,700,l),
(353,700,l),
(330,569,l),
(457,569,l),
(479,700,l),
(624,700,l),
(602,569,l),
(680,569,l),
(680,408,l),
(574,408,l),
(555,296,l),
(647,296,l),
(647,135,l),
(528,135,l),
(504,0,l),
(359,0,l),
(383,135,l),
(256,135,l),
(233,0,l),
(88,0,l),
(111,135,l)
);
},
{
closed = 1;
nodes = (
(279,292,l),
(413,292,l),
(433,412,l),
(300,412,l)
);
}
);
width = 712;
}
);
note = numbersign;
unicode = 35;
},
{
glyphname = dollar;
layers = (
{
layerId = m01;
shapes = (
{
closed = 1;
nodes = (
(186,-3,o),
(71,56,o),
(29,101,q),
(87,165,l),
(119,131,o),
(205,82,o),
(259,78,q),
(259,314,l),
(211,330,o),
(136,368,o),
(84,418,o),
(57,480,o),
(57,519,qs),
(57,559,o),
(87,625,o),
(141,674,o),
(215,705,o),
(258,709,q),
(258,774,l),
(330,774,l),
(330,709,l),
(396,703,o),
(478,651,o),
(502,620,q),
(443,559,l),
(424,585,o),
(364,620,o),
(328,624,q),
(328,396,l),
(435,361,o),
(536,268,o),
(536,195,qs),
(536,155,o),
(505,86,o),
(451,35,o),
(375,2,o),
(330,-3,q),
(330,-96,l),
(258,-96,l),
(258,-3,l)
);
},
{
closed = 1;
nodes = (
(430,227,o),
(406,256,o),
(363,283,o),
(329,294,q),
(329,79,l),
(386,87,o),
(438,143,o),
(438,182,qs),
(438,196,o)
);
},
{
closed = 1;
nodes = (
(209,439,o),
(259,418,q),
(259,626,l),
(207,621,o),
(155,568,o),
(155,529,qs),
(155,488,o)
);
}
);
width = 578;
},
{
layerId = "45735946-F1C1-40B8-8BE5-3E07C57E9E20";
shapes = (
{
closed = 1;
nodes = (
(182,-4,o),
(69,56,o),
(31,98,q),
(79,151,l),
(111,118,o),
(197,68,o),
(254,65,q),
(254,322,l),
(209,338,o),
(137,377,o),
(87,426,o),
(60,487,o),
(60,525,q),
(60,564,o),
(90,628,o),
(142,676,o),
(213,706,o),
(254,710,q),
(254,777,l),
(319,777,l),
(319,711,l),
(385,705,o),
(463,653,o),
(484,624,q),
(433,572,l),
(415,598,o),
(354,634,o),
(318,638,q),
(318,389,l),
(422,352,o),
(519,260,o),
(519,192,q),
(519,152,o),
(489,85,o),
(436,34,o),
(363,1,o),
(319,-4,q),
(319,-95,l),
(254,-95,l),
(254,-4,l)
);
},
{
closed = 1;
nodes = (
(428,227,o),
(402,260,o),
(356,290,o),
(319,302,q),
(319,66,l),
(380,75,o),
(437,136,o),
(437,179,q),
(437,194,o)
);
},
{
closed = 1;
nodes = (
(203,435,o),
(254,412,q),
(254,640,l),
(199,634,o),
(142,577,o),
(142,534,q),
(142,488,o)
);
}
);
width = 564;
},
{
layerId = "3A3847A9-C47D-449F-9BC4-FC5D6C4739D9";
shapes = (
{
closed = 1;
nodes = (
(211,2,o),
(75,58,o),
(18,115,q),
(129,234,l),
(158,198,o),
(242,150,o),
(284,145,q),
(284,272,l),
(224,286,o),
(133,323,o),
(72,374,o),
(41,444,o),
(41,490,q),
(41,534,o),
(73,608,o),
(134,663,o),
(223,697,o),
(280,701,q),
(280,758,l),
(384,758,l),
(384,698,l),
(447,691,o),
(553,639,o),
(589,599,q),
(492,491,l),
(468,520,o),
(412,549,o),
(379,555,q),
(379,430,l),
(498,402,o),
(618,304,o),
(618,212,q),
(618,166,o),
(584,92,o),
(522,38,o),
(435,5,o),
(382,0,q),
(382,-98,l),
(278,-98,l),
(278,2,l)
);
},
{
closed = 1;
nodes = (
(439,223,o),
(423,237,o),
(398,250,o),
(378,256,q),
(378,146,l),
(413,150,o),
(445,179,o),
(445,199,q),
(445,208,o)
);
},
{
closed = 1;
nodes = (
(243,458,o),
(285,447,q),
(285,555,l),
(248,552,o),
(217,524,o),
(217,505,q),
(217,488,o)
);
}
);
width = 646;
}
);
note = dollar;
unicode = 36;
},
{
glyphname = percent;
layers = (
{
layerId = m01;
shapes = (
{
closed = 1;
nodes = (
(355,435,o),
(310,385,o),
(249,356,o),
(211,356,qs),
(174,356,o),
(112,385,o),
(67,434,o),
(43,501,o),
(43,540,qs),
(43,578,o),
(68,643,o),
(113,693,o),
(175,721,o),
(212,721,qs),
(250,721,o),
(312,693,o),
(355,644,o),
(379,579,o),
(379,541,qs),
(379,503,o)
);
},
{
closed = 1;
nodes = (
(250,653,o),
(211,653,qs),
(169,653,o),
(119,589,o),
(119,540,qs),
(119,488,o),
(170,425,o),
(212,425,qs),
(256,425,o),
(303,488,o),
(303,536,qs),
(303,590,o)
);
},
{
closed = 1;
nodes = (
(782,67,o),
(737,18,o),
(676,-11,o),
(638,-11,qs),
(600,-11,o),
(538,17,o),
(495,67,o),
(471,133,o),
(471,170,qs),
(471,208,o),
(496,274,o),
(541,323,o),
(602,351,o),
(639,351,qs),
(677,351,o),
(738,323,o),
(782,275,o),
(806,209,o),
(806,171,qs),
(806,134,o)
);
},
{
closed = 1;
nodes = (
(680,283,o),
(638,283,qs),
(596,283,o),
(547,221,o),
(547,170,qs),
(547,117,o),
(600,58,o),
(639,58,qs),
(681,58,o),
(730,122,o),
(730,170,qs),
(730,221,o)
);
},
{
closed = 1;
nodes = (
(138,-3,l),
(629,719,l),
(707,708,l),
(215,-16,l)
);
}
);
width = 849;
},
{
layerId = "45735946-F1C1-40B8-8BE5-3E07C57E9E20";
shapes = (
{
closed = 1;
nodes = (
(351.234,439.146,o),
(306.673,389.686,o),
(246.268,361,o),
(208.639,361,q),
(172,361,o),
(112,389,o),
(68,438,o),
(44,504.533,o),
(44,543.261,q),
(44,580.997,o),
(68.979,645.544,o),
(113.048,695.195,o),
(173.766,723,o),
(210,723,q),
(248,723,o),
(308,695,o),
(352,647,o),
(375,582,o),
(375,544,q),
(375,506.411,o)
);
},
{
closed = 1;
nodes = (
(251,663,o),
(209.321,663,q),
(164.435,663,o),
(111,595,o),
(111,543.012,q),
(111,487.841,o),
(165,421,o),
(210.419,421,q),
(258,421,o),
(308,488,o),
(308,538.909,q),
(308,596.182,o)
);
},
{
closed = 1;
nodes = (
(770.348,65.619,o),
(726,17,o),
(665,-11,o),
(627.826,-11,q),
(590.652,-11,o),
(530,17,o),
(487,66,o),
(464,131,o),
(464,168,q),
(464,206,o),
(489,272,o),
(533.056,320.364,o),
(592.776,348,o),
(629,348,q),
(666.469,348,o),
(726.615,320,o),
(770,272,o),
(794,206.514,o),
(794,168.809,q),
(794,132.097,o)
);
},
{
closed = 1;
nodes = (
(673,288,o),
(628.158,288,q),
(583.316,288,o),
(531,221.892,o),
(531,167.512,q),
(531,111,o),
(587,49,o),
(629.37,49,q),
(675,49,o),
(727,117,o),
(727,167.981,q),
(727,222.149,o)
);
},
{
closed = 1;
nodes = (
(142,-4,l),
(624,723,l),
(690,709,l),
(208,-19,l)
);
}
);
width = 838;
},
{
layerId = "3A3847A9-C47D-449F-9BC4-FC5D6C4739D9";
shapes = (
{
closed = 1;
nodes = (
(373,415,o),
(324.604,363.101,o),
(259,333,o),
(217.949,333,q),
(177.978,333,o),
(111,363,o),
(64,415,o),
(38,482.632,o),
(38,522,q),
(38,561.476,o),
(64,629,o),
(111,680,o),
(178.431,710,o),
(218.672,710,q),
(260,710,o),
(326,680,o),
(372.851,628.851,o),
(399,561,o),
(399,523,q),
(399,484.283,o)
);
},
{
closed = 1;
nodes = (
(244,600,o),
(218,600,q),
(191.522,600,o),
(160,556,o),
(160,523.495,q),
(160,489,o),
(194,443,o),
(218.907,443,q),
(245,443,o),
(277,489,o),
(277,522,q),
(277,555,o)
);
},
{
closed = 1;
nodes = (
(841,73,o),
(792.604,20.859,o),
(727,-10,o),
(686.5,-10,q),
(646,-10,o),
(579,20,o),
(532.149,72.155,o),
(506,141,o),
(506,179.168,q),
(506,218.368,o),
(532.071,286.453,o),
(579,337,o),
(646.224,367,o),
(687,367,q),
(728.071,367,o),
(794,338,o),
(841,287,o),
(867,219,o),
(867,179.93,q),
(867,141.887,o)
);
},
{
closed = 1;
nodes = (
(712,257,o),
(686,257,q),
(659.231,257,o),
(628,214,o),
(628,180,q),
(628,147,o),
(662,100,o),
(686.556,100,q),
(713,100,o),
(745,146,o),
(745,179,q),
(745,213,o)
);
},
{
closed = 1;
nodes = (
(115,0,l),
(655,700,l),
(790,700,l),
(250,0,l)
);
}
);
width = 904;
}
);
note = percent;
unicode = 37;
},
{
glyphname = ampersand;
layers = (
{
layerId = m01;
shapes = (
{
closed = 1;
nodes = (
(216,315,o),
(158,246,o),
(158,197,qs),
(158,170,o),
(177,124,o),
(211,89,o),
(259,69,o),
(288,69,qs),
(334,69,o),
(407,117,o),
(438,152,q),
(270,340,l)
);
},
{
closed = 1;
nodes = (
(639,297,o),
(585,203,o),
(556,161,q),
(688,16,l),
(582,-5,l),
(494,86,l),
(448,40,o),
(346,-11,o),
(280,-11,qs),
(232,-11,o),
(149,17,o),
(88,70,o),
(53,145,o),
(53,192,qs),
(53,268,o),
(139,373,o),
(218,403,q),
(189,441,o),
(153,514,o),
(153,556,qs),
(153,592,o),
(180,652,o),
(228,695,o),
(295,719,o),
(335,719,qs),
(374,719,o),
(439,694,o),
(485,652,o),
(511,595,o),
(511,563,qs),
(511,497,o),
(426,412,o),
(357,383,q),
(499,227,l),
(522,263,o),
(561,333,o),
(579,373,q),
(662,346,l)
);
},
{
closed = 1;
nodes = (
(247,593,o),
(247,555,qs),
(247,527,o),
(279,472,o),
(307,439,q),
(356,458,o),
(419,519,o),
(419,558,qs),
(419,596,o),
(370,640,o),
(334,640,qs),
(296,640,o)
);
}
);
width = 695;
},
{
layerId = "45735946-F1C1-40B8-8BE5-3E07C57E9E20";
shapes = (
{
closed = 1;
nodes = (
(207,326,o),
(142,250,o),
(142,196,q),
(142,167,o),
(162,116,o),
(199,79,o),
(251,57,o),
(282,57,q),
(333,57,o),
(413,110,o),
(445,150,q),
(267,352,l)
);
},
{
closed = 1;
nodes = (
(629,296,o),
(575,203,o),
(545,158,q),
(678,12,l),
(586,-5,l),
(493,91,l),
(447,43,o),
(344,-11,o),
(277,-11,q),
(230,-11,o),
(149,18,o),
(89,70,o),
(55,146,o),
(55,192,q),
(55,270,o),
(144,376,o),
(225,406,q),
(194,444,o),
(156,519,o),
(156,561,q),
(156,597,o),
(183,655,o),
(229,696,o),
(293,719,o),
(330,719,q),
(368,719,o),
(430,695,o),
(475,654,o),
(500,599,o),
(500,568,q),
(500,501,o),
(413,417,o),
(343,388,q),
(497,217,l),
(522,255,o),
(562,329,o),
(580,371,q),
(653,347,l)
);
},
{
closed = 1;
nodes = (
(236,602,o),
(236,562,q),
(236,533,o),
(271,473,o),
(301,438,q),
(352,457,o),
(420,521,o),
(420,563,q),
(420,603,o),
(367,651,o),
(329,651,q),
(289,651,o)
);
}
);
width = 684;
},
{
layerId = "3A3847A9-C47D-449F-9BC4-FC5D6C4739D9";
shapes = (
{
closed = 1;
nodes = (
(260,262,o),
(236,223,o),
(236,200,q),
(236,185,o),
(248,159,o),
(270,141,o),
(300,131,o),
(318,131,q),
(339,131,o),
(381,147,o),
(401,161,q),
(286,278,l)
);
},
{
closed = 1;
nodes = (
(686,301,o),
(634,207,o),
(609,173,q),
(735,34,l),
(560,-5,l),
(500,59,l),
(455,25,o),
(353,-12,o),
(292,-12,q),
(238,-12,o),
(147,15,o),
(80,68,o),
(42,144,o),
(42,192,q),
(42,258,o),
(112,356,o),
(184,388,q),
(160,423,o),
(138,494,o),
(138,529,q),
(138,567,o),
(168,636,o),
(225,688,o),
(307,719,o),
(358,719,q),
(406,719,o),
(483,691,o),
(537,643,o),
(566,576,o),
(566,537,q),
(566,473,o),
(491,384,o),
(429,355,q),
(507,274,l),
(524,299,o),
(557,355,o),
(573,385,q),
(708,341,l)
);
},
{
closed = 1;
nodes = (
(302,551,o),
(302,522,q),
(302,502,o),
(320,465,o),
(338,442,q),
(376,461,o),
(412,504,o),
(412,530,q),
(412,556,o),
(382,586,o),
(358,586,q),
(333,586,o)
);
}
);
width = 748;
}
);
note = ampersand;
unicode = 38;
},
{
glyphname = quotesingle;
layers = (
{
layerId = m01;
shapes = (
{
closed = 1;
nodes = (
(210,707,l),
(210,707,l),
(200,662,l),
(137,426,l),
(74,426,l),
(99,707,l)
);
}
);
width = 284;
},
{
layerId = "45735946-F1C1-40B8-8BE5-3E07C57E9E20";
shapes = (
{
closed = 1;
nodes = (
(188,708,l),
(188,708,l),
(176,655,l),
(126,443,l),
(71,443,l),
(96,708,l)
);
}
);
width = 259;
},
{
layerId = "3A3847A9-C47D-449F-9BC4-FC5D6C4739D9";
shapes = (
{
closed = 1;
nodes = (
(319,700,l),
(319,699,l),
(319,697,l),
(192,341,l),
(89,341,l),
(111,700,l)
);
}
);
width = 408;
}
);
note = quotesingle;
unicode = 39;
},
{
glyphname = parenleft;
layers = (
{
layerId = m01;
shapes = (
{
closed = 1;
nodes = (
(266,-12,o),
(360,-99,q),
(310,-158,l),
(255,-117,o),
(168,-21,o),
(107,90,o),
(75,215,o),
(75,285,qs),
(75,354,o),
(106,477,o),
(166,587,o),
(253,686,o),
(309,732,q),
(361,671,l),
(267,585,o),
(174,401,o),
(174,285,qs),
(174,170,o)
);
}
);
width = 409;
},
{
layerId = "45735946-F1C1-40B8-8BE5-3E07C57E9E20";
shapes = (
{
closed = 1;
nodes = (
(250,-23,o),
(344,-114,q),
(303,-164,l),
(250,-121,o),
(166,-22,o),
(107,91,o),
(76,215,o),
(76,284,q),
(76,352,o),
(105,474,o),
(162,586,o),
(246,689,o),
(301,737,q),
(345,686,l),
(251,595,o),
(158,403,o),
(158,284,q),
(158,166,o)
);
}
);
width = 396;
},
{
layerId = "3A3847A9-C47D-449F-9BC4-FC5D6C4739D9";
shapes = (
{
closed = 1;
nodes = (
(344,44,o),
(441,-23,q),
(342,-130,l),
(278,-97,o),
(177,-16,o),
(107,86,o),
(70,211,o),
(70,287,q),
(70,364,o),
(110,487,o),
(182,589,o),
(284,671,o),
(346,706,q),
(441,597,l),
(344,530,o),
(256,385,o),
(256,287,q),
(256,189,o)
);
}
);
width = 474;
}
);
note = parenleft;
unicode = 40;
},
{
glyphname = parenright;
layers = (
{
layerId = m01;
shapes = (
{
closed = 1;
nodes = (
(148,585,o),
(48,671,q),
(102,732,l),
(159,685,o),
(246,585,o),
(305,475,o),
(336,353,o),
(336,285,qs),
(336,216,o),
(304,92,o),
(244,-18,o),
(157,-115,o),
(101,-158,q),
(49,-99,l),
(147,-12,o),
(237,173,o),
(237,285,qs),
(237,398,o)
);
}
);
width = 411;
},
{
layerId = "45735946-F1C1-40B8-8BE5-3E07C57E9E20";
shapes = (
{
closed = 1;
nodes = (
(151,595,o),
(51,686,q),
(96,737,l),
(151,688,o),
(236,584,o),
(293,472,o),
(322,351,o),
(322,284,q),
(322,216,o),
(291,93,o),
(233,-18,o),
(148,-119,o),
(95,-164,q),
(52,-114,l),
(150,-23,o),
(240,169,o),
(240,284,q),
(240,400,o)
);
}
);
width = 398;
},
{
layerId = "3A3847A9-C47D-449F-9BC4-FC5D6C4739D9";
shapes = (
{
closed = 1;
nodes = (
(131,530,o),
(34,597,q),
(129,706,l),
(195,671,o),
(297,588,o),
(368,486,o),
(405,363,o),
(405,287,q),
(405,211,o),
(369,87,o),
(300,-15,o),
(199,-96,o),
(133,-130,q),
(34,-23,l),
(131,44,o),
(219,189,o),
(219,287,q),
(219,385,o)
);
}
);
width = 474;
}
);
note = parenright;
unicode = 41;
},
{
glyphname = asterisk;
layers = (
{
layerId = m01;
shapes = (
{
closed = 1;
nodes = (
(118,723,l),
(183,637,l),
(247,723,l),
(300,688,l),
(236,598,l),
(338,563,l),
(318,502,l),
(215,536,l),
(215,423,l),
(151,423,l),
(151,537,l),
(47,502,l),
(26,563,l),
(131,599,l),
(65,686,l)
);
}
);
width = 364;
},
{
layerId = "45735946-F1C1-40B8-8BE5-3E07C57E9E20";
shapes = (
{
closed = 1;
nodes = (
(115,725,l),
(178,644,l),
(239,725,l),
(289,693,l),
(228,607,l),
(325,573,l),
(306,515,l),
(208,548,l),
(208,440,l),
(147,440,l),
(147,549,l),
(48,515,l),
(28,573,l),
(128,608,l),
(65,690,l)
);
}
);
width = 353;
},
{
layerId = "3A3847A9-C47D-449F-9BC4-FC5D6C4739D9";
shapes = (
{
closed = 1;
nodes = (
(132,710,l),
(209,602,l),
(286,710,l),
(352,663,l),
(277,552,l),
(400,510,l),
(375,435,l),
(251,476,l),
(251,340,l),
(169,340,l),
(169,478,l),
(42,435,l),
(18,510,l),
(144,554,l),
(66,663,l)
);
}
);
width = 417;
}
);
note = asterisk;
unicode = 42;
},
{
glyphname = plus;
lastChange = "2023-04-07 16:38:05 +0000";
layers = (
{
layerId = m01;
shapes = (
{
closed = 1;
nodes = (
(547,391,l),
(547,301,l),
(346,301,l),
(346,99,l),
(253,99,l),
(253,301,l),
(53,301,l),
(53,391,l),
(253,391,l),
(253,592,l),
(346,592,l),
(346,391,l)
);
}
);
width = 600;
},
{
layerId = "45735946-F1C1-40B8-8BE5-3E07C57E9E20";
shapes = (
{
closed = 1;
nodes = (
(538,382,l),
(538,308,l),
(330,308,l),
(330,100,l),
(253,100,l),
(253,308,l),
(47,308,l),
(47,382,l),
(253,382,l),
(253,589,l),
(330,589,l),
(330,382,l)
);
}
);
width = 585;
},
{
layerId = "3A3847A9-C47D-449F-9BC4-FC5D6C4739D9";
shapes = (
{
closed = 1;
nodes = (
(593,436,l),
(593,268,l),
(424,268,l),
(424,96,l),
(250,96,l),
(250,268,l),
(81,268,l),
(81,436,l),
(250,436,l),
(250,608,l),
(424,608,l),
(424,436,l)
);
}
);
width = 674;
}
);
note = plus;
unicode = 43;
},
{
glyphname = comma;
layers = (
{
layerId = m01;
shapes = (
{
closed = 1;
nodes = (
(30,-143,l),
(77,133,l),
(188,133,l),
(110,-143,l)
);
}
);
width = 257;
},
{
layerId = "45735946-F1C1-40B8-8BE5-3E07C57E9E20";
shapes = (
{
closed = 1;
nodes = (
(35,-139,l),
(79,120,l),
(178,120,l),
(104,-139,l)
);
}
);
width = 252;
},
{
layerId = "3A3847A9-C47D-449F-9BC4-FC5D6C4739D9";
shapes = (
{
closed = 1;
nodes = (
(7,-164,l),
(69,197,l),
(240,197,l),
(137,-164,l)
);
}
);
width = 280;
}
);
note = comma;
unicode = 44;
},
{
glyphname = hyphen;
layers = (
{
layerId = m01;
shapes = (
{
closed = 1;
nodes = (
(30,227,l),
(30,319,l),
(310,319,l),
(310,227,l)
);
}
);
width = 339;
},
{
layerId = "45735946-F1C1-40B8-8BE5-3E07C57E9E20";
shapes = (
{
closed = 1;
nodes = (
(31,234,l),
(31,311,l),
(302,311,l),
(302,234,l)
);
}
);
width = 333;
},
{
layerId = "3A3847A9-C47D-449F-9BC4-FC5D6C4739D9";
shapes = (
{
closed = 1;
nodes = (
(22,189,l),
(22,356,l),
(350,356,l),
(350,189,l)
);
}
);
width = 371;
}
);
note = hyphen;
unicode = 45;
},
{
glyphname = period;
layers = (
{
layerId = m01;
shapes = (
{
closed = 1;
nodes = (
(121,126,o),
(150,126,qs),
(178,126,o),
(218,87,o),
(218,58,qs),
(218,29,o),
(178,-11,o),
(150,-11,qs),
(121,-11,o),
(81,29,o),
(81,58,qs),
(81,87,o)
);
}
);
width = 300;
},
{
layerId = "45735946-F1C1-40B8-8BE5-3E07C57E9E20";
shapes = (
{
closed = 1;
nodes = (
(120,110,o),
(145.113,110,q),
(169.361,110,o),
(204,75,o),
(204,50.5,q),
(204,26,o),
(169,-10,o),
(144.753,-10,q),
(119.639,-10,o),
(85,26,o),
(85,51.113,q),
(85,75,o)
);
}
);
width = 290;
},
{
layerId = "3A3847A9-C47D-449F-9BC4-FC5D6C4739D9";
shapes = (
{
closed = 1;
nodes = (
(126,206,o),
(174,206,q),
(222,206,o),
(287,151,o),
(287,97,q),
(287,43,o),
(222,-13,o),
(174,-13,q),
(126,-13,o),
(62,43,o),
(62,97,q),
(62,151,o)
);
}
);
width = 350;
}
);
note = period;
unicode = 46;
},
{
glyphname = slash;
layers = (
{
layerId = m01;
shapes = (
{
closed = 1;
nodes = (
(2,-86,l),
(433,786,l),
(516,773,l),
(84,-96,l)
);
}
);
width = 518;
},
{
layerId = "45735946-F1C1-40B8-8BE5-3E07C57E9E20";
shapes = (
{
closed = 1;
nodes = (
(2,-77,l),
(431,783,l),
(500,768,l),
(70,-90,l)
);
}
);
width = 502;
},
{
layerId = "3A3847A9-C47D-449F-9BC4-FC5D6C4739D9";
shapes = (
{
closed = 1;
nodes = (
(-1,-128,l),
(442,798,l),
(596,798,l),
(153,-128,l)
);
}
);
width = 595;
}
);
note = slash;
unicode = 47;
},
{
glyphname = zero;
layers = (
{
layerId = m01;
shapes = (
{
closed = 1;
nodes = (
(214,586,o),
(171,514,o),
(148,415,o),
(148,356,qs),
(148,293,o),
(171,190,o),
(214,118,o),
(278,78,o),
(320,78,qs),
(361,78,o),
(423,119,o),
(467,192,o),
(489,292,o),
(489,352,qs),
(489,413,o),
(466,514,o),
(422,586,o),
(359,626,o),
(318,626,qs),
(278,626,o)
);
},
{
closed = 1;
nodes = (
(488,664,o),
(558,568,o),
(594,433,o),
(594,352,qs),
(594,273,o),
(558,139,o),
(489,41,o),
(386,-14,o),
(318,-14,qs),
(251,-14,o),
(149,39,o),
(79,136,o),
(43,271,o),
(43,353,qs),
(43,432,o),
(79,566,o),
(149,663,o),
(252,718,o),
(319,718,qs),
(385,718,o)
);
}
);
width = 636;
},
{
layerId = "45735946-F1C1-40B8-8BE5-3E07C57E9E20";
shapes = (
{
closed = 1;
nodes = (
(200,600,o),
(155.045,523.789,o),
(131,419,o),
(131,356.591,q),
(131,289.951,o),
(154,181,o),
(200,104,o),
(267.019,62,o),
(311,62,q),
(354.388,62,o),
(420,105,o),
(465,183,o),
(489,289,o),
(489,352.469,q),
(489,416.997,o),
(464.97,523.837,o),
(419,600,o),
(352.668,640,o),
(309.5,640,q),
(266,643,o)
);
},
{
closed = 1;
nodes = (
(474,666,o),
(542,569,o),
(576,434,o),
(576,351.988,q),
(576,272,o),
(542,138,o),
(475,40,o),
(375,-14,o),
(309.008,-14,q),
(243.987,-14,o),
(145,38,o),
(78,134,o),
(44,270,o),
(44,353.528,q),
(44,434,o),
(78.302,568,o),
(145,665,o),
(245,719,o),
(310.013,719,q),
(375,719,o)
);
}
);
width = 619;
},
{
layerId = "3A3847A9-C47D-449F-9BC4-FC5D6C4739D9";
shapes = (
{
closed = 1;
nodes = (
(285,514,o),
(251,464,o),
(233,394,o),
(233,352,q),
(233,310,o),
(252,239,o),
(286,187,o),
(334,158,o),
(363,158,q),
(392,158,o),
(440,187,o),
(473,238,o),
(491,308,o),
(491,350,q),
(491,392,o),
(472,462,o),
(438,513,o),
(390,542,o),
(361,542,q),
(332,542,o)
);
},
{
closed = 1;
nodes = (
(557,657,o),
(641,558,o),
(686,426,o),
(686,352,q),
(686,278,o),
(641,145,o),
(556,45,o),
(436,-14,o),
(361,-14,q),
(286,-14,o),
(166,44,o),
(83,143,o),
(38,276,o),
(38,350,q),
(38,424,o),
(84,557,o),
(168,656,o),
(288,714,o),
(363,714,q),
(438,714,o)
);
}
);
width = 723;
}
);
note = zero;
unicode = 48;
},
{
glyphname = one;
lastChange = "2023-04-07 16:39:11 +0000";
layers = (
{
layerId = m01;
shapes = (
{
closed = 1;
nodes = (
(125,0,l),
(125,612,l),
(9,612,l),
(9,708,l),
(227,708,l),
(227,0,l)
);
}
);
width = 330;
},
{
layerId = "45735946-F1C1-40B8-8BE5-3E07C57E9E20";
shapes = (
{
closed = 1;
nodes = (
(116,0,l),
(116,630,l),
(8,630,l),
(8,708,l),
(200,708,l),
(200,0,l)
);
}
);
width = 309;
},
{
layerId = "3A3847A9-C47D-449F-9BC4-FC5D6C4739D9";
shapes = (
{
closed = 1;
nodes = (
(169,0,l),
(169,524,l),
(14,524,l),
(14,705,l),
(360,705,l),
(360,0,l)
);
}
);
width = 435;
}
);
note = one;
unicode = 49;
},
{
glyphname = two;
layers = (
{
layerId = m01;
shapes = (
{
closed = 1;
nodes = (
(413,688,o),
(473,635,o),
(506,564,o),
(506,522,qs),
(506,495,o),
(490,439,o),
(456,377,o),
(403,306,o),
(367,262,qs),
(224,90,l),
(519,90,l),
(519,0,l),
(29,0,l),
(288,313,ls),
(347,386,o),
(400,486,o),
(400,525,qs),
(400,545,o),
(387,581,o),
(359,609,o),
(315,626,o),
(283,626,qs),
(254,626,o),
(207,608,o),
(173,576,o),
(151,531,o),
(147,503,q),
(40,503,l),
(48,558,o),
(88,639,o),
(150,691,o),
(233,717,o),
(283,717,qs),
(331,717,o)
);
}
);
width = 586;
},
{
layerId = "45735946-F1C1-40B8-8BE5-3E07C57E9E20";
shapes = (
{
closed = 1;
nodes = (
(408,689,o),
(465,638,o),
(498,568.811,o),
(498,527.883,q),
(498,501.571,o),
(482,447,o),
(447.218,383.602,o),
(393,311,o),
(355,266,q),
(196,76,l),
(512,76,l),
(512,0,l),
(35,0,l),
(289,310,l),
(352.214,387.821,o),
(409,494.425,o),
(409,536,q),
(409,556,o),
(395.683,594.25,o),
(367,624,o),
(320,642,o),
(284.852,642,q),
(253,642,o),
(203.718,623.053,o),
(168.068,589.368,o),
(145,542,o),
(140,513,q),
(47,513,l),
(56,566,o),
(94.824,643.955,o),
(155,694,o),
(234.844,720,o),
(282.943,720,q),
(330,718,o)
);
}
);
width = 584;
},
{
layerId = "3A3847A9-C47D-449F-9BC4-FC5D6C4739D9";
shapes = (
{
closed = 1;
nodes = (
(439,679,o),
(509,621,o),
(547,539,o),
(547,489,q),
(547,458,o),
(532,401,o),
(502,343,o),
(458,280,o),
(429,242,q),
(366,158,l),
(554,158,l),
(554,0,l),
(0,0,l),
(280,328,l),
(319,374,o),
(352,446,o),
(352,472,q),
(352,489,o),
(341,515,o),
(320,533,o),
(291,543,o),
(274,543,q),
(257,543,o),
(224,533,o),
(197,511,o),
(181,477,o),
(181,453,q),
(4,453,l),
(4,516,o),
(49,613,o),
(125,679,o),
(224,712,o),
(279,712,q),
(340,712,o)
);
}
);
width = 595;
}
);
note = two;
unicode = 50;
},
{
glyphname = three;
layers = (
{
layerId = m01;
shapes = (
{
closed = 1;
nodes = (
(377,436,o),
(456,406,o),
(515,352,o),
(548,274,o),
(548,224,qs),
(548,174,o),
(511,88,o),
(445,24,o),
(355,-13,o),
(301,-13,qs),
(209,-13,o),
(83,76,o),
(51,148,q),
(131,208,l),
(157,145,o),
(237,78,o),
(300,78,qs),
(331,78,o),
(384,98,o),
(423,135,o),
(445,189,o),
(445,222,qs),
(445,260,o),
(420,314,o),
(375,348,o),
(313,364,o),
(277,364,qs),
(269,364,o),
(250,363,o),
(231,362,o),
(212,360,o),
(204,358,q),
(190,412,l),
(393,626,l),
(94,626,l),
(94,715,l),
(521,715,l),
(521,630,l),
(331,438,l)
);
}
);
width = 615;
},
{
layerId = "45735946-F1C1-40B8-8BE5-3E07C57E9E20";
shapes = (
{
closed = 1;
nodes = (
(361,441,o),
(443,411,o),
(503,355,o),
(537,276,o),
(537,225,q),
(537,176,o),
(500,89,o),
(436,24,o),
(347,-13,o),
(295,-13,q),
(204,-13,o),
(82,81,o),
(55,156,q),
(124,206,l),
(147,137,o),
(229,63,o),
(296,63,q),
(329,63,o),
(386,85,o),
(428,126,o),
(452,184,o),
(452,221,q),
(452,263,o),
(424,323,o),
(376,360,o),
(311,377,o),
(273,377,q),
(264,377,o),
(246,376,o),
(228,375,o),
(210,372,o),
(201,370,q),
(190,415,l),
(402,642,l),
(96,642,l),
(96,718,l),
(508,718,l),
(508,644,l),
(313,442,l)
);
}
);
width = 609;
},
{
layerId = "3A3847A9-C47D-449F-9BC4-FC5D6C4739D9";
shapes = (
{
closed = 1;
nodes = (
(458,410,o),
(523,380,o),
(573,332,o),
(601,266,o),
(601,221,q),
(601,168,o),
(562,81,o),
(491,20,o),
(390,-14,o),
(328,-14,q),
(232,-14,o),
(84,53,o),
(33,110,q),
(168,219,l),
(202,186,o),
(279,152,o),
(317,152,q),
(339,152,o),
(374,163,o),
(399,182,o),
(412,209,o),
(412,225,q),
(412,242,o),
(397,269,o),
(368,287,o),
(325,297,o),
(298,297,q),
(293,297,o),
(271,297,o),
(245,297,o),
(222,297,o),
(216,297,q),
(188,398,l),
(349,543,l),
(81,543,l),
(81,700,l),
(587,700,l),
(587,561,l),
(420,418,l)
);
}
);
width = 642;
}
);
note = three;
unicode = 51;
},
{
glyphname = four;
layers = (
{
layerId = m01;
shapes = (
{
closed = 1;
nodes = (
(501,235,l),
(598,235,l),
(598,150,l),
(501,150,l),
(501,0,l),
(401,0,l),
(401,150,l),
(33,150,l),
(15,237,l),
(363,711,l),
(501,711,l)
);
},
{
closed = 1;
nodes = (
(129,235,l),
(401,235,l),
(401,609,l)
);
}
);
width = 632;
},
{
layerId = "45735946-F1C1-40B8-8BE5-3E07C57E9E20";
shapes = (
{
closed = 1;
nodes = (
(485,226,l),
(583,226,l),
(583,153,l),
(485,153,l),
(485,0,l),
(403,0,l),
(403,153,l),
(29,153,l),
(13,229,l),
(358,712,l),
(485,712,l)
);
},
{
closed = 1;
nodes = (
(110,226,l),
(403,226,l),
(403,635,l)
);
}
);
width = 619;
},
{
layerId = "3A3847A9-C47D-449F-9BC4-FC5D6C4739D9";
shapes = (
{
closed = 1;
nodes = (
(581,281,l),
(670,281,l),
(670,136,l),
(581,136,l),
(581,0,l),
(393,0,l),
(393,136,l),
(54,136,l),
(22,274,l),
(385,705,l),
(581,705,l)
);
},
{
closed = 1;
nodes = (
(226,281,l),
(393,281,l),
(393,481,l)
);
}
);
width = 695;
}
);
note = four;
unicode = 52;
},
{
glyphname = five;
layers = (
{
layerId = m01;
shapes = (
{
closed = 1;
nodes = (
(102,704,l),
(490,704,l),
(484,615,l),
(185,615,l),
(165,426,l),
(194,435,o),
(244,447,o),
(273,447,qs),
(323,447,o),
(410,416,o),
(476,359,o),
(514,277,o),
(514,225,qs),
(514,171,o),
(477,83,o),
(409,21,o),
(314,-13,o),
(256,-13,qs),
(180,-13,o),
(73,39,o),
(23,85,q),
(83,154,l),
(121,118,o),
(205,77,o),
(255,77,qs),
(329,77,o),
(412,157,o),
(412,221,qs),
(412,252,o),
(387,303,o),
(342,340,o),
(281,360,o),
(246,360,qs),
(219,360,o),
(170,349,o),
(146,339,q),
(72,375,l)
);
}
);
width = 574;
},
{
layerId = "45735946-F1C1-40B8-8BE5-3E07C57E9E20";
shapes = (
{
closed = 1;
nodes = (
(103,705,l),
(474,705,l),
(467,630,l),
(171,630,l),
(149,424,l),
(177.816,432.571,o),
(227.5,444,o),
(256.316,444,q),
(306,444,o),
(394,413,o),
(459,355,o),
(497,273,o),
(497,221.812,q),
(497,168.656,o),
(461.057,82.031,o),
(395,21,o),
(301.863,-13,o),
(245,-13,q),
(172.588,-13,o),
(70.639,37.939,o),
(23,83,q),
(72,139,l),
(109,103,o),
(194.254,62,o),
(245,62,q),
(323,62,o),
(412,149,o),
(412,217.822,q),
(412,251.158,o),
(385,306,o),
(337,347,o),
(271.552,369,o),
(234,369,q),
(207.54,369,o),
(159.52,359.048,o),
(136,350,q),
(71,381,l)
);
}
);
width = 562;
},
{
layerId = "3A3847A9-C47D-449F-9BC4-FC5D6C4739D9";
shapes = (
{
closed = 1;
nodes = (
(99,700,l),
(567,700,l),
(567,540,l),
(252,540,l),
(246,434,l),
(270,445,o),
(323,459,o),
(358,459,q),
(405,459,o),
(492,432,o),
(558,378,o),
(598,294,o),
(598,237,q),
(598,179,o),
(556,85,o),
(479,21,o),
(373,-14,o),
(309,-14,q),
(215,-14,o),
(80,46,o),
(25,97,q),
(136,227,l),
(179,191,o),
(261,151,o),
(306,151,q),
(354,151,o),
(409,197,o),
(409,235,q),
(409,254,o),
(394,284,o),
(367,305,o),
(329,316,o),
(306,316,q),
(274,316,o),
(219,296,o),
(194,281,q),
(79,345,l)
);
}
);
width = 635;
}
);
note = five;
unicode = 53;
},
{
glyphname = six;
layers = (
{
layerId = m01;
shapes = (
{
closed = 1;
nodes = (
(219,402,l),
(233,412,o),
(259,424,o),
(286,431,o),
(315,433,o),
(332,433,qs),
(378,433,o),
(458,404,o),
(517,348,o),
(551,269,o),
(551,219,qs),
(551,168,o),
(513,82,o),
(446,20,o),
(355,-14,o),
(302,-14,qs),
(248,-14,o),
(155,19,o),
(86,81,o),
(47,169,o),
(47,224,qs),
(47,251,o),
(59,301,o),
(85,356,o),
(123,419,o),
(149,458,qs),
(313,706,l),
(426,706,l)
);
},
{
closed = 1;
nodes = (
(174,132,o),
(214,93,o),
(269,71,o),
(301,71,qs),
(334,71,o),
(388,92,o),
(427,131,o),
(448,184,o),
(448,216,qs),
(448,246,o),
(427,296,o),
(388,332,o),
(333,353,o),
(300,353,qs),
(266,353,o),
(211,331,o),
(172,293,o),
(151,242,o),
(151,213,qs),
(151,183,o)
);
}
);
width = 600;
},
{
layerId = "45735946-F1C1-40B8-8BE5-3E07C57E9E20";
shapes = (
{
closed = 1;
nodes = (
(206,399,l),
(220,409,o),
(247,421,o),
(273,427,o),
(300,428,o),
(315,428,q),
(361,428,o),
(442,398,o),
(503,343,o),
(538,264,o),
(538,215,q),
(538,165,o),
(501,81,o),
(436,20,o),
(347,-14,o),
(296,-14,q),
(245,-14,o),
(155,18,o),
(88,80,o),
(49,168,o),
(49,224,q),
(49,251,o),
(62,300,o),
(86,353,o),
(122,411,o),
(146,447,q),
(317,706,l),
(412,706,l)
);
},
{
closed = 1;
nodes = (
(160,122,o),
(203,82,o),
(262,58,o),
(295,58,q),
(330,58,o),
(387,81,o),
(429,122,o),
(452,179,o),
(452,213,q),
(452,245,o),
(429,299,o),
(388,338,o),
(330,360,o),
(295,360,q),
(259,360,o),
(200,336,o),
(158,295,o),
(135,240,o),
(135,209,q),
(135,178,o)
);
}
);
width = 590;
},
{
layerId = "3A3847A9-C47D-449F-9BC4-FC5D6C4739D9";
shapes = (
{
closed = 1;
nodes = (
(285,414,l),
(298,424,o),
(322,440,o),
(351,452,o),
(388,458,o),
(414,458,q),
(460,458,o),
(534,429,o),
(587,374,o),
(615,293,o),
(615,240,q),
(615,181,o),
(572,87,o),
(496,21,o),
(393,-14,o),
(333,-14,q),
(264,-14,o),
(153,21,o),
(75,84,o),
(34,170,o),
(34,222,q),
(34,250,o),
(46,306,o),
(76,373,o),
(126,458,o),
(164,515,q),
(292,706,l),
(495,706,l)
);
},
{
closed = 1;
nodes = (
(244,177,o),
(269,152,o),
(306,137,o),
(329,137,q),
(352,137,o),
(388,151,o),
(413,176,o),
(426,210,o),
(426,229,q),
(426,248,o),
(412,281,o),
(387,305,o),
(350,319,o),
(327,319,q),
(304,319,o),
(268,305,o),
(243,281,o),
(230,249,o),
(230,230,q),
(230,211,o)
);
}
);
width = 649;
}
);
note = six;
unicode = 54;
},
{
glyphname = seven;
layers = (
{
layerId = m01;
shapes = (
{
closed = 1;
nodes = (
(78,0,l),
(416,615,l),
(37,615,l),
(37,704,l),
(526,704,l),
(526,617,l),
(191,0,l)
);
}
);
width = 521;
},
{
layerId = "45735946-F1C1-40B8-8BE5-3E07C57E9E20";
shapes = (
{
closed = 1;
nodes = (
(84,0,l),
(428,630,l),
(38,630,l),
(38,705,l),
(517,705,l),
(517,629,l),
(177,0,l)
);
}
);
width = 513;
},
{
layerId = "3A3847A9-C47D-449F-9BC4-FC5D6C4739D9";
shapes = (
{
closed = 1;
nodes = (
(45,0,l),
(353,537,l),
(29,537,l),
(29,700,l),
(568,700,l),
(568,554,l),
(259,0,l)
);
}
);
width = 558;
}
);
note = seven;
unicode = 55;
},
{
glyphname = eight;
layers = (
{
layerId = m01;
shapes = (
{
closed = 1;
nodes = (
(490,394,o),
(440,368,q),
(504,343,o),
(575,255,o),
(575,193,qs),
(575,147,o),
(536,71,o),
(468,17,o),
(375,-12,o),
(321,-12,qs),
(267,-12,o),
(174,19,o),
(106,73,o),
(67,148,o),
(67,191,qs),
(67,254,o),
(137,342,o),
(201,369,q),
(150,393,o),
(93,474,o),
(93,529,qs),
(93,570,o),
(129,639,o),
(191,689,o),
(274,717,o),
(321,717,qs),
(368,717,o),
(451,689,o),
(513,638,o),
(550,568,o),
(550,526,qs),
(550,471,o)
);
},
{
closed = 1;
nodes = (
(212,453,o),
(247,422,o),
(294,405,o),
(321,405,qs),
(348,405,o),
(396,422,o),
(431,453,o),
(451,496,o),
(451,521,qs),
(451,545,o),
(431,586,o),
(396,616,o),
(349,633,o),
(321,633,qs),
(294,633,o),
(246,616,o),
(212,586,o),
(192,544,o),
(192,520,qs),
(192,495,o)
);
},
{
closed = 1;
nodes = (
(191,127,o),
(230,92,o),
(286,72,o),
(321,72,qs),
(355,72,o),
(411,92,o),
(451,127,o),
(473,173,o),
(473,199,qs),
(473,226,o),
(450,272,o),
(410,305,o),
(354,324,o),
(321,324,qs),
(288,324,o),
(233,305,o),
(192,272,o),
(170,226,o),
(170,199,qs),
(170,173,o)
);
}
);
width = 642;
},
{
layerId = "45735946-F1C1-40B8-8BE5-3E07C57E9E20";
shapes = (
{
closed = 1;
nodes = (
(479.909,395.13,o),
(429,369,q),
(495,344,o),
(567,254.827,o),
(567,192,q),
(567,146.261,o),
(528.729,70.693,o),
(462,17,o),
(371.551,-12,o),
(319.032,-12,q),
(266.514,-12,o),
(176.065,18.989,o),
(109.93,72.678,o),
(72,147.247,o),
(72,190,q),
(72,253.417,o),
(143,342,o),
(209,370,q),
(155,394,o),
(99,477,o),
(99,531,q),
(99,572,o),
(134,641,o),
(193.862,690.359,o),
(274,718,o),
(318.5,718,q),
(363,718,o),
(444.283,690.354,o),
(505,640,o),
(541,570,o),
(541,527.79,q),
(541,472.515,o)
);
},
{
closed = 1;
nodes = (
(204,454,o),
(240.927,421.062,o),
(290.514,403,o),
(319,403,q),
(347.718,403,o),
(398.773,420.708,o),
(436,453,o),
(458,499,o),
(458,525.944,q),
(458,551.811,o),
(437,596,o),
(399.012,627.915,o),
(348,646,o),
(318.641,646,q),
(290.33,646,o),
(240,628,o),
(203,596,o),
(192,551.158,o),
(192,525.534,q),
(182,498,o)
);
},
{
closed = 1;
nodes = (
(181,118,o),
(223,81,o),
(282,60,o),
(319.121,60,q),
(355.182,60,o),
(414.576,81.091,o),
(457,118,o),
(481,168,o),
(481,196.453,q),
(481,226,o),
(457,275,o),
(414.083,310.538,o),
(354,331,o),
(318.818,331,q),
(283.636,331,o),
(225,311,o),
(182,275,o),
(158,225,o),
(158,195.818,q),
(158,167.717,o)
);
}
);
width = 639;
},
{
layerId = "3A3847A9-C47D-449F-9BC4-FC5D6C4739D9";
shapes = (
{
closed = 1;
nodes = (
(539,386,o),
(497,363,q),
(551,338,o),
(617,253,o),
(617,196,q),
(617,149,o),
(574,72,o),
(498,18,o),
(392,-12,o),
(329,-12,q),
(266,-12,o),
(160,18,o),
(84,73,o),
(41,149,o),
(41,195,q),
(41,255,o),
(104,339,o),
(161,363,q),
(119,386,o),
(65,459,o),
(65,516,q),
(65,558,o),
(103,630,o),
(173,682,o),
(270,712,o),
(329,712,q),
(388,712,o),
(485,682,o),
(555,630,o),
(593,558,o),
(593,516,q),
(593,459,o)
);
},
{
closed = 1;
nodes = (
(255,451,o),
(278,429,o),
(310,416,o),
(329,416,q),
(349,416,o),
(380,429,o),
(403,450,o),
(415,478,o),
(415,493,q),
(415,508,o),
(403,535,o),
(381,555,o),
(349,567,o),
(329,567,q),
(309,567,o),
(277,555,o),
(255,536,o),
(243,509,o),
(243,494,q),
(243,479,o)
);
},
{
closed = 1;
nodes = (
(241,169,o),
(267,147,o),
(305,133,o),
(329,133,q),
(353,133,o),
(391,147,o),
(417,169,o),
(430,198,o),
(430,214,q),
(430,231,o),
(415,259,o),
(388,279,o),
(351,290,o),
(329,290,q),
(307,290,o),
(270,279,o),
(243,259,o),
(228,231,o),
(228,214,q),
(228,198,o)
);
}
);
width = 658;
}
);
note = eight;
unicode = 56;
},
{
glyphname = nine;
layers = (
{
layerId = m01;
shapes = (
{
closed = 1;
nodes = (
(377,304,l),
(350,284,o),
(302,268,o),
(268,268,qs),
(222,268,o),
(141,300,o),
(81,357,o),
(47,437,o),
(47,486,qs),
(47,537,o),
(85,623,o),
(152,685,o),
(242,720,o),
(294,720,qs),
(350,720,o),
(443,686,o),
(512,623,o),
(550,535,o),
(550,480,qs),
(550,449,o),
(535,391,o),
(509,336,o),
(474,281,o),
(455,253,qs),
(284,-2,l),
(172,-2,l)
);
},
{
closed = 1;
nodes = (
(422,573,o),
(382,612,o),
(327,634,o),
(296,634,qs),
(263,634,o),
(210,612,o),
(171,573,o),
(150,522,o),
(150,492,qs),
(150,462,o),
(171,411,o),
(210,373,o),
(264,352,o),
(297,352,qs),
(330,352,o),
(384,374,o),
(424,412,o),
(446,463,o),
(446,492,qs),
(446,522,o)
);
}
);
width = 597;
},
{
layerId = "45735946-F1C1-40B8-8BE5-3E07C57E9E20";
shapes = (
{
closed = 1;
nodes = (
(380,306,l),
(353,286,o),
(306,272,o),
(275,272,q),
(229,272,o),
(147,304,o),
(85,361,o),
(49,442,o),
(49,490,q),
(49,539,o),
(86,623,o),
(151,685,o),
(239,720,o),
(290,720,q),
(343,720,o),
(433,686,o),
(499,624,o),
(537,535,o),
(537,479,q),
(537,446,o),
(520,385,o),
(492,328,o),
(457,274,o),
(439,248,q),
(269,-2,l),
(176,-2,l)
);
},
{
closed = 1;
nodes = (
(426,582,o),
(382,623,o),
(324,647,o),
(291,647,q),
(257,647,o),
(199,623,o),
(158,582,o),
(135,526,o),
(135,494,q),
(135,462,o),
(158,407,o),
(200,367,o),
(258,345,o),
(292,345,q),
(327,345,o),
(385,369,o),
(427,410,o),
(451,464,o),
(451,495,q),
(451,527,o)
);
}
);
width = 586;
},
{
layerId = "3A3847A9-C47D-449F-9BC4-FC5D6C4739D9";
shapes = (
{
closed = 1;
nodes = (
(364,292,l),
(336,271,o),
(280,248,o),
(235,248,q),
(189,248,o),
(115,277,o),
(62,334,o),
(34,416,o),
(34,468,q),
(34,527,o),
(78,620,o),
(153,685,o),
(255,720,o),
(312,720,q),
(384,720,o),
(496,685,o),
(574,622,o),
(615,536,o),
(615,484,q),
(615,465,o),
(608,424,o),
(590,375,o),
(559,315,o),
(535,277,q),
(357,0,l),
(154,0,l)
);
},
{
closed = 1;
nodes = (
(405,530,o),
(380,555,o),
(343,569,o),
(320,569,q),
(297,569,o),
(261,555,o),
(236,531,o),
(223,498,o),
(223,479,q),
(223,460,o),
(237,427,o),
(262,402,o),
(299,387,o),
(322,387,q),
(345,387,o),
(381,401,o),
(406,426,o),
(419,459,o),
(419,478,q),
(419,497,o)
);
}
);
width = 649;
}
);
note = nine;
unicode = 57;
},
{
glyphname = colon;
layers = (
{
layerId = m01;
shapes = (
{
closed = 1;
nodes = (
(119,127,o),
(151,127,qs),
(178,127,o),
(219,88,o),
(219,59,qs),
(219,29,o),
(178,-11,o),
(151,-11,qs),
(119,-11,o),
(81,29,o),
(81,59,qs),
(81,88,o)
);
},
{
closed = 1;
nodes = (
(119,501,o),
(151,501,qs),
(178,501,o),
(219,463,o),
(219,433,qs),
(219,402,o),
(178,364,o),
(151,364,qs),
(119,364,o),
(81,402,o),
(81,433,qs),
(81,463,o)
);
}
);
width = 301;
},
{
layerId = "45735946-F1C1-40B8-8BE5-3E07C57E9E20";
shapes = (
{
closed = 1;
nodes = (
(118,111,o),
(145.84,111,q),
(169.33,111,o),
(205,76,o),
(205,51.424,q),
(205,26,o),
(169,-10,o),
(145.619,-10,q),
(117.907,-10,o),
(85,26,o),
(85,52.02,q),
(85,76,o)
);
},
{
closed = 1;
nodes = (
(118,491,o),
(145.84,491,q),
(169.33,491,o),
(205,456,o),
(205,430.918,q),
(205,405,o),
(169,370,o),
(145.619,370,q),
(117.907,370,o),
(85,405,o),
(85,431.929,q),
(85,456,o)
);
}
);
width = 291;
},
{
layerId = "3A3847A9-C47D-449F-9BC4-FC5D6C4739D9";
shapes = (
{
closed = 1;
nodes = (
(126,206,o),
(174,206,q),
(222,206,o),
(287,151,o),
(287,97,q),
(287,43,o),
(222,-13,o),
(174,-13,q),
(126,-13,o),
(62,43,o),
(62,97,q),
(62,151,o)
);
},
{
closed = 1;
nodes = (
(126,552,o),
(174,552,q),
(222,552,o),
(287,497,o),
(287,443,q),
(287,389,o),
(222,333,o),
(174,333,q),
(126,333,o),
(62,389,o),
(62,443,q),
(62,497,o)
);
}
);
width = 350;
}
);
note = colon;
unicode = 58;
},
{
glyphname = semicolon;
layers = (
{
layerId = m01;
shapes = (
{
closed = 1;
nodes = (
(97,501,o),
(127,501,qs),
(155,501,o),
(196,463,o),
(196,433,qs),
(196,402,o),
(155,364,o),
(127,364,qs),
(97,364,o),
(58,402,o),
(58,433,qs),
(58,463,o)
);
},
{
closed = 1;
nodes = (
(30,-143,l),
(77,133,l),
(189,133,l),
(110,-143,l)
);
}
);
width = 261;
},
{
layerId = "45735946-F1C1-40B8-8BE5-3E07C57E9E20";
shapes = (
{
closed = 1;
nodes = (
(97,491,o),
(124,491,q),
(147,491,o),
(184,456,o),
(184,431,q),
(184,405,o),
(147,370,o),
(124,370,q),
(97,370,o),
(63,405,o),
(63,431,q),
(63,456,o)
);
},
{
closed = 1;
nodes = (
(35,-139,l),
(78,120,l),
(179,120,l),
(105,-139,l)
);
}
);
width = 254;
},
{
layerId = "3A3847A9-C47D-449F-9BC4-FC5D6C4739D9";
shapes = (
{
closed = 1;
nodes = (
(95,552,o),
(143,552,q),
(191,552,o),
(256,497,o),
(256,443,q),
(256,389,o),
(191,333,o),
(143,333,q),
(95,333,o),
(31,389,o),
(31,443,q),
(31,497,o)
);
},
{
closed = 1;
nodes = (
(7,-164,l),
(69,197,l),
(240,197,l),
(137,-164,l)
);
}
);
width = 297;
}
);
note = semicolon;
unicode = 59;
},
{
glyphname = less;
layers = (
{
layerId = m01;
shapes = (
{
closed = 1;
nodes = (
(167,345,l),
(544,172,l),
(544,77,l),
(63,300,l),
(63,388,l),
(544,611,l),
(544,515,l)
);
}
);
width = 606;
},
{
layerId = "45735946-F1C1-40B8-8BE5-3E07C57E9E20";
shapes = (
{
closed = 1;
nodes = (
(149,343,l),
(536,158,l),
(536,79,l),
(58,307,l),
(58,378,l),
(536,606,l),
(536,526,l)
);
}
);
width = 594;
},
{
layerId = "3A3847A9-C47D-449F-9BC4-FC5D6C4739D9";
shapes = (
{
closed = 1;
nodes = (
(255,352,l),
(582,243,l),
(582,65,l),
(85,263,l),
(85,440,l),
(582,638,l),
(582,461,l)
);
}
);
width = 666;
}
);
note = less;
unicode = 60;
},
{
glyphname = equal;
lastChange = "2023-04-07 16:42:50 +0000";
layers = (
{
layerId = m01;
shapes = (
{
closed = 1;
nodes = (
(530,432,l),
(53,432,l),
(53,523,l),
(530,523,l)
);
},
{
closed = 1;
nodes = (
(530,186,l),
(53,186,l),
(53,276,l),
(530,276,l)
);
}
);
width = 582;
},
{
layerId = "45735946-F1C1-40B8-8BE5-3E07C57E9E20";
shapes = (
{
closed = 1;
nodes = (
(524,438,l),
(47,438,l),
(47,513,l),
(521,513,l)
);
},
{
closed = 1;
nodes = (
(521,196,l),
(47,196,l),
(47,271,l),
(521,271,l)
);
}
);
width = 568;
},
{
layerId = "3A3847A9-C47D-449F-9BC4-FC5D6C4739D9";
shapes = (
{
closed = 1;
nodes = (
(572,403,l),
(81,403,l),
(81,570,l),
(572,570,l)
);
},
{
closed = 1;
nodes = (
(572,134,l),
(81,134,l),
(81,301,l),
(572,301,l)
);
}
);
width = 653;
}
);
note = equal;
unicode = 61;
},
{
glyphname = greater;
layers = (
{
layerId = m01;
shapes = (
{
closed = 1;
nodes = (
(543,389,l),
(543,299,l),
(63,78,l),
(63,174,l),
(439,344,l),
(63,514,l),
(63,611,l)
);
}
);
width = 605;
},
{
layerId = "45735946-F1C1-40B8-8BE5-3E07C57E9E20";
shapes = (
{
closed = 1;
nodes = (
(535,379,l),
(535,306,l),
(58,80,l),
(58,160,l),
(444,342,l),
(58,525,l),
(58,606,l)
);
}
);
width = 593;
},
{
layerId = "3A3847A9-C47D-449F-9BC4-FC5D6C4739D9";
shapes = (
{
closed = 1;
nodes = (
(582,440,l),
(582,263,l),
(85,65,l),
(85,242,l),
(412,351,l),
(85,460,l),
(85,638,l)
);
}
);
width = 667;
}
);
note = greater;
unicode = 62;
},
{
glyphname = question;
layers = (
{
layerId = m01;
shapes = (
{
closed = 1;
nodes = (
(145,615,o),
(106,594,o),
(69,560,o),
(51,536,q),
(51,643,l),
(77,677,o),
(164,716,o),
(218,716,qs),
(259,716,o),
(328,692,o),
(378,647,o),
(405,583,o),
(405,544,qs),
(405,514,o),
(391,464,o),
(365,421,o),
(331,383,o),
(311,366,qs),
(293,350,o),
(267,321,o),
(250,289,o),
(242,251,o),
(242,227,qs),
(242,195,l),
(144,195,l),
(144,254,ls),
(144,286,o),
(161,336,o),
(187,378,o),
(221,412,o),
(237,427,qs),
(264,452,o),
(304,502,o),
(304,536,qs),
(304,553,o),
(291,585,o),
(265,610,o),
(228,625,o),
(204,625,qs),
(185,625,o)
);
},
{
closed = 1;
nodes = (
(171,121,o),
(198,121,qs),
(227,121,o),
(267,83,o),
(267,56,qs),
(267,25,o),
(227,-10,o),
(198,-10,qs),
(171,-10,o),
(131,25,o),
(131,56,qs),
(131,83,o)
);
}
);
width = 456;
},
{
layerId = "45735946-F1C1-40B8-8BE5-3E07C57E9E20";
shapes = (
{
closed = 1;
nodes = (
(147,633,o),
(108.513,612,o),
(72,578,o),
(54,552,q),
(54,649,l),
(77,679,o),
(159.681,717,o),
(211,717,q),
(252,717,o),
(317,693,o),
(363,649,o),
(388,588.368,o),
(388,551.421,q),
(388,523,o),
(374,473,o),
(350,429,o),
(317.259,391,o),
(298,374,q),
(278.773,356.578,o),
(251,325,o),
(232.64,290.257,o),
(224,249,o),
(224,222,q),
(224,190,l),
(142,190,l),
(142,252,l),
(142,284,o),
(159,336,o),
(186,378,o),
(219,413,o),
(235.771,428.847,q),
(264.072,455.258,o),
(306,508.081,o),
(306,544,q),
(306,562.378,o),
(293,596.973,o),
(267,624,o),
(226.967,641,o),
(201,641,q),
(183,641,o)
);
},
{
closed = 1;
nodes = (
(164,109,o),
(187.625,109,q),
(213,109,o),
(249,73,o),
(249,49.724,q),
(249,23,o),
(213,-9,o),
(188,-9,q),
(163.821,-9,o),
(128,23,o),
(128,50.771,q),
(128,73,o)
);
}
);
width = 442;
},
{
layerId = "3A3847A9-C47D-449F-9BC4-FC5D6C4739D9";
shapes = (
{
closed = 1;
nodes = (
(137,529,o),
(92,502,o),
(52,469,o),
(37,455,q),
(37,613,l),
(76,664,o),
(188,709,o),
(251,709,q),
(297,709,o),
(382,682,o),
(448,631,o),
(487,555,o),
(487,506,q),
(487,472,o),
(470,421,o),
(440,380,o),
(399,344,o),
(374,325,q),
(362,315,o),
(345,299,o),
(334,283,o),
(330,263,o),
(330,249,q),
(330,218,l),
(156,218,l),
(156,261,l),
(156,291,o),
(171,338,o),
(196,375,o),
(227,404,o),
(243,417,q),
(263,432,o),
(296,472,o),
(296,494,q),
(296,508,o),
(282,528,o),
(259,541,o),
(230,547,o),
(216,547,q),
(189,547,o)
);
},
{
closed = 1;
nodes = (
(205,180,o),
(250,180,q),
(295,180,o),
(358,132,o),
(358,84,q),
(358,36,o),
(295,-13,o),
(250,-13,q),
(205,-13,o),
(143,36,o),
(143,84,q),
(143,132,o)
);
}
);
width = 524;
}
);
note = question;
unicode = 63;
},
{
glyphname = at;
layers = (
{
layerId = m01;
shapes = (
{
closed = 1;
nodes = (
(380,421,o),
(344,380,o),
(323,326,o),
(323,295,qs),
(323,243,o),
(377,178,o),
(424,178,qs),
(453,178,o),
(502,204,o),
(539,248,o),
(560,304,o),
(560,334,qs),
(560,383,o),
(506,445,o),
(458,445,qs),
(430,445,o)
);
},
{
closed = 1;
nodes = (
(684,-62,o),
(549,-105,o),
(471,-105,qs),
(379,-105,o),
(224,-42,o),
(112,68,o),
(49,217,o),
(49,303,qs),
(49,390,o),
(113,541,o),
(225,653,o),
(377,718,o),
(465,718,qs),
(548,718,o),
(694,661,o),
(802,562,o),
(864,429,o),
(864,352,qs),
(864,292,o),
(835,198,o),
(784,133,o),
(715,100,o),
(676,100,qs),
(628,100,o),
(572,143,o),
(557,184,q),
(531,149,o),
(459,102,o),
(408,102,qs),
(370,102,o),
(306,130,o),
(259,179,o),
(232,248,o),
(232,290,qs),
(232,338,o),
(266,422,o),
(325,486,o),
(404,523,o),
(448,523,qs),
(499,523,o),
(561,479,o),
(581,446,q),
(591,510,l),
(675,501,l),
(637,237,l),
(636,219,o),
(643,187,o),
(658,165,o),
(682,152,o),
(698,152,qs),
(722,152,o),
(764,179,o),
(795,229,o),
(814,300,o),
(814,343,qs),
(814,413,o),
(761,533,o),
(668,622,o),
(540,673,o),
(464,673,qs),
(386,673,o),
(253,617,o),
(156,518,o),
(101,383,o),
(101,305,qs),
(101,227,o),
(154,94,o),
(253,-4,o),
(393,-60,o),
(479,-60,qs),
(549,-60,o),
(664,-24,o),
(721,13,q),
(745,-21,l)
);
}
);
width = 913;
},
{
layerId = "45735946-F1C1-40B8-8BE5-3E07C57E9E20";
shapes = (
{
closed = 1;
nodes = (
(373,428.738,o),
(335,389,o),
(313,331,o),
(313,298.88,q),
(313,245,o),
(370,175,o),
(418.855,175,q),
(449,175,o),
(502,203,o),
(540.914,249.2,o),
(563,308,o),
(563,339.139,q),
(563,390,o),
(506,452,o),
(455.333,452,q),
(425,457,o)
);
},
{
closed = 1;
nodes = (
(682.785,-49.636,o),
(547,-93,o),
(469.48,-93,q),
(378.046,-93,o),
(224,-31,o),
(113.28,77.301,o),
(51,224,o),
(51,308.97,q),
(51,394.928,o),
(114.231,544.12,o),
(224.885,654.778,o),
(375.058,719,o),
(462,719,q),
(543.188,719,o),
(686,663,o),
(792.729,564.853,o),
(854,433,o),
(854,357.301,q),
(854,298.314,o),
(825.725,205.902,o),
(776,142,o),
(710,109,o),
(671,109,q),
(626.231,109,o),
(574,152,o),
(559.732,194,q),
(535,159,o),
(461,111,o),
(410,111,q),
(373,111,o),
(308,138,o),
(262,187,o),
(235,254.596,o),
(235,295.741,q),
(235,342.765,o),
(269,425.055,o),
(328,487.753,o),
(407,524,o),
(451,524,q),
(502,524,o),
(564,479,o),
(583.333,446,q),
(593,511,l),
(663,505,l),
(626,239,l),
(626,221,o),
(634,191,o),
(649,170,o),
(671.8,158,o),
(687,158,q),
(711,158,o),
(753,185,o),
(786,235,o),
(805,304,o),
(805,346.239,q),
(805,415,o),
(753,535,o),
(660,624,o),
(535.137,674,o),
(461,674,q),
(384.109,674,o),
(253,618,o),
(157.276,520.692,o),
(103,388,o),
(103,311.5,q),
(103,235,o),
(156,103,o),
(253.997,6.273,o),
(392.58,-49,o),
(477.709,-49,q),
(547,-49,o),
(662,-11,o),
(720,26,q),
(744,-8.288,l)
);
}
);
width = 906;
},
{
layerId = "3A3847A9-C47D-449F-9BC4-FC5D6C4739D9";
shapes = (
{
closed = 1;
nodes = (
(415,367,o),
(389,337,o),
(374,296,o),
(374,272,q),
(374,234,o),
(415,194,o),
(447,194,q),
(467,194,o),
(502,212,o),
(528,243,o),
(543,285,o),
(543,309,q),
(543,344,o),
(502,385,o),
(470,385,q),
(450,385,o)
);
},
{
closed = 1;
nodes = (
(690,-122,o),
(561,-162,o),
(483,-162,q),
(386,-162,o),
(223,-94,o),
(104,25,o),
(37,184,o),
(37,275,q),
(37,365,o),
(105,525,o),
(223,645,o),
(386,714,o),
(480,714,q),
(573,714,o),
(731,652,o),
(846,546,o),
(911,405,o),
(911,325,q),
(911,257,o),
(875,156,o),
(816,90,o),
(739,57,o),
(698,57,q),
(635,57,o),
(562,102,o),
(544,133,q),
(515,100,o),
(445,59,o),
(397,59,q),
(358,59,o),
(291,88,o),
(242,140,o),
(214,214,o),
(214,260,q),
(214,314,o),
(250,408,o),
(310,479,o),
(390,520,o),
(435,520,q),
(484,520,o),
(549,477,o),
(569,446,q),
(581,507,l),
(736,483,l),
(690,225,l),
(687,206,o),
(690,169,o),
(704,140,o),
(730,122,o),
(751,122,q),
(775,122,o),
(815,148,o),
(844,199,o),
(859,275,o),
(859,325,q),
(859,397,o),
(805,522,o),
(705,614,o),
(566,667,o),
(480,667,q),
(393,667,o),
(249,607,o),
(146,501,o),
(89,358,o),
(89,275,q),
(89,191,o),
(145,50,o),
(248,-54,o),
(394,-112,o),
(483,-112,q),
(555,-112,o),
(671,-88,o),
(728,-55,q),
(748,-87,l)
);
}
);
width = 948;
}
);
note = at;
unicode = 64;
},
{
glyphname = A;
layers = (
{
layerId = m01;
shapes = (
{
closed = 1;
nodes = (
(104,0,l),
(-6,0,l),
(301,705,l),
(390,705,l),
(698,0,l),
(585,0,l),
(507,185,l),
(184,185,l)
);
},
{
closed = 1;
nodes = (
(471,273,l),
(345,584,l),
(220,273,l)
);
}
);
width = 692;
},
{
layerId = "45735946-F1C1-40B8-8BE5-3E07C57E9E20";
shapes = (
{
closed = 1;
nodes = (
(86,0,l),
(-5,0,l),
(303,705,l),
(373,705,l),
(682,0,l),
(589,0,l),
(505,197,l),
(171,197,l)
);
},
{
closed = 1;
nodes = (
(473,272,l),
(338,606,l),
(203,272,l)
);
}
);
width = 677;
},
{
layerId = "3A3847A9-C47D-449F-9BC4-FC5D6C4739D9";
shapes = (
{
closed = 1;
nodes = (
(196,0,l),
(-8,0,l),
(290,705,l),
(477,705,l),
(775,0,l),
(567,0,l),
(516,125,l),
(246,125,l)
);
},
{
closed = 1;
nodes = (
(460,276,l),
(382,475,l),
(303,276,l)
);
}
);
width = 767;
}
);
note = A;
unicode = 65;
},
{
glyphname = B;
layers = (
{
layerId = m01;
shapes = (
{
closed = 1;
nodes = (
(303,704,ls),
(351,704,o),
(440,685,o),
(507,643,o),
(548,575,o),
(548,527,qs),
(548,470,o),
(496,385,o),
(445,366,q),
(529,353,o),
(607,259,o),
(607,194,qs),
(607,154,o),
(575,83,o),
(507,31,o),
(401,0,o),
(327,0,qs),
(76,0,l),
(76,704,l)
);
},
{
closed = 1;
nodes = (
(304,400,ls),
(377,400,o),
(446,463,o),
(446,510,qs),
(446,565,o),
(370,617,o),
(305,617,qs),
(178,617,l),
(178,400,l)
);
},
{
closed = 1;
nodes = (
(335,88,ls),
(423,88,o),
(504,147,o),
(504,202,qs),
(504,229,o),
(483,272,o),
(436,301,o),
(361,316,o),
(307,316,qs),
(178,316,l),
(178,88,l)
);
}
);
width = 651;
},
{
layerId = "45735946-F1C1-40B8-8BE5-3E07C57E9E20";
shapes = (
{
closed = 1;
nodes = (
(281,705,l),
(328,705,o),
(416,687,o),
(485,645,o),
(527,577,o),
(527,527,q),
(527,470,o),
(476,385,o),
(425,366,q),
(513,354,o),
(591,258,o),
(591,194,q),
(591,155,o),
(560,84,o),
(492,31,o),
(385,0,o),
(309,0,q),
(80,0,l),
(80,705,l)
);
},
{
closed = 1;
nodes = (
(291,396,l),
(370,396,o),
(443,465,o),
(443,515,q),
(443,575,o),
(360,631,o),
(291,631,q),
(164,631,l),
(164,396,l)
);
},
{
closed = 1;
nodes = (
(323,74,l),
(420,74,o),
(507,138,o),
(507,198,q),
(507,228,o),
(484,274,o),
(433,306,o),
(350,322,o),
(290,322,q),
(164,322,l),
(164,74,l)
);
}
);
width = 637;
},
{
layerId = "3A3847A9-C47D-449F-9BC4-FC5D6C4739D9";
shapes = (
{
closed = 1;
nodes = (
(415,700,l),
(470,700,o),
(558,676,o),
(620,631,o),
(653,566,o),
(653,524,q),
(653,463,o),
(593,386,o),
(545,366,q),
(609,347,o),
(684,266,o),
(684,195,q),
(684,150,o),
(648,78,o),
(580,27,o),
(480,0,o),
(417,0,q),
(58,0,l),
(58,700,l)
);
},
{
closed = 1;
nodes = (
(368,421,l),
(412,421,o),
(459,453,o),
(459,484,q),
(459,513,o),
(415,544,o),
(372,544,q),
(247,544,l),
(247,421,l)
);
},
{
closed = 1;
nodes = (
(396,156,l),
(441,156,o),
(490,191,o),
(490,222,q),
(490,236,o),
(478,260,o),
(454,276,o),
(418,285,o),
(394,285,q),
(247,285,l),
(247,156,l)
);
}
);
width = 718;
}
);
note = B;
unicode = 66;
},
{
glyphname = C;
layers = (
{
layerId = m01;
shapes = (
{
closed = 1;
nodes = (
(595,34,o),
(484,-14,o),
(410,-14,qs),
(334,-14,o),
(202,42,o),
(104,140,o),
(49,273,o),
(49,351,qs),
(49,428,o),
(104,562,o),
(201,661,o),
(335,718,o),
(414,718,qs),
(484,718,o),
(588,677,o),
(630,645,q),
(630,532,l),
(593,573,o),
(490,625,o),
(412,625,qs),
(355,625,o),
(260,582,o),
(192,508,o),
(155,408,o),
(155,352,qs),
(155,295,o),
(192,196,o),
(260,123,o),
(355,80,o),
(412,80,qs),
(449,80,o),
(512,97,o),
(567,126,o),
(618,165,o),
(643,187,q),
(643,74,l)
);
}
);
width = 699;
},
{
layerId = "45735946-F1C1-40B8-8BE5-3E07C57E9E20";
shapes = (
{
closed = 1;
nodes = (
(599,36,o),
(486.724,-14,o),
(411.874,-14,q),
(335,-14,o),
(203,42,o),
(105.641,140.158,o),
(51,273.373,o),
(51,351.499,q),
(51,428.624,o),
(106,562.84,o),
(203,662,o),
(336.371,719,o),
(415,719,q),
(487,719,o),
(590,676,o),
(633,643,q),
(633,547,l),
(595,590,o),
(492,643,o),
(409.812,643,q),
(349.752,643,o),
(249.651,597.06,o),
(178,518,o),
(138,411.59,o),
(138,352,q),
(138,291.712,o),
(178,187,o),
(250,108,o),
(350,63,o),
(410,63,q),
(448.194,63,o),
(513.226,81.109,o),
(570,112,o),
(622,153,o),
(647,175,q),
(647,78,l)
);
}
);
width = 706;
},
{
layerId = "3A3847A9-C47D-449F-9BC4-FC5D6C4739D9";
shapes = (
{
closed = 1;
nodes = (
(573,20,o),
(464,-14,o),
(398,-14,q),
(323,-14,o),
(191,41,o),
(94,138,o),
(37,272,o),
(37,350,q),
(37,427,o),
(93,559,o),
(191,658,o),
(327,714,o),
(406,714,q),
(472,714,o),
(575,681,o),
(617,652,q),
(617,455,l),
(583,490,o),
(483,537,o),
(424,537,q),
(380,537,o),
(310,508,o),
(262,458,o),
(237,390,o),
(237,352,q),
(237,312,o),
(262,243,o),
(310,192,o),
(379,163,o),
(424,163,q),
(452,163,o),
(503,174,o),
(552,195,o),
(599,227,o),
(622,248,q),
(622,54,l)
);
}
);
width = 665;
}
);
note = C;
unicode = 67;
},
{
glyphname = D;
layers = (
{
layerId = m01;
shapes = (
{
closed = 1;
nodes = (
(306,704,ls),
(389,704,o),
(528,654,o),
(628,562,o),
(685,433,o),
(685,353,qs),
(685,276,o),
(631,146,o),
(531,52,o),
(391,0,o),
(304,0,qs),
(76,0,l),
(76,704,l)
);
},
{
closed = 1;
nodes = (
(302,92,ls),
(368,92,o),
(470,130,o),
(541,199,o),
(577,294,o),
(577,351,qs),
(577,399,o),
(546,492,o),
(486,566,o),
(399,611,o),
(342,611,qs),
(180,611,l),
(180,92,l)
);
}
);
width = 734;
},
{
layerId = "45735946-F1C1-40B8-8BE5-3E07C57E9E20";
shapes = (
{
closed = 1;
nodes = (
(301.182,705,l),
(381,705,o),
(519,655,o),
(620,563,o),
(677,433.098,o),
(677,352.538,q),
(677,275,o),
(623,146,o),
(523.833,52,o),
(385,0,o),
(300,0,q),
(80,0,l),
(80,705,l)
);
},
{
closed = 1;
nodes = (
(296.085,76,l),
(367,76,o),
(475,117,o),
(549.318,190.059,o),
(587,290.647,o),
(587,351,q),
(587,400,o),
(556,499,o),
(494,578,o),
(403.375,628,o),
(344,628,q),
(165,628,l),
(165,76,l)
);
}
);
width = 729;
},
{
layerId = "3A3847A9-C47D-449F-9BC4-FC5D6C4739D9";
shapes = (
{
closed = 1;
nodes = (
(328,700,l),
(422,700,o),
(569,649,o),
(670,557,o),
(723,430,o),
(723,354,q),
(723,278,o),
(669,149,o),
(567,54,o),
(419,0,o),
(324,0,q),
(58,0,l),
(58,700,l)
);
},
{
closed = 1;
nodes = (
(331,172,l),
(375,172,o),
(446,196,o),
(496,242,o),
(524,309,o),
(524,351,q),
(524,393,o),
(496,459,o),
(445,504,o),
(374,528,o),
(331,528,q),
(252,528,l),
(252,172,l)
);
}
);
width = 761;
}
);
note = D;
unicode = 68;
},
{
glyphname = E;
lastChange = "2023-04-07 16:46:30 +0000";
layers = (
{
layerId = m01;
shapes = (
{
closed = 1;
nodes = (
(564,91,l),
(564,0,l),
(76,0,l),
(76,704,l),
(554,704,l),
(554,613,l),
(180,613,l),
(180,402,l),
(524,402,l),
(524,314,l),
(180,314,l),
(180,91,l)
);
}
);
width = 628;
},
{
layerId = "45735946-F1C1-40B8-8BE5-3E07C57E9E20";
shapes = (
{
closed = 1;
nodes = (
(551,76,l),
(551,0,l),
(80,0,l),
(80,705,l),
(540,705,l),
(540,629,l),
(166,629,l),
(166,397,l),
(511,397,l),
(511,321,l),
(166,321,l),
(166,76,l)
);
}
);
width = 618;
},
{
layerId = "3A3847A9-C47D-449F-9BC4-FC5D6C4739D9";
shapes = (
{
closed = 1;
nodes = (
(626,165,l),
(626,0,l),
(58,0,l),
(58,700,l),
(621,700,l),
(621,535,l),
(250,535,l),
(250,429,l),
(586,429,l),
(586,276,l),
(250,276,l),
(250,165,l)
);
}
);
width = 675;
}
);
note = E;
unicode = 69;
},
{
glyphname = F;
lastChange = "2023-04-07 16:48:32 +0000";
layers = (
{
layerId = m01;
shapes = (
{
closed = 1;
nodes = (
(76,-2,l),
(76,704,l),
(551,704,l),
(551,613,l),
(180,613,l),
(180,393,l),
(519,393,l),
(519,303,l),
(180,303,l),
(180,-2,l)
);
}
);
width = 601;
},
{
layerId = "45735946-F1C1-40B8-8BE5-3E07C57E9E20";
shapes = (
{
closed = 1;
nodes = (
(80,0,l),
(80,705,l),
(537,705,l),
(537,629,l),
(165,629,l),
(165,389,l),
(506,389,l),
(506,313,l),
(165,313,l),
(165,0,l)
);
}
);
width = 589;
},
{
layerId = "3A3847A9-C47D-449F-9BC4-FC5D6C4739D9";
shapes = (
{
closed = 1;
nodes = (
(58,0,l),
(58,700,l),
(618,700,l),
(618,530,l),
(252,530,l),
(252,411,l),
(583,411,l),
(583,250,l),
(252,250,l),
(252,0,l)
);
}
);
width = 659;
}
);
note = F;
unicode = 70;
},
{
glyphname = G;
layers = (
{
layerId = m01;
shapes = (
{
closed = 1;
nodes = (
(474,401,l),
(770,401,l),
(770,372,ls),
(770,288,o),
(725,145,o),
(635,42,o),
(503,-16,o),
(416,-16,qs),
(337,-16,o),
(202,41,o),
(104,141,o),
(49,275,o),
(49,352,qs),
(49,429,o),
(108,562,o),
(212,661,o),
(351,718,o),
(430,718,qs),
(488,718,o),
(602,688,o),
(653,653,q),
(653,540,l),
(615,578,o),
(506,626,o),
(437,626,qs),
(379,626,o),
(276,582,o),
(198,507,o),
(153,408,o),
(153,352,qs),
(153,293,o),
(194,192,o),
(266,119,o),
(365,77,o),
(422,77,qs),
(474,77,o),
(566,110,o),
(634,171,o),
(673,258,o),
(673,312,q),
(474,312,l)
);
}
);
width = 819;
},
{
layerId = "45735946-F1C1-40B8-8BE5-3E07C57E9E20";
shapes = (
{
closed = 1;
nodes = (
(489,399,l),
(780,399,l),
(780,373,l),
(780,294,o),
(737,153,o),
(648,47,o),
(512,-16,o),
(419,-16,q),
(339,-16,o),
(204,42,o),
(106,142,o),
(51,276,o),
(51,352,q),
(51,429,o),
(111,563,o),
(215,662,o),
(354,719,o),
(433,719,q),
(493,719,o),
(609,686,o),
(663,647,q),
(663,553,l),
(625,591,o),
(512,643,o),
(439,643,q),
(378,643,o),
(268,597,o),
(185,517,o),
(136,411,o),
(136,352,q),
(136,290,o),
(180,184,o),
(257,106,o),
(363,62,o),
(425,62,q),
(484,62,o),
(584,99,o),
(658,167,o),
(700,263,o),
(700,321,q),
(489,321,l)
);
}
);
width = 831;
},
{
layerId = "3A3847A9-C47D-449F-9BC4-FC5D6C4739D9";
shapes = (
{
closed = 1;
nodes = (
(400,409,l),
(722,409,l),
(722,369,l),
(722,256,o),
(664,108,o),
(572,21,o),
(456,-14,o),
(398,-14,q),
(324,-14,o),
(192,40,o),
(94,137,o),
(37,271,o),
(37,350,q),
(37,427,o),
(94,559,o),
(194,658,o),
(333,714,o),
(414,714,q),
(465,714,o),
(567,696,o),
(604,680,q),
(604,475,l),
(566,507,o),
(474,541,o),
(425,541,q),
(383,541,o),
(314,511,o),
(264,459,o),
(236,389,o),
(236,349,q),
(236,306,o),
(263,234,o),
(310,182,o),
(373,153,o),
(408,153,q),
(428,153,o),
(474,165,o),
(513,192,o),
(538,236,o),
(538,267,q),
(400,267,l)
);
}
);
width = 759;
}
);
note = G;
unicode = 71;
},
{
glyphname = H;
lastChange = "2023-04-07 16:49:53 +0000";
layers = (
{
layerId = m01;
shapes = (
{
closed = 1;
nodes = (
(179,705,l),
(179,405,l),
(539,405,l),
(539,705,l),
(641,705,l),
(641,0,l),
(539,0,l),
(539,311,l),
(179,311,l),
(179,0,l),
(76,0,l),
(76,705,l)
);
}
);
width = 717;
},
{
layerId = "45735946-F1C1-40B8-8BE5-3E07C57E9E20";
shapes = (
{
closed = 1;
nodes = (
(164,706,l),
(164,398,l),
(546,398,l),
(546,706,l),
(630,706,l),
(630,0,l),
(546,0,l),
(546,320,l),
(164,320,l),
(164,0,l),
(80,0,l),
(80,706,l)
);
}
);
width = 709;
},
{
layerId = "3A3847A9-C47D-449F-9BC4-FC5D6C4739D9";
shapes = (
{
closed = 1;
nodes = (
(252,700,l),
(252,438,l),
(501,438,l),
(501,700,l),
(695,700,l),
(695,0,l),
(501,0,l),
(501,266,l),
(252,266,l),
(252,0,l),
(58,0,l),
(58,700,l)
);
}
);
width = 754;
}
);
note = H;
unicode = 72;
},
{
glyphname = J;
layers = (
{
layerId = m01;
shapes = (
{
closed = 1;
nodes = (
(27,107,o),
(83,81,o),
(117,81,qs),
(163,81,o),
(213,141,o),
(213,215,qs),
(213,704,l),
(317,704,l),
(317,217,ls),
(317,162,o),
(290,76,o),
(239,19,o),
(164,-11,o),
(117,-11,qs),
(86,-11,o),
(26,8,o),
(0,25,q),
(0,124,l)
);
}
);
width = 386;
},
{
layerId = "45735946-F1C1-40B8-8BE5-3E07C57E9E20";
shapes = (
{
closed = 1;
nodes = (
(26,86,o),
(80,65,o),
(112,65,q),
(160,65,o),
(210,128,o),
(210,207,q),
(210,705,l),
(296,705,l),
(296,209,l),
(296,155,o),
(271,72,o),
(223,17,o),
(154,-11,o),
(110,-11,q),
(81,-11,o),
(24,6,o),
(0,22,q),
(0,102,l)
);
}
);
width = 368;
},
{
layerId = "3A3847A9-C47D-449F-9BC4-FC5D6C4739D9";
shapes = (
{
closed = 1;
nodes = (
(29,207,o),
(96,159,o),
(139,159,q),
(177,159,o),
(229,208,o),
(229,257,q),
(229,700,l),
(422,700,l),
(422,256,l),
(422,196,o),
(385,97,o),
(316,27,o),
(217,-12,o),
(154,-12,q),
(111,-12,o),
(35,17,o),
(0,41,q),
(0,235,l)
);
}
);
width = 475;
}
);
note = J;
unicode = 74;
},
{
glyphname = K;
layers = (
{
layerId = m01;
shapes = (
{
closed = 1;
nodes = (
(441,704,l),
(570,704,l),
(273,379,l),
(595,0,l),
(466,0,l),
(179,336,l),
(179,0,l),
(76,0,l),
(76,704,l),
(179,704,l),
(179,410,l)
);
}
);
width = 593;
},
{
layerId = "45735946-F1C1-40B8-8BE5-3E07C57E9E20";
shapes = (
{
closed = 1;
nodes = (
(431,705,l),
(539,705,l),
(236,375,l),
(567,0,l),
(459,0,l),
(164,330,l),
(164,0,l),
(80,0,l),
(80,705,l),
(164,705,l),
(164,409,l)
);
}
);
width = 567;
},
{
layerId = "3A3847A9-C47D-449F-9BC4-FC5D6C4739D9";
shapes = (
{
closed = 1;
nodes = (
(493,700,l),
(723,700,l),
(458,399,l),
(732,0,l),
(499,0,l),
(252,368,l),
(252,0,l),
(58,0,l),
(58,700,l),
(252,700,l),
(252,416,l)
);
}
);
width = 724;
}
);
note = K;
unicode = 75;
},
{
glyphname = L;
lastChange = "2023-04-07 16:52:51 +0000";
layers = (
{
layerId = m01;
shapes = (
{
closed = 1;
nodes = (
(524,92,l),
(524,0,l),
(76,0,l),
(76,704,l),
(180,704,l),
(180,92,l)
);
}
);
width = 540;
},
{
layerId = "45735946-F1C1-40B8-8BE5-3E07C57E9E20";
shapes = (
{
closed = 1;
nodes = (
(510,76,l),
(510,0,l),
(80,0,l),
(80,705,l),
(165,705,l),
(165,76,l)
);
}
);
width = 526;
},
{
layerId = "3A3847A9-C47D-449F-9BC4-FC5D6C4739D9";
shapes = (
{
closed = 1;
nodes = (
(591,170,l),
(591,0,l),
(58,0,l),
(58,700,l),
(252,700,l),
(252,170,l)
);
}
);
width = 607;
}
);
note = L;
unicode = 76;
},
{
glyphname = M;
layers = (
{
layerId = m01;
shapes = (
{
closed = 1;
nodes = (
(128,0,l),
(26,0,l),
(26,700,l),
(129,700,l),
(386,304,l),
(643,700,l),
(745,700,l),
(745,0,l),
(643,0,l),
(643,538,l),
(386,149,l),
(128,538,l)
);
}
);
width = 773;
},
{
layerId = "45735946-F1C1-40B8-8BE5-3E07C57E9E20";
shapes = (
{
closed = 1;
nodes = (
(112,0,l),
(28,0,l),
(28,700,l),
(110,700,l),
(385,279,l),
(660,700,l),
(742,700,l),
(742,0,l),
(658,0,l),
(658,565,l),
(385,153,l),
(112,565,l)
);
}
);
width = 771;
},
{
layerId = "3A3847A9-C47D-449F-9BC4-FC5D6C4739D9";
shapes = (
{
closed = 1;
nodes = (
(208,0,l),
(18,0,l),
(18,700,l),
(223,700,l),
(390,429,l),
(557,700,l),
(762,700,l),
(762,0,l),
(569,0,l),
(569,402,l),
(388,128,l),
(208,400,l)
);
}
);
width = 780;
}
);
note = M;
unicode = 77;
},
{
glyphname = N;
layers = (
{
layerId = m01;
shapes = (
{
closed = 1;
nodes = (
(575,704,l),
(675,704,l),
(675,0,l),
(577,0,l),
(177,545,l),
(177,0,l),
(76,0,l),
(76,700,l),
(177,700,l),
(575,160,l)
);
}
);
width = 751;
},
{
layerId = "45735946-F1C1-40B8-8BE5-3E07C57E9E20";
shapes = (
{
closed = 1;
nodes = (
(584,705,l),
(666,705,l),
(666,0,l),
(582,0,l),
(162,577,l),
(162,0,l),
(80,0,l),
(80,700,l),
(165,700,l),
(584,126,l)
);
}
);
width = 746;
},
{
layerId = "3A3847A9-C47D-449F-9BC4-FC5D6C4739D9";
shapes = (
{
closed = 1;
nodes = (
(527,700,l),
(719,700,l),
(719,0,l),
(549,0,l),
(250,384,l),
(250,0,l),
(58,0,l),
(58,700,l),
(239,700,l),
(527,330,l)
);
}
);
width = 778;
}
);
note = N;
unicode = 78;
},
{
glyphname = O;
layers = (
{
layerId = m01;
shapes = (
{
closed = 1;
nodes = (
(729,144,o),
(630,44,o),
(496,-14,o),
(416,-14,qs),
(336,-14,o),
(201,43,o),
(104,142,o),
(49,275,o),
(49,351,qs),
(49,427,o),
(104,561,o),
(203,660,o),
(338,718,o),
(418,718,qs),
(498,718,o),
(632,660,o),
(729,561,o),
(784,429,o),
(784,354,qs),
(784,278,o)
);
},
{
closed = 1;
nodes = (
(639,507,o),
(570,582,o),
(474,625,o),
(417,625,qs),
(359,625,o),
(262,583,o),
(193,509,o),
(154,410,o),
(154,354,qs),
(154,296,o),
(193,196,o),
(262,122,o),
(359,79,o),
(417,79,qs),
(474,79,o),
(570,122,o),
(639,195,o),
(678,294,o),
(678,350,qs),
(678,407,o)
);
}
);
width = 832;
},
{
layerId = "45735946-F1C1-40B8-8BE5-3E07C57E9E20";
shapes = (
{
closed = 1;
nodes = (
(727,144,o),
(630,44,o),
(496,-14,o),
(416.542,-14,q),
(337.085,-14,o),
(203,43,o),
(105,142,o),
(51,275,o),
(51,351.5,q),
(51,428,o),
(105.643,562,o),
(204,661,o),
(339,719,o),
(419,719,q),
(498.252,719,o),
(631,661,o),
(728,561,o),
(782,429,o),
(782,354,q),
(782,278,o)
);
},
{
closed = 1;
nodes = (
(653.555,516.514,o),
(580.229,596.272,o),
(478.21,642,o),
(417.636,642,q),
(356,642,o),
(252.849,597.46,o),
(179.473,518.986,o),
(138,414,o),
(138,354.336,q),
(138,292.542,o),
(179,186,o),
(252.572,108.205,o),
(356,63,o),
(417.573,63,q),
(478.085,63,o),
(580,108,o),
(654,186,o),
(695,290,o),
(695,349.553,q),
(695,411,o)
);
}
);
width = 833;
},
{
layerId = "3A3847A9-C47D-449F-9BC4-FC5D6C4739D9";
shapes = (
{
closed = 1;
nodes = (
(733,143,o),
(632,44,o),
(494,-14,o),
(413,-14,q),
(332,-14,o),
(194,43,o),
(94,142,o),
(37,275,o),
(37,350,q),
(37,425,o),
(94,558,o),
(195,657,o),
(333,714,o),
(414,714,q),
(495,714,o),
(633,657,o),
(734,559,o),
(791,427,o),
(791,352,q),
(791,277,o)
);
},
{
closed = 1;
nodes = (
(566,456,o),
(519,508,o),
(453,539,o),
(413,539,q),
(373,539,o),
(308,509,o),
(262,458,o),
(236,390,o),
(236,352,q),
(236,314,o),
(262,245,o),
(309,192,o),
(375,161,o),
(414,161,q),
(454,161,o),
(520,192,o),
(566,244,o),
(592,313,o),
(592,350,q),
(592,388,o)
);
}
);
width = 828;
}
);
note = O;
unicode = 79;
},
{
glyphname = P;
layers = (
{
layerId = m01;
shapes = (
{
closed = 1;
nodes = (
(316,704,ls),
(374,704,o),
(469,675,o),
(536,620,o),
(573,541,o),
(573,490,qs),
(573,436,o),
(532,353,o),
(461,296,o),
(364,266,o),
(308,266,qs),
(180,266,l),
(180,-2,l),
(76,-2,l),
(76,704,l)
);
},
{
closed = 1;
nodes = (
(306,355,ls),
(383,355,o),
(469,423,o),
(469,485,qs),
(469,550,o),
(385,614,o),
(307,614,qs),
(180,614,l),
(180,355,l)
);
}
);
width = 602;
},
{
layerId = "45735946-F1C1-40B8-8BE5-3E07C57E9E20";
shapes = (
{
closed = 1;
nodes = (
(307,705,l),
(363,705,o),
(456.09,676.712,o),
(521.744,623.061,o),
(558,546,o),
(558,496.943,q),
(558,445,o),
(517.732,363.779,o),
(448,308,o),
(354.17,279,o),
(300,279,q),
(166,279,l),
(166,-2,l),
(80,-2,l),
(80,705,l)
);
},
{
closed = 1;
nodes = (
(298,355,l),
(380.196,355,o),
(472,427.185,o),
(472,493,q),
(472,561.527,o),
(382,629,o),
(299.815,629,q),
(166,629,l),
(166,355,l)
);
}
);
width = 588;
},
{
layerId = "3A3847A9-C47D-449F-9BC4-FC5D6C4739D9";
shapes = (
{
closed = 1;
nodes = (
(358,700,l),
(423.909,700,o),
(531.864,666.857,o),
(608,604,o),
(649,513,o),
(649,454.404,q),
(649,392.362,o),
(604,297,o),
(524,233,o),
(413,200,o),
(348,200,q),
(252,200,l),
(252,0,l),
(58,0,l),
(58,700,l)
);
},
{
closed = 1;
nodes = (
(344,352,l),
(396.436,352,o),
(455,403,o),
(455,445.472,q),
(455,490,o),
(396.926,537,o),
(343,537,q),
(252,537,l),
(252,352,l)
);
}
);
width = 672;
}
);
note = P;
unicode = 80;
},
{
glyphname = Q;
layers = (
{
layerId = m01;
shapes = (
{
closed = 1;
nodes = (
(599,33,o),
(551,10,o),
(501,-5,o),
(446,-14,o),
(416,-14,qs),
(336,-14,o),
(201,43,o),
(104,142,o),
(49,275,o),
(49,350,qs),
(49,427,o),
(104,561,o),
(203,660,o),
(338,718,o),
(418,718,qs),
(498,718,o),
(632,660,o),
(729,561,o),
(784,428,o),
(784,353,qs),
(784,281,o),
(737,162,o),
(695,114,q),
(791,34,l),
(791,-91,l),
(621,46,l)
);
},
{
closed = 1;
nodes = (
(639,507,o),
(570,582,o),
(474,625,o),
(417,625,qs),
(359,625,o),
(262,582,o),
(193,509,o),
(154,410,o),
(154,353,qs),
(154,296,o),
(193,196,o),
(262,122,o),
(359,79,o),
(417,79,qs),
(474,79,o),
(570,122,o),
(639,195,o),
(678,294,o),
(678,350,qs),
(678,407,o)
);
}
);
width = 837;
},
{
layerId = "45735946-F1C1-40B8-8BE5-3E07C57E9E20";
shapes = (
{
closed = 1;
nodes = (
(594,31,o),
(548,9,o),
(499,-6,o),
(447,-14,o),
(417,-14,q),
(337,-14,o),
(203,43,o),
(105,142,o),
(51,275,o),
(51,350,q),
(51,427,o),
(106,561,o),
(204,661,o),
(339,719,o),
(419,719,q),
(498,719,o),
(631,661,o),
(728,561,o),
(782,429,o),
(782,354,q),
(782,279,o),
(731,153,o),
(686,104,q),
(780,30,l),
(780,-79,l),
(618,44,l)
);
},
{
closed = 1;
nodes = (
(654,517,o),
(580,596,o),
(478,642,o),
(418,642,q),
(356,642,o),
(253,597,o),
(179,519,o),
(138,414,o),
(138,354,q),
(138,293,o),
(179,186,o),
(253,108,o),
(356,63,o),
(418,63,q),
(478,63,o),
(580,108,o),
(654,186,o),
(695,290,o),
(695,350,q),
(695,411,o)
);
}
);
width = 828;
},
{
layerId = "3A3847A9-C47D-449F-9BC4-FC5D6C4739D9";
shapes = (
{
closed = 1;
nodes = (
(618,39,o),
(568,14,o),
(509,-4,o),
(445,-14,o),
(413,-14,q),
(332,-14,o),
(194,43,o),
(94,141,o),
(37,274,o),
(37,350,q),
(37,425,o),
(94,558,o),
(195,657,o),
(333,714,o),
(414,714,q),
(495,714,o),
(633,657,o),
(734,559,o),
(791,426,o),
(791,350,q),
(791,293,o),
(766,206,o),
(737,163,q),
(847,52,l),
(847,-148,l),
(635,55,l)
);
},
{
closed = 1;
nodes = (
(566,456,o),
(519,508,o),
(453,539,o),
(413,539,q),
(373,539,o),
(308,509,o),
(262,457,o),
(236,389,o),
(236,350,q),
(236,313,o),
(262,244,o),
(309,192,o),
(375,161,o),
(414,161,q),
(454,161,o),
(520,191,o),
(566,243,o),
(592,311,o),
(592,350,q),
(592,388,o)
);
}
);
width = 884;
}
);
note = Q;
unicode = 81;
},
{
glyphname = R;
layers = (
{
layerId = m01;
shapes = (
{
closed = 1;
nodes = (
(76,704,l),
(314,704,ls),
(371,704,o),
(464,674,o),
(530,619,o),
(566,543,o),
(566,496,qs),
(566,415,o),
(465,311,o),
(380,294,q),
(599,0,l),
(476,0,l),
(270,285,l),
(181,285,l),
(181,0,l),
(76,0,l)
);
},
{
closed = 1;
nodes = (
(327,367,o),
(390,381,o),
(436,411,o),
(462,459,o),
(462,492,qs),
(462,555,o),
(379,613,o),
(304,613,qs),
(181,613,l),
(181,367,l),
(290,367,ls)
);
}
);
width = 604;
},
{
layerId = "45735946-F1C1-40B8-8BE5-3E07C57E9E20";
shapes = (
{
closed = 1;
nodes = (
(80,705,l),
(299,705,l),
(353,705,o),
(443,676,o),
(507,622,o),
(543,548,o),
(543,503,q),
(543,422,o),
(437,319,o),
(349,304,q),
(578,0,l),
(475,0,l),
(256,299,l),
(166,299,l),
(166,0,l),
(80,0,l)
);
},
{
closed = 1;
nodes = (
(311,368,o),
(379,382,o),
(429,414,o),
(457,464,o),
(457,500,q),
(457,567,o),
(370,629,o),
(289,629,q),
(166,629,l),
(166,368,l),
(272,368,l)
);
}
);
width = 586;
},
{
layerId = "3A3847A9-C47D-449F-9BC4-FC5D6C4739D9";
shapes = (
{
closed = 1;
nodes = (
(58,700,l),
(389,700,l),
(462,700,o),
(571,666,o),
(643,603,o),
(679,515,o),
(679,461,q),
(679,380,o),
(601,272,o),
(535,244,q),
(702,0,l),
(478,0,l),
(338,212,l),
(253,212,l),
(253,0,l),
(58,0,l)
);
},
{
closed = 1;
nodes = (
(405,364,o),
(443,376,o),
(470,399,o),
(484,430,o),
(484,449,q),
(484,491,o),
(428,532,o),
(379,532,q),
(253,532,l),
(253,364,l),
(380,364,l)
);
}
);
width = 695;
}
);
note = R;
unicode = 82;
},
{
glyphname = S;
layers = (
{
layerId = m01;
shapes = (
{
closed = 1;
nodes = (
(344,87,o),
(385,109,o),
(411,147,o),
(411,175,qs),
(411,214,o),
(357,267,o),
(276,312,o),
(182,355,o),
(101,411,o),
(47,487,o),
(47,543,qs),
(47,585,o),
(84,650,o),
(147,694,o),
(229,717,o),
(273,717,qs),
(329,717,o),
(425,687,o),
(463,654,q),
(463,539,l),
(442,564,o),
(395,599,o),
(347,620,o),
(299,629,o),
(276,629,qs),
(220,629,o),
(151,585,o),
(151,544,qs),
(151,509,o),
(205,460,o),
(287,418,o),
(382,376,o),
(463,318,o),
(516,238,o),
(515,179,qs),
(514,128,o),
(471,55,o),
(402,9,o),
(313,-12,o),
(266,-12,qs),
(199,-12,o),
(80,28,o),
(29,77,q),
(29,183,l),
(58,155,o),
(120,114,o),
(181,89,o),
(242,77,o),
(271,77,qs),
(294,77,o)
);
}
);
width = 557;
},
{
layerId = "45735946-F1C1-40B8-8BE5-3E07C57E9E20";
shapes = (
{
closed = 1;
nodes = (
(335,74,o),
(378,99,o),
(406,140,o),
(406,170,q),
(406,211,o),
(353,270,o),
(273,319,o),
(179,366,o),
(99,424,o),
(46,500,o),
(46,554,q),
(46,593,o),
(82,654,o),
(142,696,o),
(221,718,o),
(263,718,q),
(312,718,o),
(399,691,o),
(434,661,q),
(434,558,l),
(414,584,o),
(371,617,o),
(327,636,o),
(284,643,o),
(264,643,q),
(207,643,o),
(132,597,o),
(132,552,q),
(132,515,o),
(185,462,o),
(265,416,o),
(359,371,o),
(439,312,o),
(492,234,o),
(492,178,q),
(492,126,o),
(450,53,o),
(381,8,o),
(295,-12,o),
(250,-12,q),
(187,-12,o),
(79,25,o),
(31,71,q),
(31,164,l),
(60,135,o),
(118,96,o),
(175,73,o),
(230,63,o),
(256,63,q),
(282,63,o)
);
}
);
width = 537;
},
{
layerId = "3A3847A9-C47D-449F-9BC4-FC5D6C4739D9";
shapes = (
{
closed = 1;
nodes = (
(387,151,o),
(414,161,o),
(433,180,o),
(433,197,q),
(433,223,o),
(376,251,o),
(292,273,o),
(192,298,o),
(108,345,o),
(51,424,o),
(51,488,q),
(51,545,o),
(96,629,o),
(171,685,o),
(269,712,o),
(322,712,q),
(413,712,o),
(553,665,o),
(610,619,q),
(610,442,l),
(583,465,o),
(517,506,o),
(445,538,o),
(371,556,o),
(337,556,q),
(289,556,o),
(247,524,o),
(247,506,q),
(247,479,o),
(307,452,o),
(395,430,o),
(497,402,o),
(581,348,o),
(633,256,o),
(627,181,q),
(621,135,o),
(576,64,o),
(502,14,o),
(405,-12,o),
(346,-12,q),
(258,-12,o),
(84,44,o),
(18,104,q),
(18,278,l),
(50,251,o),
(128,204,o),
(213,169,o),
(301,149,o),
(343,149,q),
(355,149,o)
);
}
);
width = 657;
}
);
note = S;
unicode = 83;
},
{
glyphname = T;
layers = (
{
layerId = m01;
shapes = (
{
closed = 1;
nodes = (
(219,0,l),
(219,613,l),
(9,613,l),
(9,704,l),
(531,704,l),
(531,613,l),
(321,613,l),
(321,0,l)
);
}
);
width = 540;
},
{
layerId = "45735946-F1C1-40B8-8BE5-3E07C57E9E20";
shapes = (
{
closed = 1;
nodes = (
(218,0,l),
(218,629,l),
(8,629,l),
(8,705,l),
(512,705,l),
(512,629,l),
(302,629,l),
(302,0,l)
);
}
);
width = 520;
},
{
layerId = "3A3847A9-C47D-449F-9BC4-FC5D6C4739D9";
shapes = (
{
closed = 1;
nodes = (
(221,0,l),
(221,530,l),
(11,530,l),
(11,700,l),
(625,700,l),
(625,530,l),
(415,530,l),
(415,0,l)
);
}
);
width = 637;
}
);
note = T;
unicode = 84;
},
{
glyphname = U;
layers = (
{
layerId = m01;
shapes = (
{
closed = 1;
nodes = (
(178,27,o),
(105,106,o),
(68,218,o),
(68,288,qs),
(68,705,l),
(171,705,l),
(171,292,ls),
(171,192,o),
(262,80,o),
(356,80,qs),
(444,80,o),
(540,183,o),
(540,289,qs),
(540,705,l),
(642,705,l),
(642,291,ls),
(642,219,o),
(605,105,o),
(533,26,o),
(426,-15,o),
(356,-15,qs),
(286,-15,o)
);
}
);
width = 711;
},
{
layerId = "45735946-F1C1-40B8-8BE5-3E07C57E9E20";
shapes = (
{
closed = 1;
nodes = (
(178,28,o),
(107,107,o),
(71,217,o),
(71,284,q),
(71,706,l),
(155,706,l),
(155,288,l),
(155,183,o),
(251,63,o),
(351,63,q),
(445,63,o),
(546,173,o),
(546,285,q),
(546,706,l),
(630,706,l),
(630,287,l),
(630,217,o),
(595,105,o),
(525,27,o),
(421,-15,o),
(352,-15,q),
(283,-15,o)
);
}
);
width = 702;
},
{
layerId = "3A3847A9-C47D-449F-9BC4-FC5D6C4739D9";
shapes = (
{
closed = 1;
nodes = (
(181,25,o),
(97,104,o),
(52,225,o),
(52,307,q),
(52,700,l),
(249,700,l),
(249,311,l),
(249,235,o),
(318,162,o),
(378,162,q),
(438,162,o),
(507,231,o),
(507,306,q),
(507,700,l),
(704,700,l),
(704,312,l),
(704,227,o),
(657,105,o),
(572,25,o),
(451,-13,o),
(376,-13,q),
(301,-13,o)
);
}
);
width = 758;
}
);
note = U;
unicode = 85;
},
{
glyphname = V;
layers = (
{
layerId = m01;
shapes = (
{
closed = 1;
nodes = (
(332,116,l),
(552,704,l),
(664,704,l),
(388,-1,l),
(274,-1,l),
(-5,704,l),
(110,704,l)
);
}
);
width = 661;
},
{
layerId = "45735946-F1C1-40B8-8BE5-3E07C57E9E20";
shapes = (
{
closed = 1;
nodes = (
(325,88,l),
(557,705,l),
(649,705,l),
(374,0,l),
(273,0,l),
(-4,705,l),
(90,705,l)
);
}
);
width = 646;
},
{
layerId = "3A3847A9-C47D-449F-9BC4-FC5D6C4739D9";
shapes = (
{
closed = 1;
nodes = (
(368,257,l),
(527,700,l),
(740,700,l),
(456,-5,l),
(276,-5,l),
(-8,700,l),
(209,700,l)
);
}
);
width = 733;
}
);
note = V;
unicode = 86;
},
{
glyphname = W;
layers = (
{
layerId = m01;
shapes = (
{
closed = 1;
nodes = (
(458,705,l),
(554,705,l),
(724,154,l),
(898,704,l),
(1005,704,l),
(771,-1,l),
(676,-1,l),
(503,551,l),
(336,-1,l),
(239,-1,l),
(3,704,l),
(113,704,l),
(292,154,l)
);
}
);
width = 1008;
},
{
layerId = "45735946-F1C1-40B8-8BE5-3E07C57E9E20";
shapes = (
{
closed = 1;
nodes = (
(458,706,l),
(539,706,l),
(717,126,l),
(901,705,l),
(989,705,l),
(755,0,l),
(675,0,l),
(496,582,l),
(323,0,l),
(241,0,l),
(4,705,l),
(95,705,l),
(285,126,l)
);
}
);
width = 993;
},
{
layerId = "3A3847A9-C47D-449F-9BC4-FC5D6C4739D9";
shapes = (
{
closed = 1;
nodes = (
(459,702,l),
(626,702,l),
(761,295,l),
(883,700,l),
(1084,700,l),
(850,-5,l),
(681,-5,l),
(540,398,l),
(400,-5,l),
(231,-5,l),
(-3,700,l),
(202,700,l),
(324,295,l)
);
}
);
width = 1081;
}
);
note = W;
unicode = 87;
},
{
glyphname = X;
layers = (
{
layerId = m01;
shapes = (
{
closed = 1;
nodes = (
(323,439,l),
(503,704,l),
(619,704,l),
(381,362,l),
(632,0,l),
(514,0,l),
(320,282,l),
(127,0,l),
(8,0,l),
(261,360,l),
(20,704,l),
(140,704,l)
);
}
);
width = 641;
},
{
layerId = "45735946-F1C1-40B8-8BE5-3E07C57E9E20";
shapes = (
{
closed = 1;
nodes = (
(316,426,l),
(507,705,l),
(603,705,l),
(363,363,l),
(616,0,l),
(519,0,l),
(313,296,l),
(109,0,l),
(10,0,l),
(265,361,l),
(22,705,l),
(121,705,l)
);
}
);
width = 627;
},
{
layerId = "3A3847A9-C47D-449F-9BC4-FC5D6C4739D9";
shapes = (
{
closed = 1;
nodes = (
(357,503,l),
(482,700,l),
(700,700,l),
(470,358,l),
(710,0,l),
(487,0,l),
(353,211,l),
(218,0,l),
(0,0,l),
(240,356,l),
(10,700,l),
(233,700,l)
);
}
);
width = 710;
}
);
note = X;
unicode = 88;
},
{
glyphname = Y;
layers = (
{
layerId = m01;
shapes = (
{
closed = 1;
nodes = (
(267,0,l),
(267,277,l),
(-3,704,l),
(117,704,l),
(321,373,l),
(524,704,l),
(639,704,l),
(370,278,l),
(370,0,l)
);
}
);
width = 636;
},
{
layerId = "45735946-F1C1-40B8-8BE5-3E07C57E9E20";
shapes = (
{
closed = 1;
nodes = (
(269,0,l),
(269,280,l),
(-2,705,l),
(98,705,l),
(314,358,l),
(528,705,l),
(623,705,l),
(353,281,l),
(353,0,l)
);
}
);
width = 621;
},
{
layerId = "3A3847A9-C47D-449F-9BC4-FC5D6C4739D9";
shapes = (
{
closed = 1;
nodes = (
(259,0,l),
(259,262,l),
(-7,700,l),
(214,700,l),
(358,445,l),
(503,700,l),
(720,700,l),
(454,265,l),
(454,0,l)
);
}
);
width = 713;
}
);
note = Y;
unicode = 89;
},
{
glyphname = Z;
layers = (
{
layerId = m01;
shapes = (
{
closed = 1;
nodes = (
(599,90,l),
(599,0,l),
(11,0,l),
(11,84,l),
(486,614,l),
(36,614,l),
(36,704,l),
(617,704,l),
(617,620,l),
(147,90,l)
);
}
);
width = 639;
},
{
layerId = "45735946-F1C1-40B8-8BE5-3E07C57E9E20";
shapes = (
{
closed = 1;
nodes = (
(596,75,l),
(596,0,l),
(14,0,l),
(14,72,l),
(514,630,l),
(42,630,l),
(42,705,l),
(617,705,l),
(617,632,l),
(124,75,l)
);
}
);
width = 642;
},
{
layerId = "3A3847A9-C47D-449F-9BC4-FC5D6C4739D9";
shapes = (
{
closed = 1;
nodes = (
(615,164,l),
(615,0,l),
(-4,0,l),
(-4,141,l),
(347,536,l),
(8,536,l),
(8,700,l),
(615,700,l),
(615,559,l),
(264,164,l)
);
}
);
width = 624;
}
);
note = Z;
unicode = 90;
},
{
glyphname = bracketleft;
lastChange = "2023-04-07 16:54:28 +0000";
layers = (
{
layerId = m01;
shapes = (
{
closed = 1;
nodes = (
(173,645,l),
(173,-77,l),
(338,-77,l),
(338,-153,l),
(80,-153,l),
(80,722,l),
(338,722,l),
(338,645,l)
);
}
);
width = 391;
},
{
layerId = "45735946-F1C1-40B8-8BE5-3E07C57E9E20";
shapes = (
{
closed = 1;
nodes = (
(160,660,l),
(160,-92,l),
(323,-92,l),
(323,-158,l),
(83,-158,l),
(83,726,l),
(323,726,l),
(323,660,l)
);
}
);
width = 377;
},
{
layerId = "3A3847A9-C47D-449F-9BC4-FC5D6C4739D9";
shapes = (
{
closed = 1;
nodes = (
(235,571,l),
(235,-1,l),
(411,-1,l),
(411,-130,l),
(65,-130,l),
(65,700,l),
(411,700,l),
(411,571,l)
);
}
);
width = 459;
}
);
note = bracketleft;
unicode = 91;
},
{
glyphname = backslash;
layers = (
{
layerId = m01;
shapes = (
{
closed = 1;
nodes = (
(85,784,l),
(501,-110,l),
(416,-119,l),
(2,774,l)
);
}
);
width = 502;
},
{
layerId = "45735946-F1C1-40B8-8BE5-3E07C57E9E20";
shapes = (
{
closed = 1;
nodes = (
(74,781,l),
(486,-111,l),
(413,-117,l),
(2,773,l)
);
}
);
width = 488;
},
{
layerId = "3A3847A9-C47D-449F-9BC4-FC5D6C4739D9";
shapes = (
{
closed = 1;
nodes = (
(142,798,l),
(573,-103,l),
(431,-128,l),
(-1,776,l)
);
}
);
width = 572;
}
);
note = backslash;
unicode = 92;
},
{
glyphname = bracketright;
lastChange = "2023-04-07 16:56:02 +0000";
layers = (
{
layerId = m01;
shapes = (
{
closed = 1;
nodes = (
(219,-77,l),
(219,644,l),
(53,644,l),
(53,722,l),
(313,722,l),
(313,-154,l),
(53,-154,l),
(53,-77,l)
);
}
);
width = 393;
},
{
layerId = "45735946-F1C1-40B8-8BE5-3E07C57E9E20";
shapes = (
{
closed = 1;
nodes = (
(217,-92,l),
(217,659,l),
(54,659,l),
(54,726,l),
(296,726,l),
(296,-159,l),
(54,-159,l),
(54,-92,l)
);
}
);
width = 380;
},
{
layerId = "3A3847A9-C47D-449F-9BC4-FC5D6C4739D9";
shapes = (
{
closed = 1;
nodes = (
(226,-1,l),
(226,571,l),
(50,571,l),
(50,700,l),
(396,700,l),
(396,-130,l),
(50,-130,l),
(50,-1,l)
);
}
);
width = 460;
}
);
note = bracketright;
unicode = 93;
},
{
glyphname = asciicircum;
layers = (
{
layerId = m01;
shapes = (
{
closed = 1;
nodes = (
(285,705,l),
(460,431,l),
(374,431,l),
(244,633,l),
(114,431,l),
(31,431,l),
(204,705,l)
);
}
);
width = 491;
},
{
layerId = "45735946-F1C1-40B8-8BE5-3E07C57E9E20";
shapes = (
{
closed = 1;
nodes = (
(283,706,l),
(464,418,l),
(388,418,l),
(247,642,l),
(106,418,l),
(33,418,l),
(211,706,l)
);
}
);
width = 497;
},
{
layerId = "3A3847A9-C47D-449F-9BC4-FC5D6C4739D9";
shapes = (
{
closed = 1;
nodes = (
(294,699,l),
(438,493,l),
(305,493,l),
(229,590,l),
(153,493,l),
(22,493,l),
(166,699,l)
);
}
);
width = 459;
}
);
note = asciicircum;
unicode = 94;
},
{
glyphname = underscore;
layers = (
{
layerId = m01;
shapes = (
{
closed = 1;
nodes = (
(568,-76,l),
(568,-149,l),
(0,-149,l),
(0,-76,l)
);
}
);
width = 568;
},
{
layerId = "45735946-F1C1-40B8-8BE5-3E07C57E9E20";
shapes = (
{
closed = 1;
nodes = (
(561,-82,l),
(561,-147,l),
(0,-147,l),
(0,-82,l)
);
}
);
width = 561;
},
{
layerId = "3A3847A9-C47D-449F-9BC4-FC5D6C4739D9";
shapes = (
{
closed = 1;
nodes = (
(604,-44,l),
(604,-160,l),
(0,-160,l),
(0,-44,l)
);
}
);
width = 604;
}
);
note = underscore;
unicode = 95;
},
{
glyphname = grave;
layers = (
{
layerId = m01;
shapes = (
{
closed = 1;
nodes = (
(125,771,l),
(222,616,l),
(147,616,l),
(17,745,l)
);
}
);
width = 242;
},
{
layerId = "45735946-F1C1-40B8-8BE5-3E07C57E9E20";
shapes = (
{
closed = 1;
nodes = (
(118,765,l),
(213,616,l),
(150,616,l),
(24,745,l)
);
}
);
width = 237;
},
{
layerId = "3A3847A9-C47D-449F-9BC4-FC5D6C4739D9";
shapes = (
{
closed = 1;
nodes = (
(161,801,l),
(265,616,l),
(131,616,l),
(-16,744,l)
);
}
);
width = 269;
}
);
note = grave;
unicode = 96;
},
{
glyphname = a;
layers = (
{
layerId = m01;
shapes = (
{
closed = 1;
nodes = (
(371,240,o),
(309,261,o),
(265,261,qs),
(241,261,o),
(194,250,o),
(157,226,o),
(133,189,o),
(133,163,qs),
(133,138,o),
(154,101,o),
(188,77,o),
(234,65,o),
(259,65,qs),
(304,65,o),
(370,97,o),
(394,125,q),
(394,227,l)
);
},
{
closed = 1;
nodes = (
(359,20,o),
(283,-11,o),
(232,-11,qs),
(196,-11,o),
(125,13,o),
(69,58,o),
(34,126,o),
(34,169,qs),
(34,215,o),
(71,278,o),
(130,316,o),
(206,332,o),
(245,332,qs),
(287,332,o),
(363,317,o),
(394,300,q),
(394,318,ls),
(394,373,o),
(316,419,o),
(252,419,qs),
(205,419,o),
(114,398,o),
(69,372,q),
(69,460,l),
(105,475,o),
(204,502,o),
(263,502,qs),
(311,502,o),
(395,478,o),
(457,429,o),
(493,357,o),
(493,309,qs),
(493,-2,l),
(392,50,l)
);
}
);
width = 559;
},
{
layerId = "45735946-F1C1-40B8-8BE5-3E07C57E9E20";
shapes = (
{
closed = 1;
nodes = (
(373,242,o),
(306,266,o),
(258,266,q),
(234,266,o),
(183,255,o),
(143,230,o),
(117,190,o),
(117,161,q),
(117,134,o),
(139,95,o),
(177,70,o),
(226,57,o),
(253,57,q),
(302,57,o),
(373,92,o),
(398,122,q),
(398,228,l)
);
},
{
closed = 1;
nodes = (
(362,19,o),
(286,-11,o),
(235,-11,q),
(199,-11,o),
(128,13,o),
(71,59,o),
(35,127,o),
(35,171,q),
(35,218,o),
(73,280,o),
(133,318,o),
(209,333,o),
(246,333,q),
(289,333,o),
(366,318,o),
(398,299,q),
(398,318,l),
(398,375,o),
(317,422,o),
(254,422,q),
(206,422,o),
(112,399,o),
(67,372,q),
(67,450,l),
(101,465,o),
(200,492,o),
(257,492,q),
(301,492,o),
(381,469,o),
(443,423,o),
(480,354,o),
(480,308,q),
(480,0,l),
(396,49,l)
);
}
);
width = 548;
},
{
layerId = "3A3847A9-C47D-449F-9BC4-FC5D6C4739D9";
shapes = (
{
closed = 1;
nodes = (
(360,227,o),
(322,235,o),
(302,235,q),
(281,235,o),
(248,225,o),
(226,207,o),
(214,184,o),
(214,170,q),
(214,156,o),
(226,133,o),
(245,116,o),
(271,107,o),
(286,107,q),
(309,107,o),
(353,122,o),
(373,139,q),
(373,221,l)
);
},
{
closed = 1;
nodes = (
(344,25,o),
(268,-12,o),
(214,-12,q),
(175,-12,o),
(107,10,o),
(57,54,o),
(29,117,o),
(29,157,q),
(29,199,o),
(60,263,o),
(116,305,o),
(194,327,o),
(241,327,q),
(280,327,o),
(350,314,o),
(373,306,q),
(373,315,l),
(373,362,o),
(307,404,o),
(240,404,q),
(200,404,o),
(121,390,o),
(76,373,q),
(76,507,l),
(124,526,o),
(224,549,o),
(290,549,q),
(361,549,o),
(462,518,o),
(527,458,o),
(558,369,o),
(558,311,q),
(558,-12,l),
(372,56,l)
);
}
);
width = 611;
}
);
note = a;
unicode = 97;
},
{
glyphname = b;
layers = (
{
layerId = m01;
shapes = (
{
closed = 1;
nodes = (
(200,36,o),
(172,70,q),
(65,-1,l),
(65,732,l),
(165,732,l),
(165,407,l),
(197,450,o),
(287,504,o),
(347,504,qs),
(396,504,o),
(482,467,o),
(547,400,o),
(584,305,o),
(584,246,qs),
(584,188,o),
(546,94,o),
(482,27,o),
(395,-10,o),
(345,-10,qs),
(286,-10,o)
);
},
{
closed = 1;
nodes = (
(461,344,o),
(419,391,o),
(359,417,o),
(323,417,qs),
(290,417,o),
(231,392,o),
(188,346,o),
(162,284,o),
(162,246,qs),
(162,209,o),
(188,146,o),
(231,100,o),
(290,74,o),
(323,74,qs),
(358,74,o),
(417,99,o),
(461,145,o),
(485,208,o),
(485,245,qs),
(485,281,o)
);
}
);
width = 618;
},
{
layerId = "45735946-F1C1-40B8-8BE5-3E07C57E9E20";
shapes = (
{
closed = 1;
nodes = (
(186,36,o),
(158,71,q),
(67,1,l),
(67,732,l),
(149,732,l),
(149,394,l),
(181,439,o),
(275,494,o),
(335,494,q),
(384,494,o),
(470,458,o),
(535,391,o),
(572,298,o),
(572,241,q),
(572,185,o),
(534,92,o),
(470,26,o),
(383,-10,o),
(333,-10,q),
(274,-10,o)
);
},
{
closed = 1;
nodes = (
(465,345,o),
(420,394,o),
(357,422,o),
(318,422,q),
(283,422,o),
(220,395,o),
(173,347,o),
(146,280,o),
(146,241,q),
(146,202,o),
(173,136,o),
(220,87,o),
(283,59,o),
(318,59,q),
(355,59,o),
(418,86,o),
(464,134,o),
(490,200,o),
(490,240,q),
(490,278,o)
);
}
);
width = 606;
},
{
layerId = "3A3847A9-C47D-449F-9BC4-FC5D6C4739D9";
shapes = (
{
closed = 1;
nodes = (
(268,35,o),
(242,66,q),
(52,-12,l),
(52,730,l),
(242,730,l),
(242,469,l),
(270,503,o),
(345,553,o),
(406,553,q),
(454,553,o),
(541,514,o),
(607,441,o),
(646,337,o),
(646,271,q),
(646,205,o),
(607,100,o),
(542,27,o),
(455,-12,o),
(407,-12,q),
(345,-12,o)
);
},
{
closed = 1;
nodes = (
(442,343,o),
(412,376,o),
(371,394,o),
(348,394,q),
(325,394,o),
(285,376,o),
(256,343,o),
(239,297,o),
(239,270,q),
(239,243,o),
(256,198,o),
(285,165,o),
(325,147,o),
(348,147,q),
(371,147,o),
(412,165,o),
(442,198,o),
(459,244,o),
(459,272,q),
(459,299,o)
);
}
);
width = 675;
}
);
note = b;
unicode = 98;
},
{
glyphname = c;
layers = (
{
layerId = m01;
shapes = (
{
closed = 1;
nodes = (
(395,387,o),
(330,418,o),
(292,418,qs),
(258,418,o),
(200,393,o),
(158,348,o),
(134,286,o),
(134,250,qs),
(134,214,o),
(159,151,o),
(202,103,o),
(261,75,o),
(295,75,qs),
(334,75,o),
(401,107,o),
(427,135,q),
(427,30,l),
(398,13,o),
(327,-10,o),
(284,-10,qs),
(231,-10,o),
(139,29,o),
(72,98,o),
(34,191,o),
(34,245,qs),
(34,298,o),
(71,391,o),
(138,461,o),
(233,502,o),
(290,502,qs),
(325,502,o),
(396,485,o),
(422,466,q),
(422,358,l)
);
}
);
width = 471;
},
{
layerId = "45735946-F1C1-40B8-8BE5-3E07C57E9E20";
shapes = (
{
closed = 1;
nodes = (
(392,389,o),
(323,423,o),
(282.954,423,q),
(247.123,423,o),
(186,396,o),
(142.727,348.897,o),
(118,284,o),
(118,246.5,q),
(118,209,o),
(143.984,141.468,o),
(188.677,90.014,o),
(250,60,o),
(286.329,60,q),
(328,60,o),
(398,96,o),
(425,125,q),
(425,35,l),
(396,17,o),
(321.886,-9,o),
(277,-9,q),
(225,-9,o),
(137,29,o),
(71.914,96.296,o),
(35,187,o),
(35,240.19,q),
(35,292.395,o),
(71,384,o),
(136,452,o),
(228.5,492,o),
(284,492,q),
(319.991,492,o),
(393,472,o),
(420,452,q),
(420,359,l)
);
}
);
width = 470;
},
{
layerId = "3A3847A9-C47D-449F-9BC4-FC5D6C4739D9";
shapes = (
{
closed = 1;
nodes = (
(410,372,o),
(364,392,o),
(335,392,q),
(308,392,o),
(264,373,o),
(233,340,o),
(215,296,o),
(215,270,q),
(215,244,o),
(234,199,o),
(267,166,o),
(312,147,o),
(338,147,q),
(361,147,o),
(412,163,o),
(437,183,q),
(437,6,l),
(412,-3,o),
(348,-13,o),
(318,-13,q),
(257,-13,o),
(152,32,o),
(74,109,o),
(30,212,o),
(30,270,q),
(30,327,o),
(73,429,o),
(149,507,o),
(256,552,o),
(320,552,q),
(348,552,o),
(409,545,o),
(432,537,q),
(432,355,l)
);
}
);
width = 473;
}
);
note = c;
unicode = 99;
},
{
glyphname = d;
layers = (
{
layerId = m01;
shapes = (
{
closed = 1;
nodes = (
(412,38,o),
(332,-10,o),
(273,-10,qs),
(224,-10,o),
(137,26,o),
(72,92,o),
(34,187,o),
(34,246,qs),
(34,305,o),
(72,400,o),
(137,468,o),
(223,504,o),
(271,504,qs),
(332,504,o),
(422,453,o),
(452,411,q),
(452,732,l),
(552,732,l),
(552,-1,l),
(444,76,l)
);
},
{
closed = 1;
nodes = (
(158,146,o),
(200,100,o),
(258,75,o),
(291,75,qs),
(324,75,o),
(384,101,o),
(429,146,o),
(455,210,o),
(455,247,qs),
(455,284,o),
(428,347,o),
(383,393,o),
(324,419,o),
(291,419,qs),
(259,419,o),
(202,394,o),
(159,349,o),
(134,286,o),
(134,247,qs),
(134,209,o)
);
}
);
width = 618;
},
{
layerId = "45735946-F1C1-40B8-8BE5-3E07C57E9E20";
shapes = (
{
closed = 1;
nodes = (
(413,37,o),
(333,-10,o),
(274,-10,q),
(225,-10,o),
(138,25,o),
(73,91,o),
(35,184,o),
(35,241,q),
(35,298,o),
(73,392,o),
(137,458,o),
(223,494,o),
(271,494,q),
(332,494,o),
(425,443,o),
(456,398,q),
(456,732,l),
(538,732,l),
(538,1,l),
(446,77,l)
);
},
{
closed = 1;
nodes = (
(143,135,o),
(188,87,o),
(248,60,o),
(284,60,q),
(320,60,o),
(383,87,o),
(431,136,o),
(459,203,o),
(459,242.124,q),
(459,281.249,o),
(430.145,347.866,o),
(382.053,396.507,o),
(319,424,o),
(283.836,424,q),
(249.738,424,o),
(189,398,o),
(144.103,350.083,o),
(118,283,o),
(118,241.771,q),
(118,201.6,o)
);
}
);
width = 606;
},
{
layerId = "3A3847A9-C47D-449F-9BC4-FC5D6C4739D9";
shapes = (
{
closed = 1;
nodes = (
(405,38,o),
(329,-12,o),
(269,-12,q),
(221,-12,o),
(134,27,o),
(68,100,o),
(29,204,o),
(29,270,q),
(29,336,o),
(68,441,o),
(133,514,o),
(220,553,o),
(268,553,q),
(329,553,o),
(406,506,o),
(433,475,q),
(433,730,l),
(623,730,l),
(623,-12,l),
(433,72,l)
);
},
{
closed = 1;
nodes = (
(234,198,o),
(264,165,o),
(304,147,o),
(326,147,q),
(349,147,o),
(389,165,o),
(419,198,o),
(436,244,o),
(436,272,q),
(436,299,o),
(419,343,o),
(389,376,o),
(349,394,o),
(326,394,q),
(304,394,o),
(264,376,o),
(234,343,o),
(216,298,o),
(216,270,q),
(216,243,o)
);
}
);
width = 675;
}
);
note = d;
unicode = 100;
},
{
glyphname = e;
layers = (
{
layerId = m01;
shapes = (
{
closed = 1;
nodes = (
(372,81,o),
(415,101,o),
(452,127,o),
(467,142,q),
(467,44,l),
(450,31,o),
(410,11,o),
(365,-4,o),
(316,-12,o),
(290,-12,qs),
(235,-12,o),
(141,26,o),
(73,94,o),
(34,188,o),
(34,244,qs),
(34,299,o),
(69,394,o),
(132,464,o),
(220,504,o),
(274,504,qs),
(328,504,o),
(412,465,o),
(472,399,o),
(508,311,o),
(513,262,q),
(141,171,l),
(158,126,o),
(234,69,o),
(294,69,qs),
(322,69,o)
);
},
{
closed = 1;
nodes = (
(412,317,l),
(400,362,o),
(328,422,o),
(274,422,qs),
(239,422,o),
(185,393,o),
(149,345,o),
(131,284,o),
(131,252,q),
(134,245,l)
);
}
);
width = 546;
},
{
layerId = "45735946-F1C1-40B8-8BE5-3E07C57E9E20";
shapes = (
{
closed = 1;
nodes = (
(365.421,71.375,o),
(407,92,o),
(441,118,o),
(455,132,q),
(455,43.712,l),
(440,32,o),
(403,12,o),
(360,-3,o),
(312,-11,o),
(285,-11,q),
(231.477,-11,o),
(140,26,o),
(73.271,92.321,o),
(35,184,o),
(35,238.986,q),
(35,292.989,o),
(68.214,386.268,o),
(128,455,o),
(214,495,o),
(266.031,495,q),
(318.062,495,o),
(399,458,o),
(457.75,395.857,o),
(493,313,o),
(499,266,q),
(124,175,l),
(141,124,o),
(224.265,59,o),
(290,59,q),
(318,59,o)
);
},
{
closed = 1;
nodes = (
(416,316,l),
(403,362,o),
(326.429,425,o),
(269,425,q),
(231.64,425,o),
(174,395,o),
(134.667,344.798,o),
(115,281,o),
(115,249,q),
(119,240,l)
);
}
);
width = 533;
},
{
layerId = "3A3847A9-C47D-449F-9BC4-FC5D6C4739D9";
shapes = (
{
closed = 1;
nodes = (
(398,130,o),
(455,147,o),
(508,173,o),
(527,190,q),
(527,42,l),
(501,25,o),
(444,2,o),
(387,-11,o),
(334,-17,o),
(312,-17,q),
(249,-17,o),
(146,26,o),
(71,102,o),
(30,207,o),
(30,269,q),
(30,329,o),
(72,431,o),
(147,506,o),
(251,548,o),
(312,548,q),
(378,548,o),
(478,497,o),
(546,412,o),
(580,300,o),
(580,240,q),
(225,148,l),
(243,133,o),
(288,121,o),
(315,121,q),
(340,121,o)
);
},
{
closed = 1;
nodes = (
(394,319,l),
(385,361,o),
(336,407,o),
(301,407,q),
(275,407,o),
(240,382,o),
(219,344,o),
(210,297,o),
(210,275,q),
(210,272,l)
);
}
);
width = 609;
}
);
note = e;
unicode = 101;
},
{
glyphname = f;
layers = (
{
layerId = m01;
shapes = (
{
closed = 1;
nodes = (
(325,651,o),
(297,657,o),
(283,657,qs),
(261,657,o),
(230,644,o),
(209,617,o),
(199,578,o),
(199,552,qs),
(199,491,l),
(325,491,l),
(325,409,l),
(204,409,l),
(204,0,l),
(107,0,l),
(107,409,l),
(11,409,l),
(107,493,l),
(107,556,ls),
(107,652,o),
(194,736,o),
(268,736,qs),
(290,736,o),
(325,730,o),
(339,725,q),
(339,646,l)
);
}
);
width = 335;
},
{
layerId = "45735946-F1C1-40B8-8BE5-3E07C57E9E20";
shapes = (
{
closed = 1;
nodes = (
(313,663,o),
(288,668,o),
(275,668,q),
(251,668,o),
(219,653,o),
(198,624,o),
(189,581,o),
(189,553,q),
(189,482,l),
(310,482,l),
(310,413,l),
(189,413,l),
(189,0,l),
(110,0,l),
(110,413,l),
(12,413,l),
(110,484,l),
(110,557,l),
(110,653,o),
(194,736,o),
(265,736,q),
(283,736,o),
(314,730,o),
(326,726,q),
(326,658,l)
);
}
);
width = 322;
},
{
layerId = "3A3847A9-C47D-449F-9BC4-FC5D6C4739D9";
shapes = (
{
closed = 1;
nodes = (
(384,593,o),
(341,599,o),
(324,599,q),
(311,599,o),
(283,593,o),
(261,580,o),
(246,561,o),
(246,548,q),
(246,535,l),
(400,535,l),
(400,389,l),
(279,389,l),
(279,0,l),
(90,0,l),
(90,389,l),
(7,389,l),
(90,535,l),
(90,550,l),
(90,648,o),
(194,737,o),
(285,737,q),
(322,737,o),
(378,729,o),
(401,722,q),
(401,588,l)
);
}
);
width = 399;
}
);
note = f;
unicode = 102;
},
{
glyphname = g;
layers = (
{
layerId = m01;
shapes = (
{
closed = 1;
nodes = (
(163,173,o),
(205,131,o),
(263,107,o),
(297,107,qs),
(330,107,o),
(389,130,o),
(433,172,o),
(458,229,o),
(458,263,qs),
(458,298,o),
(433,356,o),
(389,398,o),
(330,421,o),
(296,421,qs),
(262,421,o),
(205,398,o),
(163,357,o),
(140,300,o),
(140,265,qs),
(140,231,o)
);
},
{
closed = 1;
nodes = (
(458,-27,o),
(458,64,qs),
(458,118,l),
(423,75,o),
(335,24,o),
(274,24,qs),
(224,24,o),
(138,59,o),
(74,122,o),
(38,209,o),
(38,261,qs),
(38,316,o),
(76,405,o),
(140,469,o),
(226,504,o),
(274,504,qs),
(334,504,o),
(417,459,o),
(448,423,q),
(557,492,l),
(557,69,ls),
(557,5,o),
(516,-91,o),
(441,-156,o),
(338,-189,o),
(276,-189,qs),
(246,-189,o),
(190,-182,o),
(140,-168,o),
(95,-150,o),
(75,-139,q),
(75,-39,l),
(96,-55,o),
(142,-81,o),
(193,-99,o),
(247,-108,o),
(276,-108,qs),
(364,-108,o)
);
}
);
width = 623;
},
{
layerId = "45735946-F1C1-40B8-8BE5-3E07C57E9E20";
shapes = (
{
closed = 1;
nodes = (
(147.769,158.982,o),
(193,114,o),
(254,89,o),
(290.159,89,q),
(325.254,89,o),
(388,114,o),
(434,158,o),
(461,219,o),
(461,255.142,q),
(461,292.346,o),
(434,354,o),
(388,399,o),
(325,424,o),
(288.824,424,q),
(252.648,424,o),
(192,400,o),
(148,356,o),
(123,295,o),
(123,257.515,q),
(123,221.101,o)
);
},
{
closed = 1;
nodes = (
(461,-42,o),
(461,55,q),
(461,115,l),
(426,70,o),
(335,19,o),
(274,19,q),
(224,19,o),
(138,54,o),
(74.64,116.019,o),
(39,201.665,o),
(39,252.856,q),
(39,307,o),
(76,396,o),
(141,459,o),
(226,494,o),
(274,494,q),
(334,494,o),
(419,449,o),
(450,412,q),
(542,482,l),
(542,56,l),
(542,-6.009,o),
(503.121,-99.022,o),
(432,-162,o),
(333.37,-194,o),
(274,-194,q),
(244.662,-194,o),
(189.897,-187.333,o),
(141,-174,o),
(98,-157,o),
(80,-147.09,q),
(80,-57,l),
(101,-74,o),
(146,-99,o),
(194,-116,o),
(246.048,-124,o),
(274,-124,q),
(365,-124,o)
);
}
);
width = 611;
},
{
layerId = "3A3847A9-C47D-449F-9BC4-FC5D6C4739D9";
shapes = (
{
closed = 1;
nodes = (
(238,239,o),
(267,212,o),
(308,196,o),
(332,196,q),
(356,196,o),
(396,212,o),
(426,240,o),
(442,279,o),
(442,302,q),
(442,324,o),
(426,362,o),
(396,389,o),
(356,405,o),
(332,405,q),
(308,405,o),
(267,389,o),
(238,361,o),
(222,322,o),
(222,299,q),
(222,277,o)
);
},
{
closed = 1;
nodes = (
(442,43,o),
(442,109,q),
(442,130,l),
(413,96,o),
(335,48,o),
(274,48,q),
(225,48,o),
(138,83,o),
(73,149,o),
(35,243,o),
(35,301,q),
(35,360,o),
(73,453,o),
(139,518,o),
(226,553,o),
(275,553,q),
(332,553,o),
(408,509,o),
(439,477,q),
(629,541,l),
(629,131,l),
(629,57,o),
(578,-53,o),
(487,-126,o),
(362,-162,o),
(288,-162,q),
(252,-162,o),
(191,-154,o),
(134,-138,o),
(80,-115,o),
(50,-100,q),
(50,50,l),
(71,37,o),
(125,11,o),
(187,-11,o),
(253,-25,o),
(286,-25,q),
(359,-25,o)
);
}
);
width = 680;
}
);
note = g;
unicode = 103;
},
{
glyphname = h;
layers = (
{
layerId = m01;
shapes = (
{
closed = 1;
nodes = (
(429,480,o),
(474,433,o),
(499,361,o),
(499,312,qs),
(499,0,l),
(399,0,l),
(399,282,ls),
(399,345,o),
(346,407,o),
(294,407,qs),
(269,407,o),
(222,392,o),
(186,360,o),
(164,314,o),
(164,282,qs),
(164,0,l),
(64,0,l),
(64,732,l),
(158,732,l),
(158,425,l),
(184,457,o),
(269,503,o),
(325,503,qs),
(365,503,o)
);
}
);
width = 558;
},
{
layerId = "45735946-F1C1-40B8-8BE5-3E07C57E9E20";
shapes = (
{
closed = 1;
nodes = (
(412,471,o),
(457,425,o),
(481,353,o),
(481,303,q),
(481,0,l),
(399,0,l),
(399,280,l),
(399,346,o),
(345,412,o),
(288,412,q),
(261,412,o),
(211,396,o),
(172,363,o),
(149,313,o),
(149,280,q),
(149,0,l),
(67,0,l),
(67,732,l),
(141,732,l),
(141,416,l),
(167,448,o),
(254,493,o),
(309,493,q),
(349,493,o)
);
}
);
width = 542;
},
{
layerId = "3A3847A9-C47D-449F-9BC4-FC5D6C4739D9";
shapes = (
{
closed = 1;
nodes = (
(511,525,o),
(560,474,o),
(587,400,o),
(587,354,q),
(587,0,l),
(397,0,l),
(397,293,l),
(397,338,o),
(353,384,o),
(321,384,q),
(305,384,o),
(276,372,o),
(254,349,o),
(241,315,o),
(241,293,q),
(241,0,l),
(51,0,l),
(51,730,l),
(241,730,l),
(241,467,l),
(267,501,o),
(345,553,o),
(403,553,q),
(444,553,o)
);
}
);
width = 635;
}
);
note = h;
unicode = 104;
},
{
glyphname = i;
layers = (
{
layerId = m01;
shapes = (
{
closed = 1;
nodes = (
(70,0,l),
(70,492,l),
(169,492,l),
(169,0,l)
);
},
{
closed = 1;
nodes = (
(91,712,o),
(118,712,qs),
(148,712,o),
(187,676,o),
(187,645,qs),
(187,617,o),
(148,580,o),
(118,580,qs),
(91,580,o),
(51,617,o),
(51,645,qs),
(51,676,o)
);
}
);
width = 239;
},
{
layerId = "45735946-F1C1-40B8-8BE5-3E07C57E9E20";
shapes = (
{
closed = 1;
nodes = (
(74,0,l),
(74,482,l),
(155,482,l),
(155,0,l)
);
},
{
closed = 1;
nodes = (
(89,698,o),
(113,698,q),
(139,698,o),
(174,664,o),
(174,637,q),
(174,614,o),
(139,578,o),
(113,578,q),
(89,578,o),
(53,614,o),
(53,637,q),
(53,664,o)
);
}
);
width = 229;
},
{
layerId = "3A3847A9-C47D-449F-9BC4-FC5D6C4739D9";
shapes = (
{
closed = 1;
nodes = (
(51,0,l),
(51,541,l),
(241,541,l),
(241,0,l)
);
},
{
closed = 1;
nodes = (
(100,780,o),
(145,780,q),
(190,780,o),
(253,732,o),
(253,684,q),
(253,636,o),
(190,587,o),
(145,587,q),
(100,587,o),
(38,636,o),
(38,684,q),
(38,732,o)
);
}
);
width = 291;
}
);
note = i;
unicode = 105;
},
{
glyphname = j;
layers = (
{
layerId = m01;
shapes = (
{
closed = 1;
nodes = (
(59,-106,o),
(76,-109,o),
(84,-109,qs),
(114,-109,o),
(133,-72,o),
(133,-46,qs),
(133,492,l),
(232,492,l),
(232,-27,ls),
(232,-62,o),
(222,-122,o),
(194,-165,o),
(144,-189,o),
(105,-189,qs),
(88,-189,o),
(63,-185,o),
(51,-182,q),
(51,-103,l)
);
},
{
closed = 1;
nodes = (
(150,712,o),
(179,712,qs),
(206,712,o),
(247,676,o),
(247,645,qs),
(247,617,o),
(206,580,o),
(179,580,qs),
(150,580,o),
(111,617,o),
(111,645,qs),
(111,676,o)
);
}
);
width = 299;
},
{
layerId = "45735946-F1C1-40B8-8BE5-3E07C57E9E20";
shapes = (
{
closed = 1;
nodes = (
(61,-122,o),
(78,-125,o),
(86,-125,q),
(118,-125,o),
(136,-86,o),
(136,-62,q),
(136,482,l),
(217,482,l),
(217,-37,l),
(217,-69,o),
(210,-126,o),
(186,-169,o),
(141,-194,o),
(103,-194,q),
(88,-194,o),
(64,-190,o),
(53,-187,q),
(53,-119,l)
);
},
{
closed = 1;
nodes = (
(147,698,o),
(172,698,q),
(195,698,o),
(232,664,o),
(232,637,q),
(232,614,o),
(195,578,o),
(172,578,q),
(147,578,o),
(112,614,o),
(112,637,q),
(112,664,o)
);
}
);
width = 287;
},
{
layerId = "3A3847A9-C47D-449F-9BC4-FC5D6C4739D9";
shapes = (
{
closed = 1;
nodes = (
(49,-27,o),
(67,-31,o),
(76,-31,q),
(94,-31,o),
(119,-3,o),
(119,32,q),
(119,541,l),
(309,541,l),
(309,24,l),
(309,-27,o),
(283,-99,o),
(234,-143,o),
(162,-163,o),
(116,-163,q),
(93,-163,o),
(55,-159,o),
(38,-156,q),
(38,-23,l)
);
},
{
closed = 1;
nodes = (
(168,780,o),
(213,780,q),
(258,780,o),
(321,732,o),
(321,684,q),
(321,636,o),
(258,587,o),
(213,587,q),
(168,587,o),
(106,636,o),
(106,684,q),
(106,732,o)
);
}
);
width = 359;
}
);
note = j;
unicode = 106;
},
{
glyphname = k;
layers = (
{
layerId = m01;
shapes = (
{
closed = 1;
nodes = (
(342,492,l),
(466,492,l),
(252,266,l),
(474,0,l),
(355,0,l),
(164,227,l),
(164,0,l),
(64,0,l),
(64,732,l),
(164,732,l),
(164,294,l)
);
}
);
width = 474;
},
{
layerId = "45735946-F1C1-40B8-8BE5-3E07C57E9E20";
shapes = (
{
closed = 1;
nodes = (
(333,482,l),
(438,482,l),
(219,254,l),
(447,0,l),
(346,0,l),
(149,216,l),
(149,0,l),
(67,0,l),
(67,732,l),
(149,732,l),
(149,281,l)
);
}
);
width = 447;
},
{
layerId = "3A3847A9-C47D-449F-9BC4-FC5D6C4739D9";
shapes = (
{
closed = 1;
nodes = (
(388,541,l),
(603,541,l),
(415,324,l),
(608,0,l),
(399,0,l),
(241,283,l),
(241,0,l),
(51,0,l),
(51,730,l),
(241,730,l),
(241,360,l)
);
}
);
width = 608;
}
);
note = k;
unicode = 107;
},
{
glyphname = l;
layers = (
{
layerId = m01;
shapes = (
{
closed = 1;
nodes = (
(64,0,l),
(64,732,l),
(164,732,l),
(164,0,l)
);
}
);
width = 230;
},
{
layerId = "45735946-F1C1-40B8-8BE5-3E07C57E9E20";
shapes = (
{
closed = 1;
nodes = (
(67,0,l),
(67,732,l),
(148,732,l),
(148,0,l)
);
}
);
width = 217;
},
{
layerId = "3A3847A9-C47D-449F-9BC4-FC5D6C4739D9";
shapes = (
{
closed = 1;
nodes = (
(51,0,l),
(51,730,l),
(241,730,l),
(241,0,l)
);
}
);
width = 293;
}
);
note = l;
unicode = 108;
},
{
glyphname = m;
layers = (
{
layerId = m01;
shapes = (
{
closed = 1;
nodes = (
(701,282,ls),
(701,352,o),
(646,415,o),
(598,415,qs),
(570,415,o),
(526,393,o),
(497,357,o),
(482,309,o),
(482,282,qs),
(482,0,l),
(382,0,l),
(382,282,ls),
(382,311,o),
(371,359,o),
(347,395,o),
(308,415,o),
(280,415,qs),
(252,415,o),
(209,394,o),
(179,358,o),
(164,309,o),
(164,282,qs),
(164,0,l),
(64,0,l),
(64,491,l),
(162,431,l),
(189,468,o),
(270,503,o),
(315,503,qs),
(364,503,o),
(443,462,o),
(463,414,q),
(489,457,o),
(576,503,o),
(631,503,qs),
(674,503,o),
(738,474,o),
(780,423,o),
(801,353,o),
(801,313,qs),
(801,0,l),
(701,0,l)
);
}
);
width = 859;
},
{
layerId = "45735946-F1C1-40B8-8BE5-3E07C57E9E20";
shapes = (
{
closed = 1;
nodes = (
(694,279,l),
(694,353.737,o),
(637,421,o),
(585.78,421,q),
(555.902,421,o),
(508.951,397.511,o),
(478.006,359.075,o),
(462,307.827,o),
(462,279,q),
(462,0,l),
(380,0,l),
(380,279,l),
(380,309,o),
(369,361,o),
(344,399,o),
(302,421,o),
(272.02,421,q),
(242.04,421,o),
(196,398,o),
(165,359,o),
(149,308,o),
(149,279,q),
(149,0,l),
(67,0,l),
(67,481,l),
(146,424,l),
(172,460,o),
(254,493,o),
(297,493,q),
(345.669,493,o),
(424.135,452,o),
(444,404,q),
(467,447,o),
(555,493,o),
(609.321,493,q),
(651.79,493,o),
(715,464,o),
(755.667,413.317,o),
(776,343.752,o),
(776,304,q),
(776,0,l),
(694,0,l)
);
}
);
width = 836;
},
{
layerId = "3A3847A9-C47D-449F-9BC4-FC5D6C4739D9";
shapes = (
{
closed = 1;
nodes = (
(734,294,l),
(734,339,o),
(692,384,o),
(660,384,q),
(641,384,o),
(612,369,o),
(592,344,o),
(582,312,o),
(582,294,q),
(582,0,l),
(392,0,l),
(392,294,l),
(392,316,o),
(381,350,o),
(361,372,o),
(334,384,o),
(318,384,q),
(302,384,o),
(274,372,o),
(253,350,o),
(241,316,o),
(241,294,q),
(241,0,l),
(51,0,l),
(51,541,l),
(241,467,l),
(273,507,o),
(353,553,o),
(404,553,q),
(452,553,o),
(536,510,o),
(558,465,q),
(593,507,o),
(680,553,o),
(740,553,q),
(783,553,o),
(851,521,o),
(899,467,o),
(924,395,o),
(924,355,q),
(924,0,l),
(734,0,l)
);
}
);
width = 971;
}
);
note = m;
unicode = 109;
},
{
glyphname = n;
layers = (
{
layerId = m01;
shapes = (
{
closed = 1;
nodes = (
(428,478,o),
(474,430,o),
(499,359,o),
(499,312,qs),
(499,0,l),
(399,0,l),
(399,282,ls),
(399,320,o),
(380,370,o),
(348,402,o),
(308,415,o),
(288,415,qs),
(268,415,o),
(224,402,o),
(188,371,o),
(164,320,o),
(164,282,qs),
(164,0,l),
(64,0,l),
(64,492,l),
(166,428,l),
(193,461,o),
(271,503,o),
(323,503,qs),
(363,503,o)
);
}
);
width = 558;
},
{
layerId = "45735946-F1C1-40B8-8BE5-3E07C57E9E20";
shapes = (
{
closed = 1;
nodes = (
(411,469,o),
(456.352,421,o),
(481,350,o),
(481,303,q),
(481,0,l),
(399,0,l),
(399,280,l),
(399,321.023,o),
(378,375,o),
(345,407,o),
(302,421,o),
(281.048,421,q),
(260.095,421,o),
(214,408,o),
(175,376,o),
(149,320.989,o),
(149,280,q),
(149,0,l),
(67,0,l),
(67,482,l),
(151,421,l),
(177.828,452.68,o),
(255.331,493,o),
(307,493,q),
(346.619,493,o)
);
}
);
width = 542;
},
{
layerId = "3A3847A9-C47D-449F-9BC4-FC5D6C4739D9";
shapes = (
{
closed = 1;
nodes = (
(510,525,o),
(559,474,o),
(587,400,o),
(587,354,q),
(587,0,l),
(397,0,l),
(397,293,l),
(397,315,o),
(385,349,o),
(365,372,o),
(337,384,o),
(321,384,q),
(305,384,o),
(276,372,o),
(254,349,o),
(241,315,o),
(241,293,q),
(241,0,l),
(51,0,l),
(51,541,l),
(241,465,l),
(267,499,o),
(345,553,o),
(403,553,q),
(442,553,o)
);
}
);
width = 635;
}
);
note = n;
unicode = 110;
},
{
glyphname = o;
layers = (
{
layerId = m01;
shapes = (
{
closed = 1;
nodes = (
(524,100,o),
(453,30,o),
(355,-11,o),
(297,-11,qs),
(240,-11,o),
(144,29,o),
(73,98,o),
(34,191,o),
(34,245,qs),
(34,299,o),
(73,393,o),
(144,464,o),
(241,504,o),
(298,504,qs),
(355,504,o),
(453,464,o),
(524,394,o),
(564,301,o),
(564,247,qs),
(564,194,o)
);
},
{
closed = 1;
nodes = (
(439,345,o),
(395,392,o),
(334,420,o),
(297,420,qs),
(260,420,o),
(200,393,o),
(157,346,o),
(134,283,o),
(134,247,qs),
(134,210,o),
(159,147,o),
(203,101,o),
(263,74,o),
(298,74,qs),
(334,74,o),
(395,102,o),
(439,149,o),
(464,211,o),
(464,246,qs),
(464,282,o)
);
}
);
width = 598;
},
{
layerId = "45735946-F1C1-40B8-8BE5-3E07C57E9E20";
shapes = (
{
closed = 1;
nodes = (
(512.081,97.708,o),
(443,29,o),
(347,-10,o),
(291.017,-10,q),
(236,-10,o),
(142,28,o),
(72.936,95.722,o),
(35,187,o),
(35,240.198,q),
(35,293.396,o),
(73,386,o),
(141.887,455.081,o),
(236,494,o),
(292,494,q),
(348,494,o),
(443.101,455.091,o),
(512,387,o),
(551,295,o),
(551,241.996,q),
(551,189.974,o)
);
},
{
closed = 1;
nodes = (
(442,346,o),
(395.067,395.507,o),
(330,425,o),
(290.791,425,q),
(251.582,425,o),
(188,396,o),
(143,347,o),
(118,280,o),
(118,241.882,q),
(118,202.706,o),
(145,136,o),
(191,87,o),
(255,59,o),
(292.121,59,q),
(330.303,59,o),
(395,88,o),
(441.551,138.018,o),
(468,204,o),
(468,241.09,q),
(468,279.239,o)
);
}
);
width = 586;
},
{
layerId = "3A3847A9-C47D-449F-9BC4-FC5D6C4739D9";
shapes = (
{
closed = 1;
nodes = (
(583,111,o),
(503.242,32.802,o),
(393.154,-13,o),
(328,-13,q),
(263.176,-13,o),
(154,32,o),
(73.964,108.667,o),
(30,212,o),
(30,270,q),
(30,328,o),
(75,431,o),
(155,508,o),
(265.332,553,o),
(330.166,553,q),
(395,553,o),
(504,509,o),
(584,432,o),
(628,330,o),
(628,272,q),
(628,213.952,o)
);
},
{
closed = 1;
nodes = (
(425.721,339.414,o),
(395.309,372.368,o),
(353.147,392,o),
(327.574,392,q),
(302,392,o),
(260,373,o),
(230.682,340.1,o),
(215,296,o),
(215,271.836,q),
(215,247,o),
(232,202,o),
(262.885,167.973,o),
(305,148,o),
(330.141,148,q),
(356,148,o),
(398,168,o),
(427,201,o),
(443,246,o),
(443,270,q),
(443,295.241,o)
);
}
);
width = 657;
}
);
note = o;
unicode = 111;
},
{
glyphname = p;
lastChange = "2023-04-07 16:58:52 +0000";
layers = (
{
layerId = m01;
shapes = (
{
closed = 1;
nodes = (
(65,-183,l),
(65,492,l),
(174,417,l),
(206,455,o),
(287,504,o),
(347,504,qs),
(395,504,o),
(482,468,o),
(547,400,o),
(585,306,o),
(585,247,qs),
(585,189,o),
(546,94,o),
(480,26,o),
(394,-10,o),
(347,-10,qs),
(287,-10,o),
(197,38,o),
(165,81,q),
(165,-183,l)
);
},
{
closed = 1;
nodes = (
(462,347,o),
(418,392,o),
(359,417,o),
(324,417,qs),
(291,417,o),
(232,392,o),
(188,346,o),
(162,284,o),
(162,246,qs),
(162,209,o),
(189,146,o),
(234,100,o),
(293,74,o),
(326,74,qs),
(359,74,o),
(418,99,o),
(461,144,o),
(486,208,o),
(486,247,qs),
(486,285,o)
);
}
);
width = 618;
},
{
layerId = "45735946-F1C1-40B8-8BE5-3E07C57E9E20";
shapes = (
{
closed = 1;
nodes = (
(68,-188,l),
(68,482,l),
(160,406,l),
(194,445,o),
(275,494,o),
(335,494,q),
(383,494,o),
(470,458,o),
(535,392,o),
(573,299,o),
(573,242,q),
(573,185.312,o),
(534,92.462,o),
(468,26,o),
(382,-10,o),
(335,-10,q),
(275,-10,o),
(183,39,o),
(150,84,q),
(150,-188,l)
);
},
{
closed = 1;
nodes = (
(465,348,o),
(419,396,o),
(356,422,o),
(318.795,422,q),
(283.717,422,o),
(221,395,o),
(174,347,o),
(146,280,o),
(146,241,q),
(146,202.15,o),
(175,136,o),
(223.285,86.806,o),
(286.591,59,o),
(322,59,q),
(356.793,59,o),
(419,85,o),
(465,133,o),
(491,200,o),
(491,241.525,q),
(491,281.986,o)
);
}
);
width = 607;
},
{
layerId = "3A3847A9-C47D-449F-9BC4-FC5D6C4739D9";
shapes = (
{
closed = 1;
nodes = (
(52,-160,l),
(52,541,l),
(242,469,l),
(270,503,o),
(345,553,o),
(406,553,q),
(454,553,o),
(541,514,o),
(607,441,o),
(646,336.556,o),
(646,271,q),
(646,205,o),
(607,100,o),
(542,27,o),
(455,-12,o),
(406.682,-12,q),
(345,-12,o),
(268,35,o),
(242,66,q),
(242,-160,l)
);
},
{
closed = 1;
nodes = (
(442,343,o),
(411.67,375.786,o),
(371,394,o),
(348,394,q),
(325,394,o),
(285.476,376.042,o),
(256,343,o),
(239,297,o),
(239,269.739,q),
(239,243.196,o),
(256.25,198,o),
(285,165,o),
(325,147,o),
(347.912,147,q),
(370.824,147,o),
(411.788,165.097,o),
(441.642,197.672,o),
(459,244,o),
(459,271.777,q),
(459,298.842,o)
);
}
);
width = 675;
}
);
note = p;
unicode = 112;
},
{
glyphname = q;
layers = (
{
layerId = m01;
shapes = (
{
closed = 1;
nodes = (
(452,85,l),
(420,42,o),
(332,-11,o),
(273,-11,qs),
(224,-11,o),
(136,27,o),
(72,94,o),
(34,189,o),
(34,246,qs),
(34,305,o),
(72,400,o),
(137,468,o),
(224,504,o),
(273,504,qs),
(333,504,o),
(412,457,o),
(444,421,q),
(552,492,l),
(552,-183,l),
(452,-183,l)
);
},
{
closed = 1;
nodes = (
(159,147,o),
(202,100,o),
(260,74,o),
(294,74,qs),
(327,74,o),
(386,100,o),
(431,147,o),
(457,210,o),
(457,247,qs),
(457,284,o),
(431,347,o),
(386,393,o),
(327,419,o),
(294,419,qs),
(260,419,o),
(201,394,o),
(158,349,o),
(134,286,o),
(134,248,qs),
(134,211,o)
);
}
);
width = 618;
},
{
layerId = "45735946-F1C1-40B8-8BE5-3E07C57E9E20";
shapes = (
{
closed = 1;
nodes = (
(456,87,l),
(422,42,o),
(333.102,-11,o),
(273.5,-11,q),
(224,-11,o),
(137,26,o),
(72,93,o),
(35,186,o),
(35,241.034,q),
(35,298,o),
(73,392,o),
(137,458,o),
(225,494,o),
(274,494,q),
(334,494,o),
(413,447,o),
(446,410,q),
(538,482,l),
(538,-188,l),
(456,-188,l)
);
},
{
closed = 1;
nodes = (
(144,136,o),
(189,87,o),
(250.712,59,o),
(286.888,59,q),
(322,59,o),
(385.085,86.529,o),
(433.2,136.294,o),
(461,203,o),
(461,242.161,q),
(461,281.321,o),
(433,348,o),
(386,397,o),
(323,424,o),
(287.537,424,q),
(251,424,o),
(189.108,397.571,o),
(144,350,o),
(118,284,o),
(118,243,q),
(118,203.802,o)
);
}
);
width = 606;
},
{
layerId = "3A3847A9-C47D-449F-9BC4-FC5D6C4739D9";
shapes = (
{
closed = 1;
nodes = (
(433,72,l),
(405,38,o),
(329,-12,o),
(269,-12,q),
(221,-12,o),
(134,27,o),
(68,101,o),
(29,205,o),
(29,270,q),
(29,336,o),
(68,441,o),
(133,514,o),
(220,553,o),
(268,553,q),
(329,553,o),
(406,506,o),
(433,475,q),
(623,541,l),
(623,-160,l),
(433,-160,l)
);
},
{
closed = 1;
nodes = (
(234,199,o),
(264,166,o),
(304,147,o),
(326,147,q),
(349,147,o),
(389,166,o),
(419,199,o),
(436,245,o),
(436,272,q),
(436,299,o),
(419,343,o),
(389,376,o),
(349,394,o),
(326,394,q),
(304,394,o),
(264,376,o),
(234,344,o),
(216,299,o),
(216,272,q),
(216,245,o)
);
}
);
width = 675;
}
);
note = q;
unicode = 113;
},
{
glyphname = r;
layers = (
{
layerId = m01;
shapes = (
{
closed = 1;
nodes = (
(345,405,o),
(325,408,o),
(314,408,qs),
(288,408,o),
(234,391,o),
(191,354,o),
(164,295,o),
(164,254,qs),
(164,0,l),
(64,0,l),
(64,492,l),
(166,429,l),
(193,464,o),
(273,501,o),
(316,501,qs),
(327,501,o),
(345,499,o),
(353,497,q),
(353,400,l)
);
}
);
width = 355;
},
{
layerId = "45735946-F1C1-40B8-8BE5-3E07C57E9E20";
shapes = (
{
closed = 1;
nodes = (
(331,415,o),
(310,419,o),
(297,419,q),
(273,419,o),
(221,403,o),
(177,367,o),
(149,311,o),
(149,271,q),
(149,0,l),
(67,0,l),
(67,482,l),
(151,428,l),
(179,459,o),
(260,491,o),
(299,491,q),
(311,491,o),
(331,488,o),
(341,486,q),
(341,410,l)
);
}
);
width = 343;
},
{
layerId = "3A3847A9-C47D-449F-9BC4-FC5D6C4739D9";
shapes = (
{
closed = 1;
nodes = (
(410,350,o),
(401,350,o),
(396,350,q),
(359,350,o),
(301,328,o),
(262,283,o),
(241,215,o),
(241,168,q),
(241,0,l),
(51,0,l),
(51,541,l),
(241,432,l),
(264,486,o),
(339,550,o),
(403,550,q),
(405,550,o),
(410,550,o),
(412,550,q),
(412,350,l)
);
}
);
width = 417;
}
);
note = r;
unicode = 114;
},
{
glyphname = s;
layers = (
{
layerId = m01;
shapes = (
{
closed = 1;
nodes = (
(275,100,o),
(275,135,qs),
(275,162,o),
(239,197,o),
(184,224,o),
(121,250,o),
(66,286,o),
(30,337,o),
(30,376,qs),
(30,405,o),
(52,452,o),
(94,485,o),
(154,503,o),
(191,503,qs),
(229,503,o),
(301,484,o),
(332,463,q),
(332,363,l),
(316,375,o),
(283,398,o),
(247,414,o),
(211,424,o),
(192,424,qs),
(159,424,o),
(124,395,o),
(124,376,qs),
(124,355,o),
(160,326,o),
(215,299,o),
(278,272,o),
(333,233,o),
(369,178,o),
(369,138,qs),
(369,107,o),
(345,53,o),
(299,13,o),
(235,-10,o),
(194,-10,qs),
(137,-10,o),
(55,24,o),
(21,45,q),
(21,144,l),
(38,129,o),
(78,102,o),
(121,81,o),
(167,69,o),
(190,69,qs),
(224,69,o)
);
}
);
width = 400;
},
{
layerId = "45735946-F1C1-40B8-8BE5-3E07C57E9E20";
shapes = (
{
closed = 1;
nodes = (
(270,93,o),
(270,131,q),
(270,160,o),
(235,199,o),
(182,229,o),
(120,255,o),
(67,290,o),
(32,339,o),
(32,376,q),
(32,403,o),
(52,446,o),
(91,476,o),
(147,493,o),
(182,493,q),
(216,493,o),
(286,475,o),
(314,453,q),
(314,363,l),
(299,376,o),
(269,398,o),
(237,415,o),
(203,425,o),
(184,425,q),
(148,425,o),
(111,393,o),
(111,373,q),
(111,351,o),
(146,320,o),
(199,293,o),
(261,264,o),
(314,225,o),
(349,172,o),
(349,133,q),
(349,104,o),
(326,52,o),
(283,13,o),
(222,-10,o),
(183,-10,q),
(126,-10,o),
(48,26,o),
(19,46,q),
(19,134,l),
(35,119,o),
(72,92,o),
(113,71,o),
(157,58,o),
(181,58,q),
(217,58,o)
);
}
);
width = 380;
},
{
layerId = "3A3847A9-C47D-449F-9BC4-FC5D6C4739D9";
shapes = (
{
closed = 1;
nodes = (
(297,136,o),
(297,152,q),
(297,167,o),
(256,185,o),
(194,202,o),
(121,224,o),
(59,263,o),
(18,325,o),
(18,373,q),
(18,416,o),
(51,482,o),
(109,528,o),
(189,552,o),
(236,552,q),
(295,552,o),
(377,531,o),
(423,513,q),
(423,360,l),
(402,372,o),
(351,393,o),
(299,409,o),
(251,419,o),
(234,419,q),
(212,419,o),
(190,404,o),
(190,391,q),
(190,374,o),
(231,352,o),
(293,333,o),
(366,310,o),
(428,271,o),
(469,211,o),
(469,164,q),
(469,122,o),
(437,57,o),
(379,12,o),
(298,-12,o),
(248,-12,q),
(191,-12,o),
(90,15,o),
(33,38,q),
(33,193,l),
(56,178,o),
(110,151,o),
(164,132,o),
(215,121,o),
(236,121,q),
(259,121,o)
);
}
);
width = 500;
}
);
note = s;
unicode = 115;
},
{
glyphname = t;
layers = (
{
layerId = m01;
shapes = (
{
closed = 1;
nodes = (
(14,408,l),
(212,659,l),
(212,492,l),
(339,492,l),
(339,408,l),
(212,408,l),
(212,128,ls),
(212,106,o),
(232,74,o),
(257,74,qs),
(267,74,o),
(289,79,o),
(301,85,q),
(301,3,l),
(287,-5,o),
(257,-11,o),
(239,-11,qs),
(205,-11,o),
(153,16,o),
(137,41,qs),
(125,58,o),
(113,101,o),
(113,128,qs),
(113,408,l)
);
}
);
width = 353;
},
{
layerId = "45735946-F1C1-40B8-8BE5-3E07C57E9E20";
shapes = (
{
closed = 1;
nodes = (
(15,412,l),
(193,649,l),
(193,482,l),
(321,482,l),
(321,412,l),
(193,412,l),
(193,112,l),
(193,92,o),
(213,59,o),
(237,59,q),
(245,59,o),
(265,63,o),
(276,68,q),
(276,-1,l),
(265,-6,o),
(241,-11,o),
(227,-11,q),
(195,-11,o),
(145,17,o),
(131,43,q),
(122,59,o),
(113,97,o),
(113,120,q),
(113,412,l)
);
}
);
width = 335;
},
{
layerId = "3A3847A9-C47D-449F-9BC4-FC5D6C4739D9";
shapes = (
{
closed = 1;
nodes = (
(10,388,l),
(304,708,l),
(304,541,l),
(430,541,l),
(430,388,l),
(304,388,l),
(304,205,l),
(304,176,o),
(330,151,o),
(356,151,q),
(375,151,o),
(409,161,o),
(428,169,q),
(428,20,l),
(402,6,o),
(336,-11,o),
(296,-11,q),
(254,-11,o),
(189,10,o),
(164,30,q),
(139,50,o),
(114,119,o),
(114,168,q),
(114,388,l)
);
}
);
width = 441;
}
);
note = t;
unicode = 116;
},
{
glyphname = u;
layers = (
{
layerId = m01;
shapes = (
{
closed = 1;
nodes = (
(59,86,o),
(59,181,qs),
(59,493,l),
(159,493,l),
(159,211,ls),
(159,174,o),
(178,123,o),
(210,91,o),
(249,78,o),
(270,78,qs),
(291,78,o),
(334,91,o),
(370,122,o),
(393,173,o),
(393,211,qs),
(393,493,l),
(493,493,l),
(493,-2,l),
(392,62,l),
(365,30,o),
(289,-10,o),
(235,-10,qs),
(153,-10,o)
);
}
);
width = 551;
},
{
layerId = "45735946-F1C1-40B8-8BE5-3E07C57E9E20";
shapes = (
{
closed = 1;
nodes = (
(61,84,o),
(61,180,q),
(61,483,l),
(143,483,l),
(143,203,l),
(143,163,o),
(164,108,o),
(197,76,o),
(240,62,o),
(261,62,q),
(282,62,o),
(329,75,o),
(368,107,o),
(393,162,o),
(393,203,q),
(393,483,l),
(475,483,l),
(475,0,l),
(391,62,l),
(364,30,o),
(289,-10,o),
(235,-10,q),
(154,-10,o)
);
}
);
width = 535;
},
{
layerId = "3A3847A9-C47D-449F-9BC4-FC5D6C4739D9";
shapes = (
{
closed = 1;
nodes = (
(48,93,o),
(48,187,q),
(48,541,l),
(238,541,l),
(238,248,l),
(238,226,o),
(249,192,o),
(269,169,o),
(298,157,o),
(315,157,q),
(332,157,o),
(361,169,o),
(382,192,o),
(394,226,o),
(394,248,q),
(394,541,l),
(584,541,l),
(584,-12,l),
(394,62,l),
(371,31,o),
(290,-12,o),
(232,-12,q),
(144,-12,o)
);
}
);
width = 631;
}
);
note = u;
unicode = 117;
},
{
glyphname = v;
layers = (
{
layerId = m01;
shapes = (
{
closed = 1;
nodes = (
(200,-1,l),
(-4,491,l),
(104,491,l),
(250,113,l),
(396,491,l),
(501,491,l),
(296,-1,l)
);
}
);
width = 497;
},
{
layerId = "45735946-F1C1-40B8-8BE5-3E07C57E9E20";
shapes = (
{
closed = 1;
nodes = (
(198,0,l),
(-4,481,l),
(86,481,l),
(240,91,l),
(395,481,l),
(481,481,l),
(279,0,l)
);
}
);
width = 477;
},
{
layerId = "3A3847A9-C47D-449F-9BC4-FC5D6C4739D9";
shapes = (
{
closed = 1;
nodes = (
(210,-4,l),
(-6,541,l),
(194,541,l),
(298,225,l),
(402,541,l),
(599,541,l),
(383,-4,l)
);
}
);
width = 595;
}
);
note = v;
unicode = 118;
},
{
glyphname = w;
layers = (
{
layerId = m01;
shapes = (
{
closed = 1;
nodes = (
(215,127,l),
(327,493,l),
(423,493,l),
(534,128,l),
(646,492,l),
(749,492,l),
(584,-1,l),
(489,-1,l),
(372,375,l),
(256,-1,l),
(164,-1,l),
(-1,492,l),
(101,492,l)
);
}
);
width = 748;
},
{
layerId = "45735946-F1C1-40B8-8BE5-3E07C57E9E20";
shapes = (
{
closed = 1;
nodes = (
(209,99,l),
(327,483,l),
(410,483,l),
(527,100,l),
(647,482,l),
(733,482,l),
(569,0,l),
(488,0,l),
(365,395,l),
(244,0,l),
(166,0,l),
(1,482,l),
(86,482,l)
);
}
);
width = 734;
},
{
layerId = "3A3847A9-C47D-449F-9BC4-FC5D6C4739D9";
shapes = (
{
closed = 1;
nodes = (
(246,269,l),
(329,543,l),
(486,543,l),
(570,267,l),
(643,541,l),
(826,541,l),
(659,-4,l),
(495,-4,l),
(407,277,l),
(317,-4,l),
(154,-4,l),
(-11,541,l),
(175,541,l)
);
}
);
width = 815;
}
);
note = w;
unicode = 119;
},
{
glyphname = x;
layers = (
{
layerId = m01;
shapes = (
{
closed = 1;
nodes = (
(17,491,l),
(130,491,l),
(254,324,l),
(379,491,l),
(488,491,l),
(310,255,l),
(500,0,l),
(388,0,l),
(252,183,l),
(116,0,l),
(6,0,l),
(198,253,l)
);
}
);
width = 506;
},
{
layerId = "45735946-F1C1-40B8-8BE5-3E07C57E9E20";
shapes = (
{
closed = 1;
nodes = (
(20,481,l),
(114,481,l),
(247,307,l),
(381,481,l),
(471,481,l),
(293,251,l),
(485,0,l),
(392,0,l),
(245,192,l),
(99,0,l),
(7,0,l),
(201,249,l)
);
}
);
width = 492;
},
{
layerId = "3A3847A9-C47D-449F-9BC4-FC5D6C4739D9";
shapes = (
{
closed = 1;
nodes = (
(4,541,l),
(209,541,l),
(289,408,l),
(369,541,l),
(570,541,l),
(392,274,l),
(574,0,l),
(370,0,l),
(286,139,l),
(201,0,l),
(1,0,l),
(183,273,l)
);
}
);
width = 576;
}
);
note = x;
unicode = 120;
},
{
glyphname = y;
layers = (
{
layerId = m01;
shapes = (
{
closed = 1;
nodes = (
(103,491,l),
(259,114,l),
(400,491,l),
(504,491,l),
(237,-183,l),
(145,-183,l),
(215,-1,l),
(-4,491,l)
);
}
);
width = 500;
},
{
layerId = "45735946-F1C1-40B8-8BE5-3E07C57E9E20";
shapes = (
{
closed = 1;
nodes = (
(85,481,l),
(250,98,l),
(399,481,l),
(485,481,l),
(217,-188,l),
(139,-188,l),
(214,0,l),
(-4,481,l)
);
}
);
width = 481;
},
{
layerId = "3A3847A9-C47D-449F-9BC4-FC5D6C4739D9";
shapes = (
{
closed = 1;
nodes = (
(193,541,l),
(301,195,l),
(403,541,l),
(598,541,l),
(334,-160,l),
(173,-160,l),
(222,-6,l),
(-6,541,l)
);
}
);
width = 593;
}
);
note = y;
unicode = 121;
},
{
glyphname = z;
layers = (
{
layerId = m01;
shapes = (
{
closed = 1;
nodes = (
(480,84,l),
(480,0,l),
(13,0,l),
(13,78,l),
(362,410,l),
(32,410,l),
(32,492,l),
(485,492,l),
(485,414,l),
(136,84,l)
);
}
);
width = 509;
},
{
layerId = "45735946-F1C1-40B8-8BE5-3E07C57E9E20";
shapes = (
{
closed = 1;
nodes = (
(473,70,l),
(473,0,l),
(12,0,l),
(12,69,l),
(381,414,l),
(33,414,l),
(33,482,l),
(479,482,l),
(479,414,l),
(110,70,l)
);
}
);
width = 504;
},
{
layerId = "3A3847A9-C47D-449F-9BC4-FC5D6C4739D9";
shapes = (
{
closed = 1;
nodes = (
(517,151,l),
(517,0,l),
(15,0,l),
(15,125,l),
(265,390,l),
(24,390,l),
(24,541,l),
(517,541,l),
(517,416,l),
(266,151,l)
);
}
);
width = 536;
}
);
note = z;
unicode = 122;
},
{
glyphname = braceleft;
lastChange = "2023-04-07 17:03:24 +0000";
layers = (
{
layerId = m01;
shapes = (
{
closed = 1;
nodes = (
(74,329,o),
(117,343,o),
(143,372,o),
(154,417,o),
(154,448,qs),
(154,514,o),
(160,616,o),
(199,686,o),
(285,726,o),
(364,730,q),
(374,662,l),
(346,656,o),
(301,643,o),
(268,618,o),
(250,578,o),
(250,546,qs),
(250,504,o),
(254,428,o),
(241,363,o),
(199,309,o),
(154,289,q),
(195,270,o),
(236,219,o),
(252,157,o),
(251,85,o),
(251,45,qs),
(251,11,o),
(266,-33,o),
(296,-62,o),
(343,-79,o),
(374,-85,q),
(364,-153,l),
(301,-149,o),
(219,-127,o),
(171,-79,o),
(152,1,o),
(152,64,qs),
(152,99,o),
(153,165,o),
(135,216,o),
(88,247,o),
(41,247,q),
(41,329,l)
);
}
);
width = 415;
},
{
layerId = "45735946-F1C1-40B8-8BE5-3E07C57E9E20";
shapes = (
{
closed = 1;
nodes = (
(69,325,o),
(110,337,o),
(137,363,o),
(151,403,o),
(151,431,q),
(151,500,o),
(148,609,o),
(180,685,o),
(264,729,o),
(351,733,q),
(363,675,l),
(334,669,o),
(286,655,o),
(252,630,o),
(233,589,o),
(233,555,q),
(233,512,o),
(237,434,o),
(224,366,o),
(184,310,o),
(139,289,q),
(184,268,o),
(224,212,o),
(237,144,o),
(233,66,o),
(233,23,q),
(233,-11,o),
(252,-52,o),
(286,-77,o),
(334,-91,o),
(363,-97,q),
(351,-155,l),
(291,-152,o),
(213,-131,o),
(167,-85,o),
(149,-8,o),
(149,51,q),
(149,86,o),
(154,158,o),
(139,216,o),
(93,252,o),
(42,252,q),
(42,325,l)
);
}
);
width = 405;
},
{
layerId = "3A3847A9-C47D-449F-9BC4-FC5D6C4739D9";
shapes = (
{
closed = 1;
nodes = (
(97,350,o),
(153,374,o),
(171,421,o),
(166,489,o),
(166,533,q),
(166,587,o),
(217,653,o),
(295,691,o),
(388,709,o),
(430,715,q),
(430,598,l),
(408,594,o),
(372,581,o),
(348,559,o),
(335,525,o),
(335,500,q),
(335,461,o),
(338,396,o),
(322,342,o),
(276,301,o),
(226,287,q),
(251,280,o),
(293,258,o),
(323,225,o),
(339,182,o),
(338,153,q),
(337,120,o),
(333,62,o),
(347,16,o),
(387,-17,o),
(430,-24,q),
(430,-141,l),
(353,-131,o),
(250,-103,o),
(189,-47,o),
(166,48,o),
(169,126,q),
(171,160,o),
(150,199,o),
(112,219,o),
(62,224,o),
(35,224,q),
(35,350,l)
);
}
);
width = 464;
}
);
note = braceleft;
unicode = 123;
},
{
glyphname = bar;
layers = (
{
layerId = m01;
shapes = (
{
closed = 1;
nodes = (
(338,-161,l),
(253,-161,l),
(253,772,l),
(338,772,l)
);
}
);
width = 589;
},
{
layerId = "45735946-F1C1-40B8-8BE5-3E07C57E9E20";
shapes = (
{
closed = 1;
nodes = (
(322,-168,l),
(249,-168,l),
(249,767,l),
(322,767,l)
);
}
);
width = 570;
},
{
layerId = "3A3847A9-C47D-449F-9BC4-FC5D6C4739D9";
shapes = (
{
closed = 1;
nodes = (
(415,-128,l),
(270,-128,l),
(270,798,l),
(415,798,l)
);
}
);
width = 685;
}
);
note = bar;
unicode = 124;
},
{
glyphname = braceright;
layers = (
{
layerId = m01;
shapes = (
{
closed = 1;
nodes = (
(342,247,o),
(299,234,o),
(273,206,o),
(262,162,o),
(262,131,qs),
(262,61,o),
(256,-42,o),
(217,-111,o),
(131,-149,o),
(51,-153,q),
(41,-85,l),
(72,-79,o),
(119,-62,o),
(150,-33,o),
(165,11,o),
(165,45,qs),
(165,85,o),
(164,157,o),
(179,219,o),
(220,270,o),
(262,289,q),
(220,308,o),
(179,358,o),
(164,420,o),
(165,493,o),
(165,533,qs),
(165,566,o),
(150,611,o),
(119,639,o),
(72,656,o),
(41,662,q),
(51,730,l),
(108,727,o),
(189,707,o),
(240,662,o),
(263,587,o),
(263,528,qs),
(263,492,o),
(259,420,o),
(275,363,o),
(322,328,o),
(374,329,q),
(374,247,l)
);
}
);
width = 415;
},
{
layerId = "45735946-F1C1-40B8-8BE5-3E07C57E9E20";
shapes = (
{
closed = 1;
nodes = (
(336,252,o),
(295,240,o),
(268,215,o),
(254,175,o),
(254,147,q),
(254,75,o),
(257,-35,o),
(225,-110,o),
(141,-151,o),
(54,-155,q),
(42,-97,l),
(71,-91,o),
(119,-77,o),
(153,-52,o),
(172,-11,o),
(172,23,q),
(172,66,o),
(168,144,o),
(181,212,o),
(221,268,o),
(266,289,q),
(221,310,o),
(181,366,o),
(168,434,o),
(172,512,o),
(172,555,q),
(172,589,o),
(153,630,o),
(119,655,o),
(71,669,o),
(42,675,q),
(54,733,l),
(114,730,o),
(192,709,o),
(238,663,o),
(256,586,o),
(256,527,q),
(256,493,o),
(252,420,o),
(267,361,o),
(313,324,o),
(363,325,q),
(363,252,l)
);
}
);
width = 405;
},
{
layerId = "3A3847A9-C47D-449F-9BC4-FC5D6C4739D9";
shapes = (
{
closed = 1;
nodes = (
(371,224,o),
(315,202,o),
(296,159,o),
(299,95,o),
(299,52,q),
(299,-5,o),
(251,-75,o),
(175,-116,o),
(81,-135,o),
(35,-141,q),
(35,-24,l),
(77,-17,o),
(118,15,o),
(132,62,o),
(129,120,o),
(127,153,q),
(126,181,o),
(142,224,o),
(172,257,o),
(214,280,o),
(239,287,q),
(214,294,o),
(171,316,o),
(141,349,o),
(126,393,o),
(127,421,q),
(128,454,o),
(132,512,o),
(119,559,o),
(79,591,o),
(35,598,q),
(35,715,l),
(77,709,o),
(170,691,o),
(248,653,o),
(299,587,o),
(299,533,q),
(299,490,o),
(294,421,o),
(313,375,o),
(369,350,o),
(430,350,q),
(430,224,l)
);
}
);
width = 464;
}
);
note = braceright;
unicode = 125;
},
{
glyphname = asciitilde;
layers = (
{
layerId = m01;
shapes = (
{
closed = 1;
nodes = (
(448,294,o),
(390,234,o),
(349,234,qs),
(326,234,o),
(282,250,o),
(240,270,o),
(198,286,o),
(178,286,qs),
(153,286,o),
(121,256,o),
(107,228,q),
(51,254,l),
(72,312,o),
(129,369,o),
(174,369,qs),
(200,369,o),
(244,353,o),
(283,333,o),
(319,317,o),
(338,317,qs),
(361,317,o),
(398,347,o),
(411,374,q),
(467,349,l)
);
}
);
width = 519;
},
{
layerId = "45735946-F1C1-40B8-8BE5-3E07C57E9E20";
shapes = (
{
closed = 1;
nodes = (
(449,296,o),
(391.586,235,o),
(351,235,q),
(327.848,235,o),
(283.556,251.923,o),
(241.278,273.077,o),
(199,290,o),
(178.111,290,q),
(152,290,o),
(116,258,o),
(102,229,q),
(53,253,l),
(75,307,o),
(132,364,o),
(177,364,q),
(203,364,o),
(247,347.111,o),
(286,326,o),
(322.923,309,o),
(342.41,309,q),
(366,309,o),
(406,341,o),
(419,369,q),
(469,347,l)
);
}
);
width = 523;
},
{
layerId = "3A3847A9-C47D-449F-9BC4-FC5D6C4739D9";
shapes = (
{
closed = 1;
nodes = (
(439,283,o),
(376,227,o),
(336,227,q),
(314,227,o),
(271,239,o),
(231,254,o),
(195,266,o),
(179,266,q),
(159,266,o),
(139,243,o),
(129,220,q),
(41,260,l),
(58,335,o),
(115,394,o),
(161,394,q),
(185,394,o),
(228,382,o),
(267,367,o),
(301,355,o),
(317,355,q),
(337,355,o),
(358,378,o),
(368,401,q),
(455,357,l)
);
}
);
width = 497;
}
);
note = asciitilde;
unicode = 126;
},
{
glyphname = exclamdown;
layers = (
{
layerId = m01;
shapes = (
{
closed = 1;
nodes = (
(95,-60,l),
(118,319,l),
(181,319,l),
(204,-60,l),
(208,-179,l),
(90,-179,l)
);
},
{
closed = 1;
nodes = (
(176,405,o),
(149,405,qs),
(121,405,o),
(81,441,o),
(81,470,qs),
(81,501,o),
(121,535,o),
(149,535,qs),
(176,535,o),
(217,501,o),
(217,470,qs),
(217,441,o)
);
}
);
width = 299;
},
{
layerId = "45735946-F1C1-40B8-8BE5-3E07C57E9E20";
shapes = (
{
closed = 1;
nodes = (
(102,-53,l),
(118,324,l),
(173,324,l),
(189,-53,l),
(194,-179,l),
(96,-179,l)
);
},
{
closed = 1;
nodes = (
(168,418,o),
(145,418,q),
(120,418,o),
(85,452,o),
(85,477,q),
(85,504,o),
(120,535,o),
(145,535,q),
(168,535,o),
(205,504,o),
(205,477,q),
(205,452,o)
);
}
);
width = 291;
},
{
layerId = "3A3847A9-C47D-449F-9BC4-FC5D6C4739D9";
shapes = (
{
closed = 1;
nodes = (
(62,-94,l),
(120,293,l),
(220,293,l),
(278,-94,l),
(278,-179,l),
(62,-179,l)
);
},
{
closed = 1;
nodes = (
(216,341,o),
(171,341,q),
(126,341,o),
(63,389,o),
(63,437,q),
(63,485,o),
(126,534,o),
(171,534,q),
(216,534,o),
(278,485,o),
(278,437,q),
(278,389,o)
);
}
);
width = 341;
}
);
note = exclamdown;
unicode = 161;
},
{
glyphname = cent;
layers = (
{
layerId = m01;
shapes = (
{
closed = 1;
nodes = (
(204,535,o),
(130,448,o),
(130,372,qs),
(130,310,o),
(182,231,o),
(230,207,q),
(270,540,l)
);
},
{
closed = 1;
nodes = (
(430,497,o),
(371,531,o),
(336,535,q),
(296,197,l),
(340,197,o),
(417,239,o),
(446,270,q),
(446,172,l),
(417,145,o),
(340,115,o),
(289,114,q),
(278,29,l),
(205,29,l),
(217,125,l),
(176,136,o),
(109,183,o),
(61,247,o),
(35,325,o),
(35,368,qs),
(35,423,o),
(70,515,o),
(134,583,o),
(224,623,o),
(279,626,q),
(288,705,l),
(360,705,l),
(351,619,l),
(375,614,o),
(423,592,o),
(447,574,q),
(447,477,l)
);
}
);
width = 490;
},
{
layerId = "45735946-F1C1-40B8-8BE5-3E07C57E9E20";
shapes = (
{
closed = 1;
nodes = (
(195,545,o),
(116,456,o),
(116,375,q),
(116,309,o),
(174,226,o),
(225,201,q),
(264,550,l)
);
},
{
closed = 1;
nodes = (
(426,505,o),
(363,540,o),
(325,544,q),
(286,192,l),
(331,192,o),
(411,236,o),
(442,268,q),
(442,184,l),
(412,155,o),
(333,122,o),
(281,122,q),
(270,36,l),
(205,36,l),
(217,131,l),
(176,142,o),
(109,188,o),
(61,251,o),
(35,328,o),
(35,371,q),
(35,425,o),
(69,515,o),
(131,581,o),
(218,621,o),
(271,624,q),
(280,705,l),
(343,705,l),
(335,619,l),
(362,614,o),
(417,588,o),
(443,568,q),
(443,485,l)
);
}
);
width = 488;
},
{
layerId = "3A3847A9-C47D-449F-9BC4-FC5D6C4739D9";
shapes = (
{
closed = 1;
nodes = (
(252,484,o),
(197,410,o),
(197,355,q),
(197,315,o),
(226,255,o),
(253,238,q),
(298,491,l)
);
},
{
closed = 1;
nodes = (
(447,459,o),
(410,483,o),
(393,487,q),
(345,221,l),
(385,221,o),
(448,255,o),
(468,278,q),
(468,112,l),
(439,95,o),
(371,77,o),
(331,75,q),
(317,-6,l),
(202,-6,l),
(219,92,l),
(177,106,o),
(109,157,o),
(59,226,o),
(32,309,o),
(32,355,q),
(32,414,o),
(74,516,o),
(149,592,o),
(253,636,o),
(316,636,q),
(328,706,l),
(443,706,l),
(428,619,l),
(437,616,o),
(455,608,o),
(464,603,q),
(464,438,l)
);
}
);
width = 500;
}
);
note = cent;
unicode = 162;
},
{
glyphname = sterling;
layers = (
{
layerId = m01;
shapes = (
{
closed = 1;
nodes = (
(201,298,l),
(201,86,l),
(524,86,l),
(524,0,l),
(97,0,l),
(97,298,l),
(29,298,l),
(29,377,l),
(97,377,l),
(97,472,ls),
(97,525,o),
(128,615,o),
(186,680,o),
(273,716,o),
(328,716,qs),
(397,716,o),
(496,664,o),
(532,619,q),
(464,554,l),
(438,586,o),
(377,623,o),
(328,623,qs),
(294,623,o),
(246,599,o),
(215,557,o),
(201,502,o),
(201,471,qs),
(201,377,l),
(445,377,l),
(445,298,l)
);
}
);
width = 552;
},
{
layerId = "45735946-F1C1-40B8-8BE5-3E07C57E9E20";
shapes = (
{
closed = 1;
nodes = (
(182,291.557,l),
(182,73,l),
(512,73,l),
(512,0,l),
(96,0,l),
(96,305,l),
(30,305,l),
(30,373,l),
(96,373,l),
(96,476,l),
(96,527.888,o),
(126,616,o),
(182.55,681,o),
(267.375,717,o),
(321,717,q),
(387,717,o),
(484.533,665,o),
(520,620,q),
(464,566,l),
(436.805,600.319,o),
(373,640,o),
(319,640,q),
(282.098,640,o),
(230,613,o),
(196.933,567.595,o),
(182,508.135,o),
(182,474.622,q),
(182,373,l),
(426,373,l),
(432,305,l)
);
}
);
width = 543;
},
{
layerId = "3A3847A9-C47D-449F-9BC4-FC5D6C4739D9";
shapes = (
{
closed = 1;
nodes = (
(293,263,l),
(293,153,l),
(586,153,l),
(586,0,l),
(100,0,l),
(100,263,l),
(25,263,l),
(25,399,l),
(100,399,l),
(100,450,l),
(100,510,o),
(135,607,o),
(201,675,o),
(298,712,o),
(360,712,q),
(442,712,o),
(554,656,o),
(593,611,q),
(464,494,l),
(441,518,o),
(397,539,o),
(373,539,q),
(354,539,o),
(325,527,o),
(304,504,o),
(293,471,o),
(293,450,q),
(293,399,l),
(509,399,l),
(509,263,l)
);
}
);
width = 598;
}
);
note = sterling;
unicode = 163;
},
{
glyphname = currency;
layers = (
{
layerId = m01;
shapes = (
{
closed = 1;
nodes = (
(558,481,l),
(581,445,o),
(607,373,o),
(607,328,qs),
(607,283,o),
(580,207,o),
(556,173,q),
(651,80,l),
(596,25,l),
(500,120,l),
(465,97,o),
(391,73,o),
(349,73,qs),
(307,73,o),
(234,97,o),
(199,121,q),
(101,25,l),
(47,80,l),
(143,176,l),
(118,208,o),
(94,281,o),
(94,328,qs),
(94,374,o),
(115,443,o),
(141,479,q),
(47,572,l),
(101,627,l),
(196,533,l),
(230,559,o),
(307,583,o),
(349,583,qs),
(393,583,o),
(469,558,o),
(501,534,q),
(595,627,l),
(651,572,l)
);
},
{
closed = 1;
nodes = (
(250,475,o),
(205,427,o),
(181,364,o),
(181,328,qs),
(181,292,o),
(205,229,o),
(250,182,o),
(312,155,o),
(349,155,qs),
(387,155,o),
(448,182,o),
(493,229,o),
(517,291,o),
(517,327,qs),
(517,365,o),
(493,429,o),
(448,475,o),
(387,502,o),
(349,502,qs),
(312,502,o)
);
}
);
width = 697;
},
{
layerId = "45735946-F1C1-40B8-8BE5-3E07C57E9E20";
shapes = (
{
closed = 1;
nodes = (
(553,483,l),
(577,446,o),
(603,374,o),
(603,328.187,q),
(603,282.373,o),
(576,205,o),
(551,171,q),
(646,77,l),
(596,27,l),
(500,122,l),
(465,98,o),
(389,74,o),
(347,74,q),
(305,74,o),
(229,98,o),
(194,123,q),
(96,27,l),
(47,77,l),
(144,174,l),
(117.98,206.421,o),
(93,280.382,o),
(93,328,q),
(93,376,o),
(115,444,o),
(141,481,q),
(47,574,l),
(96,624,l),
(191,530,l),
(225,556,o),
(305,582,o),
(347.433,582,q),
(391.887,582,o),
(468.67,555.98,o),
(501,531,q),
(595,624,l),
(646,574,l)
);
},
{
closed = 1;
nodes = (
(244.345,479.224,o),
(197.816,429.845,o),
(173,365.034,o),
(173,328,q),
(173,290.751,o),
(197.816,225.566,o),
(244.345,176.936,o),
(308.451,149,o),
(346.709,149,q),
(386,149,o),
(448.726,176.73,o),
(495,225,o),
(520,290,o),
(520,326.973,q),
(520,366,o),
(495.304,432.327,o),
(449,480,o),
(386,507,o),
(346.709,507,q),
(308.451,507,o)
);
}
);
width = 693;
},
{
layerId = "3A3847A9-C47D-449F-9BC4-FC5D6C4739D9";
shapes = (
{
closed = 1;
nodes = (
(583,470,l),
(603,438,o),
(624,371,o),
(624,329,q),
(624,287,o),
(603,217,o),
(582,185,q),
(673,94,l),
(594,15,l),
(500,108,l),
(469,90,o),
(400,69,o),
(361,69,q),
(323,69,o),
(255,89,o),
(222,109,q),
(125,15,l),
(47,94,l),
(140,188,l),
(120,218,o),
(98,290,o),
(98,329,q),
(98,365,o),
(116,437,o),
(138,469,q),
(47,560,l),
(125,639,l),
(219,549,l),
(252,569,o),
(319,589,o),
(361,589,q),
(401,589,o),
(472,569,o),
(502,550,q),
(593,639,l),
(673,560,l)
);
},
{
closed = 1;
nodes = (
(279,451,o),
(243,412,o),
(223,359,o),
(223,329,q),
(223,299,o),
(243,246,o),
(279,207,o),
(330,184,o),
(361,184,q),
(392,184,o),
(443,207,o),
(479,246,o),
(499,299,o),
(499,329,q),
(499,359,o),
(479,412,o),
(443,451,o),
(392,474,o),
(361,474,q),
(330,474,o)
);
}
);
width = 719;
}
);
note = currency;
unicode = 164;
},
{
glyphname = yen;
layers = (
{
layerId = m01;
shapes = (
{
closed = 1;
nodes = (
(245,296,l),
(69,296,l),
(69,372,l),
(213,372,l),
(0,704,l),
(118,704,l),
(306,388,l),
(492,704,l),
(607,704,l),
(394,372,l),
(537,372,l),
(537,296,l),
(362,296,l),
(355,213,l),
(537,213,l),
(537,137,l),
(353,137,l),
(353,0,l),
(254,0,l),
(254,137,l),
(69,137,l),
(69,213,l),
(255,213,l)
);
}
);
width = 606;
},
{
layerId = "45735946-F1C1-40B8-8BE5-3E07C57E9E20";
shapes = (
{
closed = 1;
nodes = (
(246,303,l),
(70,303,l),
(70,370,l),
(215,370,l),
(1,705,l),
(99,705,l),
(298,372,l),
(495,705,l),
(590,705,l),
(376,370,l),
(520,370,l),
(520,303,l),
(344,303,l),
(338,213,l),
(520,213,l),
(520,146,l),
(336,146,l),
(336,0,l),
(255,0,l),
(255,146,l),
(70,146,l),
(70,213,l),
(256,213,l)
);
}
);
width = 590;
},
{
layerId = "3A3847A9-C47D-449F-9BC4-FC5D6C4739D9";
shapes = (
{
closed = 1;
nodes = (
(237,263,l),
(63,263,l),
(63,383,l),
(201,383,l),
(-7,700,l),
(213,700,l),
(345,470,l),
(477,700,l),
(693,700,l),
(484,383,l),
(623,383,l),
(623,263,l),
(449,263,l),
(439,213,l),
(623,213,l),
(623,93,l),
(439,93,l),
(439,0,l),
(247,0,l),
(247,93,l),
(63,93,l),
(63,213,l),
(247,213,l)
);
}
);
width = 687;
}
);
note = yen;
unicode = 165;
},
{
glyphname = brokenbar;
lastChange = "2023-04-07 17:05:34 +0000";
layers = (
{
layerId = m01;
shapes = (
{
closed = 1;
nodes = (
(344,327,l),
(253,327,l),
(253,679,l),
(344,679,l)
);
},
{
closed = 1;
nodes = (
(344,-174,l),
(253,-174,l),
(253,173,l),
(344,173,l)
);
}
);
width = 595;
},
{
layerId = "45735946-F1C1-40B8-8BE5-3E07C57E9E20";
shapes = (
{
closed = 1;
nodes = (
(325,328,l),
(249,328,l),
(249,681,l),
(325,681,l)
);
},
{
closed = 1;
nodes = (
(325,-174,l),
(249,-174,l),
(249,173,l),
(325,173,l)
);
}
);
width = 573;
},
{
layerId = "3A3847A9-C47D-449F-9BC4-FC5D6C4739D9";
shapes = (
{
closed = 1;
nodes = (
(437,321,l),
(270,321,l),
(270,667,l),
(437,667,l)
);
},
{
closed = 1;
nodes = (
(437,-173,l),
(270,-173,l),
(270,174,l),
(437,173,l)
);
}
);
width = 707;
}
);
note = brokenbar;
unicode = 166;
},
{
glyphname = section;
layers = (
{
layerId = m01;
shapes = (
{
closed = 1;
nodes = (
(396,609,o),
(323,642,o),
(278,642,qs),
(233,642,o),
(180,610,o),
(180,578,qs),
(180,566,o),
(193,542,o),
(226,516,o),
(281,490,o),
(322,476,qs),
(379,458,o),
(453,422,o),
(497,384,o),
(515,342,o),
(515,317,qs),
(515,266,o),
(454,206,o),
(399,191,q),
(432,166,o),
(466,110,o),
(466,77,qs),
(466,44,o),
(438,-12,o),
(388,-52,o),
(317,-74,o),
(274,-74,qs),
(222,-74,o),
(139,-44,o),
(106,-18,q),
(106,75,l),
(141,39,o),
(227,4,o),
(275,4,qs),
(320,4,o),
(369,39,o),
(369,74,qs),
(369,106,o),
(294,155,o),
(222,177,qs),
(171,192,o),
(99,226,o),
(54,265,o),
(33,310,o),
(33,336,qs),
(33,385,o),
(94,448,o),
(151,462,q),
(123,482,o),
(82,541,o),
(82,579,qs),
(82,611,o),
(110,663,o),
(161,700,o),
(231,721,o),
(273,721,qs),
(322,721,o),
(403,693,o),
(434,670,q),
(434,578,l)
);
},
{
closed = 1;
nodes = (
(377,366,o),
(308,397,o),
(236,417,o),
(214,421,q),
(172,416,o),
(121,381,o),
(121,349,qs),
(121,327,o),
(155,289,o),
(214,259,o),
(293,237,o),
(337,231,q),
(379,231,o),
(427,267,o),
(427,295,qs),
(427,322,o)
);
}
);
width = 562;
},
{
layerId = "45735946-F1C1-40B8-8BE5-3E07C57E9E20";
shapes = (
{
closed = 1;
nodes = (
(392,620,o),
(321,654,o),
(275,654,q),
(227,654,o),
(168,619,o),
(168,583,q),
(168,570,o),
(182,543,o),
(217,515,o),
(275,485,o),
(319,470,q),
(378,450,o),
(451,413,o),
(492,374,o),
(506,333,o),
(506,309,q),
(506,255,o),
(443,194,o),
(385,179,q),
(420,153,o),
(456,96,o),
(456,62,q),
(456,29,o),
(428,-26,o),
(379,-65,o),
(311,-86,o),
(271,-86,q),
(217,-86,o),
(134,-53,o),
(102,-25,q),
(102,55,l),
(136,17,o),
(223,-18,o),
(272,-18,q),
(320,-18,o),
(374,21,o),
(374,59,q),
(374,94,o),
(292,150,o),
(217,173,q),
(165,189,o),
(95,225,o),
(53,265,o),
(35,309,o),
(35,334,q),
(35,385,o),
(98,450,o),
(159,464,q),
(130,484,o),
(86,544,o),
(86,584,q),
(86,615,o),
(114,666,o),
(164,702,o),
(230,722,o),
(269,722,q),
(318,722,o),
(400,693,o),
(430,668,q),
(430,588,l)
);
},
{
closed = 1;
nodes = (
(379,364,o),
(309,399,o),
(236,420,o),
(213,424,q),
(168,419,o),
(112,380,o),
(112,345,q),
(112,322,o),
(144,282,o),
(201,249,o),
(282,225,o),
(331,218,q),
(376,218,o),
(429,257,o),
(429,287,q),
(429,317,o)
);
}
);
width = 556;
},
{
layerId = "3A3847A9-C47D-449F-9BC4-FC5D6C4739D9";
shapes = (
{
closed = 1;
nodes = (
(417,552,o),
(333,584,o),
(291,584,q),
(263,584,o),
(238,568,o),
(238,554,q),
(238,547,o),
(248,535,o),
(271,523,o),
(307,512,o),
(334,506,q),
(381,495,o),
(463,470,o),
(526,435,o),
(562,388,o),
(562,355,q),
(562,317,o),
(511,263,o),
(471,249,q),
(493,232,o),
(518,180,o),
(518,149,q),
(518,116,o),
(489,57,o),
(432,13,o),
(346,-13,o),
(288,-13,q),
(243,-13,o),
(162,4,o),
(128,18,q),
(128,175,l),
(166,148,o),
(251,116,o),
(291,116,q),
(320,116,o),
(345,132,o),
(345,146,q),
(345,160,o),
(300,183,o),
(249,194,q),
(203,203,o),
(119,229,o),
(57,266,o),
(20,314,o),
(20,345,q),
(20,382,o),
(70,437,o),
(112,451,q),
(89,468,o),
(64,521,o),
(64,552,q),
(64,585,o),
(93,644,o),
(151,688,o),
(237,713,o),
(295,713,q),
(341,713,o),
(420,697,o),
(455,681,q),
(455,525,l)
);
},
{
closed = 1;
nodes = (
(368,373,o),
(303,392,o),
(236,403,o),
(217,403,q),
(194,403,o),
(166,387,o),
(166,371,q),
(166,352,o),
(214,324,o),
(280,306,o),
(347,297,o),
(365,297,q),
(388,297,o),
(416,317,o),
(416,332,q),
(416,347,o)
);
}
);
width = 594;
}
);
note = section;
unicode = 167;
},
{
glyphname = dieresis;
layers = (
{
layerId = m01;
shapes = (
{
closed = 1;
nodes = (
(60,753,o),
(88,753,qs),
(114,753,o),
(153,717,o),
(153,690,qs),
(153,662,o),
(114,627,o),
(88,627,qs),
(60,627,o),
(24,662,o),
(24,690,qs),
(24,717,o)
);
},
{
closed = 1;
nodes = (
(258,753,o),
(284,753,qs),
(313,753,o),
(348,717,o),
(348,690,qs),
(348,662,o),
(313,627,o),
(284,627,qs),
(258,627,o),
(222,662,o),
(222,690,qs),
(222,717,o)
);
}
);
width = 372;
},
{
layerId = "45735946-F1C1-40B8-8BE5-3E07C57E9E20";
shapes = (
{
closed = 1;
nodes = (
(63,744,o),
(88.892,744,q),
(112.935,744,o),
(149,709,o),
(149,684.945,q),
(149,660,o),
(113,626,o),
(89.022,626,q),
(63.2,626,o),
(30,660,o),
(30,685.846,q),
(30,709,o)
);
},
{
closed = 1;
nodes = (
(254.835,744,o),
(278.549,744,q),
(305,744,o),
(338,709,o),
(338,684.945,q),
(338,660,o),
(305,626,o),
(278.549,626,q),
(254.835,626,o),
(222,660,o),
(222,685.846,q),
(222,709,o)
);
}
);
width = 368;
},
{
layerId = "3A3847A9-C47D-449F-9BC4-FC5D6C4739D9";
shapes = (
{
closed = 1;
nodes = (
(47,800,o),
(84,800,q),
(121,800,o),
(172,757,o),
(172,715,q),
(172,673,o),
(121,629,o),
(84,629,q),
(47,629,o),
(-4,673,o),
(-4,715,q),
(-4,757,o)
);
},
{
closed = 1;
nodes = (
(273,800,o),
(310,800,q),
(347,800,o),
(398,757,o),
(398,715,q),
(398,673,o),
(347,629,o),
(310,629,q),
(273,629,o),
(222,673,o),
(222,715,q),
(222,757,o)
);
}
);
width = 394;
}
);
note = dieresis;
unicode = 168;
},
{
glyphname = copyright;
layers = (
{
layerId = m01;
shapes = (
{
closed = 1;
nodes = (
(199,29,o),
(95,136,o),
(35,279,o),
(35,360,qs),
(35,439,o),
(96,579,o),
(201,685,o),
(341,747,o),
(420,747,qs),
(500,747,o),
(640,686,o),
(745,580,o),
(806,438,o),
(806,357,qs),
(806,276,o),
(746,134,o),
(642,29,o),
(501,-32,o),
(421,-32,qs),
(340,-32,o)
);
},
{
closed = 1;
nodes = (
(606,83,o),
(694,171,o),
(745,290,o),
(745,357,qs),
(745,425,o),
(694,543,o),
(607,631,o),
(489,682,o),
(421,682,qs),
(354,682,o),
(235,631,o),
(147,543,o),
(96,426,o),
(96,359,qs),
(96,292,o),
(147,172,o),
(235,84,o),
(353,32,o),
(421,32,qs),
(488,32,o)
);
},
{
closed = 1;
nodes = (
(523,162,o),
(461,137,o),
(421,137,qs),
(374,137,o),
(296,172,o),
(239,233,o),
(207,316,o),
(207,364,qs),
(207,411,o),
(238,493,o),
(295,553,o),
(375,587,o),
(423,587,qs),
(465,587,o),
(530,561,o),
(550,547,q),
(550,458,l),
(527,481,o),
(463,509,o),
(429,509,qs),
(401,509,o),
(353,487,o),
(318,448,o),
(298,395,o),
(298,364,qs),
(298,333,o),
(317,279,o),
(351,239,o),
(401,216,o),
(431,216,qs),
(457,216,o),
(517,237,o),
(549,266,q),
(549,183,l)
);
}
);
width = 840;
},
{
layerId = "45735946-F1C1-40B8-8BE5-3E07C57E9E20";
shapes = (
{
closed = 1;
nodes = (
(202.595,25.726,o),
(97,134,o),
(37,279.26,o),
(37,361.54,q),
(37,441.788,o),
(99,584,o),
(205.296,690.631,o),
(347.025,753,o),
(427,753,q),
(507,753,o),
(650,691,o),
(756.265,583.718,o),
(818,440,o),
(818,357.812,q),
(818,275.623,o),
(756.902,131.54,o),
(651,25,o),
(508.724,-36,o),
(428,-36,q),
(345.758,-36,o)
);
},
{
closed = 1;
nodes = (
(613,84,o),
(701.633,172,o),
(753,291,o),
(753,358,q),
(753,426,o),
(702,544,o),
(613,633,o),
(495.466,684,o),
(427.735,684,q),
(361,684,o),
(241.539,632.842,o),
(153.198,544.57,o),
(102,427.207,o),
(102,360,q),
(102,293,o),
(153.1,173,o),
(241.273,85,o),
(359.504,33,o),
(427.637,33,q),
(494.769,33,o)
);
},
{
closed = 1;
nodes = (
(532,160,o),
(466.961,133,o),
(425,133,q),
(377,133,o),
(299,168.729,o),
(242,231,o),
(211,316.798,o),
(211,366.416,q),
(211,415,o),
(241.648,498.155,o),
(298,559,o),
(378,594,o),
(427,594,q),
(471.748,594,o),
(541,565,o),
(561,549,q),
(561,468,l),
(536,493,o),
(468.444,522,o),
(432.556,522,q),
(403,522,o),
(351.738,498.263,o),
(314.359,456.184,o),
(293,399,o),
(293,365.595,q),
(293,332.19,o),
(313,274,o),
(350,230,o),
(403,205,o),
(436,205,q),
(461,205,o),
(524,226,o),
(559,258,q),
(559,184,l)
);
}
);
width = 854;
},
{
layerId = "3A3847A9-C47D-449F-9BC4-FC5D6C4739D9";
shapes = (
{
closed = 1;
nodes = (
(176,44,o),
(79,144,o),
(23,277,o),
(23,351,q),
(23,425,o),
(79,556,o),
(177,656,o),
(310,714,o),
(386,714,q),
(462,714,o),
(594,656,o),
(691,558,o),
(747,427,o),
(747,353,q),
(747,279,o),
(691,146,o),
(593,45,o),
(461,-14,o),
(384,-14,q),
(308,-14,o)
);
},
{
closed = 1;
nodes = (
(570,78,o),
(656,167,o),
(705,286,o),
(705,353,q),
(705,419,o),
(657,536,o),
(571,623,o),
(454,674,o),
(386,674,q),
(317,674,o),
(200,623,o),
(114,534,o),
(65,417,o),
(65,351,q),
(65,284,o),
(114,166,o),
(199,78,o),
(316,26,o),
(384,26,q),
(453,26,o)
);
},
{
closed = 1;
nodes = (
(479,170,o),
(430,155,o),
(399,155,q),
(356,155,o),
(280,187,o),
(223,242,o),
(189,315,o),
(189,355,q),
(189,395,o),
(222,467,o),
(281,522,o),
(360,554,o),
(405,554,q),
(430,554,o),
(475,544,o),
(494,534,q),
(494,405,l),
(478,419,o),
(436,441,o),
(410,441,q),
(391,441,o),
(358,428,o),
(334,404,o),
(320,373,o),
(320,355,q),
(320,337,o),
(334,305,o),
(358,281,o),
(390,268,o),
(407,268,q),
(436,268,o),
(481,290,o),
(497,304,q),
(497,178,l)
);
}
);
width = 769;
}
);
note = copyright;
unicode = 169;
},
{
glyphname = ordfeminine;
layers = (
{
layerId = m01;
shapes = (
{
closed = 1;
nodes = (
(72,435,o),
(42,457,o),
(24,492,o),
(24,514,qs),
(24,562,o),
(92,609,o),
(146,609,qs),
(170,609,o),
(205,601,o),
(224,596,q),
(224,603,ls),
(224,637,o),
(184,669,o),
(149,669,qs),
(126,669,o),
(85,658,o),
(65,647,q),
(49,696,l),
(72,707,o),
(126,722,o),
(156,722,qs),
(214,722,o),
(284,664,o),
(284,602,qs),
(284,429,l),
(224,429,l),
(224,469,l),
(207,448,o),
(158,423,o),
(129,423,qs),
(110,423,o)
);
},
{
closed = 1;
nodes = (
(289,353,l),
(289,301,l),
(21,301,l),
(21,353,l)
);
},
{
closed = 1;
nodes = (
(224,505,o),
(224,536,qs),
(224,555,l),
(210,561,o),
(176,569,o),
(155,569,qs),
(121,569,o),
(84,542,o),
(84,517,qs),
(84,493,o),
(118,469,o),
(144,469,qs),
(176,469,o)
);
}
);
width = 326;
},
{
layerId = "45735946-F1C1-40B8-8BE5-3E07C57E9E20";
shapes = (
{
closed = 1;
nodes = (
(72.655,437,o),
(43,459,o),
(24,493,o),
(24,515.188,q),
(24,563.598,o),
(92,611,o),
(146.478,611,q),
(170.69,611,o),
(206,603,o),
(226,597,q),
(226,605,l),
(226,641.061,o),
(184,675,o),
(148.293,675,q),
(124.828,675,o),
(83,663,o),
(63.556,652,q),
(48,696,l),
(70,707,o),
(124,722,o),
(153,722,q),
(207,722,o),
(277,665.45,o),
(277,605,q),
(277,431,l),
(226,431,l),
(226,473,l),
(208.642,451.087,o),
(158.611,425,o),
(129,425,q),
(110.218,425,o)
);
},
{
closed = 1;
nodes = (
(282,356,l),
(282,304,l),
(14,304,l),
(20,351,l)
);
},
{
closed = 1;
nodes = (
(226,504.612,o),
(226,537,q),
(226,558.28,l),
(211,565,o),
(174,573,o),
(151.402,573,q),
(114.815,573,o),
(75,544,o),
(75,517.63,q),
(75,492.315,o),
(113,467,o),
(140,467,q),
(175,467,o)
);
}
);
width = 320;
},
{
layerId = "3A3847A9-C47D-449F-9BC4-FC5D6C4739D9";
shapes = (
{
closed = 1;
nodes = (
(68,425,o),
(41,449,o),
(26,484,o),
(26,506,q),
(26,554,o),
(89,599,o),
(143,599,q),
(164,599,o),
(201,593,o),
(214,588,q),
(214,592,l),
(214,615,o),
(185,641,o),
(154,641,q),
(133,641,o),
(92,632,o),
(72,624,q),
(51,698,l),
(77,709,o),
(135,721,o),
(171,721,q),
(249,721,o),
(317,655,o),
(317,589,q),
(317,419,l),
(213,419,l),
(213,451,l),
(198,434,o),
(155,413,o),
(126,413,q),
(105,413,o)
);
},
{
closed = 1;
nodes = (
(322,363,l),
(322,286,l),
(23,286,l),
(23,363,l)
);
},
{
closed = 1;
nodes = (
(215,505,o),
(215,528,q),
(215,541,l),
(207,544,o),
(186,549,o),
(174,549,q),
(152,549,o),
(127,529,o),
(127,513,q),
(127,498,o),
(147,479,o),
(163,479,q),
(182,479,o)
);
}
);
width = 354;
}
);
note = ordfeminine;
unicode = 170;
},
{
glyphname = guillemotleft;
layers = (
{
layerId = m01;
shapes = (
{
closed = 1;
nodes = (
(200,42,l),
(45,253,l),
(200,468,l),
(281,437,l),
(151,256,l),
(280,76,l)
);
},
{
closed = 1;
nodes = (
(420,42,l),
(265,253,l),
(420,468,l),
(501,437,l),
(371,256,l),
(500,76,l)
);
}
);
width = 555;
},
{
layerId = "45735946-F1C1-40B8-8BE5-3E07C57E9E20";
shapes = (
{
closed = 1;
nodes = (
(199,43,l),
(47,250,l),
(199,461,l),
(268,437,l),
(138,253,l),
(266,72,l)
);
},
{
closed = 1;
nodes = (
(408,43,l),
(256,250,l),
(408,461,l),
(477,437,l),
(347,253,l),
(475,72,l)
);
}
);
width = 534;
},
{
layerId = "3A3847A9-C47D-449F-9BC4-FC5D6C4739D9";
shapes = (
{
closed = 1;
nodes = (
(205,37,l),
(32,268,l),
(206,500,l),
(347,439,l),
(217,268,l),
(347,98,l)
);
},
{
closed = 1;
nodes = (
(480,37,l),
(307,268,l),
(481,500,l),
(622,439,l),
(492,268,l),
(622,98,l)
);
}
);
width = 657;
}
);
note = guillemotleft;
unicode = 171;
},
{
glyphname = logicalnot;
lastChange = "2023-04-07 17:08:45 +0000";
layers = (
{
layerId = m01;
shapes = (
{
closed = 1;
nodes = (
(479,128,l),
(479,330,l),
(47,330,l),
(47,412,l),
(561,412,l),
(561,128,l)
);
}
);
width = 607;
},
{
layerId = "45735946-F1C1-40B8-8BE5-3E07C57E9E20";
shapes = (
{
closed = 1;
nodes = (
(483,129,l),
(483,340,l),
(40,340,l),
(40,411,l),
(552,411,l),
(552,129,l)
);
}
);
width = 591;
},
{
layerId = "3A3847A9-C47D-449F-9BC4-FC5D6C4739D9";
shapes = (
{
closed = 1;
nodes = (
(460,125,l),
(460,277,l),
(79,277,l),
(79,416,l),
(607,416,l),
(607,125,l)
);
}
);
width = 686;
}
);
note = logicalnot;
unicode = 172;
},
{
glyphname = registered;
layers = (
{
layerId = m01;
shapes = (
{
closed = 1;
nodes = (
(78,561,o),
(176,657,o),
(309,713,o),
(385,713,qs),
(459,713,o),
(588,657,o),
(686,560,o),
(742,430,o),
(742,357,qs),
(742,284,o),
(684,153,o),
(586,55,o),
(456,-2,o),
(383,-2,qs),
(308,-2,o),
(176,55,o),
(78,152,o),
(21,283,o),
(21,357,qs),
(21,431,o)
);
},
{
closed = 1;
nodes = (
(127,185,o),
(208,103,o),
(319,55,o),
(383,55,qs),
(446,55,o),
(555,104,o),
(636,186,o),
(682,297,o),
(682,358,qs),
(682,420,o),
(635,528,o),
(554,609,o),
(446,656,o),
(385,656,qs),
(321,656,o),
(210,609,o),
(128,528,o),
(81,419,o),
(81,356,qs),
(81,294,o)
);
},
{
closed = 1;
nodes = (
(395,568,ls),
(423,568,o),
(471,551,o),
(507,520,o),
(527,476,o),
(527,449,qs),
(527,425,o),
(511,385,o),
(482,354,o),
(445,333,o),
(424,328,q),
(565,148,l),
(475,148,l),
(344,318,l),
(325,318,l),
(325,148,l),
(248,148,l),
(248,568,l)
);
},
{
closed = 1;
nodes = (
(413,386,o),
(455,417,o),
(455,443,qs),
(455,466,o),
(420,502,o),
(383,502,qs),
(325,502,l),
(325,386,l),
(382,386,ls)
);
}
);
width = 762;
},
{
layerId = "45735946-F1C1-40B8-8BE5-3E07C57E9E20";
shapes = (
{
closed = 1;
nodes = (
(78.368,561.159,o),
(177,657,o),
(310,712,o),
(385.597,712,q),
(459.204,712,o),
(587.52,656,o),
(685,559,o),
(742,430,o),
(742,357.195,q),
(742,284.389,o),
(684,153.739,o),
(586,56,o),
(455,-1,o),
(383,-1,q),
(308,-1,o),
(176,56,o),
(78,152.839,o),
(21,283.621,o),
(21,357.498,q),
(21,431.375,o)
);
},
{
closed = 1;
nodes = (
(131,188,o),
(210.734,107.262,o),
(320,60,o),
(382.915,60,q),
(444.847,60,o),
(552,108,o),
(632.362,188.725,o),
(678,298,o),
(678,357.512,q),
(678,418,o),
(631,525,o),
(551.286,604.734,o),
(445,651,o),
(385.034,651,q),
(322.119,651,o),
(213,605,o),
(131.636,525.705,o),
(85,419,o),
(85,356.808,q),
(85,295.603,o)
);
},
{
closed = 1;
nodes = (
(394,570,l),
(420.25,570,o),
(465.25,553.708,o),
(499,524,o),
(519,480.62,o),
(519,454,q),
(519,429.586,o),
(502.22,388.897,o),
(471.805,357.362,o),
(433,336,o),
(412,332,q),
(563,143,l),
(479,143,l),
(337,324,l),
(324,324,l),
(324,143,l),
(253,143,l),
(253,570,l)
);
},
{
closed = 1;
nodes = (
(410,389,o),
(455,420,o),
(455,448,q),
(455,471,o),
(418,509,o),
(380,509,q),
(324,509,l),
(324,389,l),
(378,389,l)
);
}
);
width = 762;
},
{
layerId = "3A3847A9-C47D-449F-9BC4-FC5D6C4739D9";
shapes = (
{
closed = 1;
nodes = (
(75,561,o),
(173,661,o),
(306,719,o),
(382,719,q),
(458,719,o),
(590,661,o),
(687,562,o),
(743,430,o),
(743,355,q),
(743,281,o),
(687,149,o),
(589,49,o),
(457,-9,o),
(380,-9,q),
(304,-9,o),
(172,49,o),
(75,148,o),
(19,280,o),
(19,355,q),
(19,429,o)
);
},
{
closed = 1;
nodes = (
(110,169,o),
(195,82,o),
(312,31,o),
(380,31,q),
(449,31,o),
(566,83,o),
(652,171,o),
(701,290,o),
(701,357,q),
(701,423,o),
(653,541,o),
(567,628,o),
(450,679,o),
(382,679,q),
(313,679,o),
(196,627,o),
(110,539,o),
(61,420,o),
(61,353,q),
(61,287,o)
);
},
{
closed = 1;
nodes = (
(401,558,l),
(442,558,o),
(503,538,o),
(544,503,o),
(564,454,o),
(564,425,q),
(564,404,o),
(553,368,o),
(532,338,o),
(503,315,o),
(485,307,q),
(577,173,l),
(454,173,l),
(376,290,l),
(329,290,l),
(329,173,l),
(222,173,l),
(222,558,l)
);
},
{
closed = 1;
nodes = (
(426,373,o),
(457,400,o),
(457,420,q),
(457,440,o),
(425,466,o),
(398,466,q),
(329,466,l),
(329,373,l),
(399,373,l)
);
}
);
width = 762;
}
);
note = registered;
unicode = 174;
},
{
glyphname = degree;
layers = (
{
layerId = m01;
shapes = (
{
closed = 1;
nodes = (
(319,489,o),
(277,449,o),
(222,425,o),
(190,425,qs),
(159,425,o),
(103,449,o),
(61,489,o),
(36,544,o),
(36,575,qs),
(36,606,o),
(61,661,o),
(103,703,o),
(159,727,o),
(190,727,qs),
(222,727,o),
(278,704,o),
(319,663,o),
(343,608,o),
(343,576,qs),
(343,545,o)
);
},
{
closed = 1;
nodes = (
(228,667,o),
(190,667,qs),
(171,667,o),
(138,652,o),
(114,627,o),
(100,594,o),
(100,576,qs),
(100,538,o),
(151,485,o),
(190,485,qs),
(228,485,o),
(280,535,o),
(280,576,qs),
(280,614,o)
);
}
);
width = 379;
},
{
layerId = "45735946-F1C1-40B8-8BE5-3E07C57E9E20";
shapes = (
{
closed = 1;
nodes = (
(309.595,492.902,o),
(268.636,454.213,o),
(215,431,o),
(185,431,q),
(155.208,431,o),
(101.39,454.193,o),
(61.026,492.849,o),
(37,546,o),
(37,576.025,q),
(37,606.05,o),
(61.254,659.321,o),
(102,700,o),
(155,723,o),
(184.958,723,q),
(215.882,723,o),
(270,700,o),
(309.738,660.708,o),
(333,608,o),
(333,577.049,q),
(333,547.066,o)
);
},
{
closed = 1;
nodes = (
(223,669,o),
(185,669,q),
(166,669,o),
(133,654,o),
(108,628,o),
(94,595,o),
(94,577,q),
(94,539,o),
(145.567,485,o),
(185,485,q),
(223.422,485,o),
(276,535,o),
(276,576.621,q),
(276,615.197,o)
);
}
);
width = 370;
},
{
layerId = "3A3847A9-C47D-449F-9BC4-FC5D6C4739D9";
shapes = (
{
closed = 1;
nodes = (
(366,470,o),
(316,421,o),
(250,393,o),
(213,393,q),
(176,393,o),
(110,421,o),
(60,470,o),
(31,535,o),
(31,571,q),
(31,607,o),
(61,672,o),
(111,720,o),
(177,748,o),
(213,748,q),
(249,748,o),
(315,720,o),
(365,672,o),
(395,607,o),
(395,571,q),
(395,535,o)
);
},
{
closed = 1;
nodes = (
(248,656,o),
(213,656,q),
(195,656,o),
(165,643,o),
(142,620,o),
(129,589,o),
(129,571,q),
(129,536,o),
(177,485,o),
(213,485,q),
(249,485,o),
(297,536,o),
(297,571,q),
(297,606,o)
);
}
);
width = 425;
}
);
note = degree;
unicode = 176;
},
{
glyphname = plusminus;
lastChange = "2023-04-07 17:11:45 +0000";
layers = (
{
layerId = m01;
shapes = (
{
closed = 1;
nodes = (
(260,416,l),
(260,577,l),
(339,577,l),
(339,416,l),
(546,416,l),
(546,336,l),
(339,336,l),
(339,180,l),
(260,180,l),
(260,336,l),
(53,336,l),
(53,416,l)
);
},
{
closed = 1;
nodes = (
(546,108,l),
(546,28,l),
(53,28,l),
(53,108,l)
);
}
);
width = 599;
},
{
layerId = "45735946-F1C1-40B8-8BE5-3E07C57E9E20";
shapes = (
{
closed = 1;
nodes = (
(261,409,l),
(261,573,l),
(330,573,l),
(330,409,l),
(544,409,l),
(544,339,l),
(330,339,l),
(330,181,l),
(261,181,l),
(261,339,l),
(47,339,l),
(47,409,l)
);
},
{
closed = 1;
nodes = (
(544,104,l),
(544,34,l),
(47,34,l),
(47,104,l)
);
}
);
width = 591;
},
{
layerId = "3A3847A9-C47D-449F-9BC4-FC5D6C4739D9";
shapes = (
{
closed = 1;
nodes = (
(253,452,l),
(253,596,l),
(386,596,l),
(386,452,l),
(555,452,l),
(555,323,l),
(386,323,l),
(386,173,l),
(253,173,l),
(253,323,l),
(81,323,l),
(81,452,l)
);
},
{
closed = 1;
nodes = (
(555,129,l),
(555,0,l),
(81,0,l),
(81,129,l)
);
}
);
width = 636;
}
);
note = plusminus;
unicode = 177;
},
{
glyphname = twosuperior;
layers = (
{
layerId = m01;
shapes = (
{
closed = 1;
nodes = (
(163,461,o),
(202,510,o),
(226,548,o),
(238,578,o),
(238,593,qs),
(238,620,o),
(203,656,o),
(176,656,qs),
(167,656,o),
(150,651,o),
(132,639,o),
(116,622,o),
(108,610,q),
(53,650,l),
(82,688,o),
(138,720,o),
(179,720,qs),
(210,720,o),
(260,701,o),
(296,668,o),
(316,622,o),
(316,594,qs),
(316,572,o),
(304,534,o),
(278,492,o),
(237,443,o),
(208,410,qs),
(155,348,l),
(318,349,l),
(293,285,l),
(14,285,l),
(136,429,ls)
);
}
);
width = 349;
},
{
layerId = "45735946-F1C1-40B8-8BE5-3E07C57E9E20";
shapes = (
{
closed = 1;
nodes = (
(160,466,o),
(199,518,o),
(223,556,o),
(232,585,o),
(232,598,q),
(232,626,o),
(195,663,o),
(167,663,q),
(160,663,o),
(142,659,o),
(123,649,o),
(104,633,o),
(95,621,q),
(55,669,l),
(89,698,o),
(139,720,o),
(170,720,q),
(200,720,o),
(249,702,o),
(282,669,o),
(300,625,o),
(300,598,q),
(300,577,o),
(289,541,o),
(264,499,o),
(223,447,o),
(193,411,q),
(137,342,l),
(302,342,l),
(271,285,l),
(13,285,l),
(130,429,l)
);
}
);
width = 333;
},
{
layerId = "3A3847A9-C47D-449F-9BC4-FC5D6C4739D9";
shapes = (
{
closed = 1;
nodes = (
(180,439,o),
(214,471,o),
(245,508,o),
(268,549,o),
(268,569,q),
(268,591,o),
(242,619,o),
(220,619,q),
(205,619,o),
(187,607,o),
(176,589,o),
(172,566,o),
(172,555,q),
(43,555,l),
(50,633,o),
(135,717,o),
(223,717,q),
(256,717,o),
(319,697,o),
(367,660,o),
(396,607,o),
(396,574,q),
(396,546,o),
(378,498,o),
(348,456,o),
(306,420,o),
(282,404,q),
(242,378,l),
(400,386,l),
(400,285,l),
(18,285,l),
(168,428,l)
);
}
);
width = 430;
}
);
note = twosuperior;
unicode = 178;
},
{
glyphname = threesuperior;
layers = (
{
layerId = m01;
shapes = (
{
closed = 1;
nodes = (
(55,356,o),
(101,340,o),
(125,340,qs),
(164,340,o),
(212,385,o),
(212,419,qs),
(212,433,o),
(203,459,o),
(181,480,o),
(144,493,o),
(116,493,qs),
(113,493,o),
(96,492,o),
(93,492,q),
(93,551,l),
(110,551,ls),
(145,551,o),
(191,585,o),
(191,611,qs),
(191,631,o),
(159,661,o),
(132,661,qs),
(112,661,o),
(73,648,o),
(53,636,q),
(35,687,l),
(43,696,o),
(64,710,o),
(90,719,o),
(118,723,o),
(133,723,qs),
(162,723,o),
(210,709,o),
(245,682,o),
(265,642,o),
(265,617,qs),
(265,585,o),
(233,543,o),
(207,526,q),
(247,509,o),
(287,456,o),
(287,417,qs),
(287,385,o),
(263,334,o),
(220,298,o),
(161,278,o),
(127,278,qs),
(112,278,o),
(82,283,o),
(52,292,o),
(23,307,o),
(9,317,q),
(31,370,l)
);
}
);
width = 311;
},
{
layerId = "45735946-F1C1-40B8-8BE5-3E07C57E9E20";
shapes = (
{
closed = 1;
nodes = (
(38,348,o),
(88,334,o),
(111,334,q),
(153,334,o),
(205,382,o),
(205,417,q),
(205,431,o),
(195,460,o),
(171,482,o),
(131,496,o),
(100,496,q),
(97,496,o),
(79,496,o),
(76,496,q),
(76,552,l),
(95,552,l),
(133,552,o),
(182,589,o),
(182,615,q),
(182,636,o),
(148,667,o),
(119,667,q),
(101,667,o),
(58,657,o),
(33,645,q),
(36,706,l),
(45,710,o),
(65,716,o),
(86,721,o),
(108,723,o),
(120,723,q),
(149,723,o),
(195,709,o),
(228,682,o),
(246,644,o),
(246,620,q),
(246,588,o),
(213,546,o),
(187,528,q),
(229,511,o),
(269,458,o),
(269,418,q),
(269,387,o),
(246,335,o),
(204,298,o),
(147,278,o),
(113,278,q),
(103,278,o),
(79,280,o),
(53,284,o),
(25,290,o),
(9,295,q),
(9,359,l)
);
}
);
width = 294;
},
{
layerId = "3A3847A9-C47D-449F-9BC4-FC5D6C4739D9";
shapes = (
{
closed = 1;
nodes = (
(139,401,o),
(169,369,o),
(195,369,q),
(218,369,o),
(249,401,o),
(249,426,q),
(249,438,o),
(241,456,o),
(228,468,o),
(209,475,o),
(198,475,q),
(192,475,o),
(181,474,o),
(175,474,q),
(175,547,l),
(187,547,l),
(206,547,o),
(233,571,o),
(233,592,q),
(233,609,o),
(212,632,o),
(194,632,q),
(171,632,o),
(152,604,o),
(152,589,q),
(27,589,l),
(30,623,o),
(60,672,o),
(107,705,o),
(166,721,o),
(197,721,q),
(226,721,o),
(284,706,o),
(329,676,o),
(357,631,o),
(357,601,q),
(357,575,o),
(332,528,o),
(307,515,q),
(340,501,o),
(375,446,o),
(375,414,q),
(375,379,o),
(344,328,o),
(293,295,o),
(228,279,o),
(194,279,q),
(157,279,o),
(92,297,o),
(42,334,o),
(12,388,o),
(10,424,q),
(138,424,l)
);
}
);
width = 398;
}
);
note = threesuperior;
unicode = 179;
},
{
glyphname = acute;
layers = (
{
layerId = m01;
shapes = (
{
closed = 1;
nodes = (
(223,745,l),
(92,616,l),
(20,616,l),
(113,771,l)
);
}
);
width = 239;
},
{
layerId = "45735946-F1C1-40B8-8BE5-3E07C57E9E20";
shapes = (
{
closed = 1;
nodes = (
(210,745,l),
(82,616,l),
(23,616,l),
(114,765,l)
);
}
);
width = 233;
},
{
layerId = "3A3847A9-C47D-449F-9BC4-FC5D6C4739D9";
shapes = (
{
closed = 1;
nodes = (
(286,744,l),
(139,616,l),
(5,616,l),
(109,801,l)
);
}
);
width = 269;
}
);
note = acute;
unicode = 180;
},
{
glyphname = uni03BC;
lastChange = "2023-04-07 22:51:51 +0000";
layers = (
{
layerId = m01;
shapes = (
{
closed = 1;
nodes = (
(186,24,o),
(243,-10,o),
(277,-10,qs),
(317,-10,o),
(382,32,o),
(402,64,q),
(503,0,l),
(503,493,l),
(403,493,l),
(403,211,ls),
(403,177,o),
(383,127,o),
(349,94,o),
(304,77,o),
(278,77,qs),
(258,77,o),
(219,92,o),
(188,125,o),
(169,175,o),
(169,211,qs),
(169,493,l),
(69,493,l),
(69,-183,l),
(169,-183,l),
(169,59,l)
);
}
);
width = 576;
},
{
layerId = "45735946-F1C1-40B8-8BE5-3E07C57E9E20";
shapes = (
{
closed = 1;
nodes = (
(174,26,o),
(236,-10,o),
(271,-10,q),
(313,-10,o),
(383,32,o),
(404,62,q),
(487,0,l),
(487,483,l),
(405,483,l),
(405,204,l),
(405,168,o),
(384,114,o),
(347,78,o),
(298,61,o),
(271,61,q),
(250,61,o),
(209,77,o),
(176,111,o),
(155,165,o),
(155,204,q),
(155,483,l),
(73,483,l),
(73,-188,l),
(155,-188,l),
(155,64,l)
);
}
);
width = 564;
},
{
layerId = "3A3847A9-C47D-449F-9BC4-FC5D6C4739D9";
shapes = (
{
closed = 1;
nodes = (
(245,17,o),
(282,-12,o),
(307,-12,q),
(333,-12,o),
(377,29,o),
(393,74,q),
(583,0,l),
(583,541,l),
(393,541,l),
(393,248,l),
(393,226,o),
(381,192,o),
(360,169,o),
(331,157,o),
(314,157,q),
(297,157,o),
(268,169,o),
(248,192,o),
(237,226,o),
(237,248,q),
(237,541,l),
(47,541,l),
(47,-160,l),
(237,-160,l),
(237,36,l)
);
}
);
width = 634;
}
);
note = uni03BC;
unicode = 181;
},
{
glyphname = paragraph;
layers = (
{
layerId = m01;
shapes = (
{
closed = 1;
nodes = (
(210,352,l),
(176,358,o),
(113,381,o),
(64,420,o),
(35,482,o),
(35,527,qs),
(35,614,o),
(143,706,o),
(237,706,qs),
(542,706,l),
(505,622,l),
(469,622,l),
(469,-106,l),
(384,-106,l),
(384,622,l),
(295,622,l),
(295,-106,l),
(210,-106,l)
);
}
);
width = 634;
},
{
layerId = "45735946-F1C1-40B8-8BE5-3E07C57E9E20";
shapes = (
{
closed = 1;
nodes = (
(206,361,l),
(173,368,o),
(111,388,o),
(63,426,o),
(33,486,o),
(33,532,q),
(33,617,o),
(139,706,o),
(230,706,q),
(536,706,l),
(492,625,l),
(459,625,l),
(459,-104,l),
(380,-104,l),
(380,625,l),
(285,625,l),
(285,-104,l),
(206,-104,l)
);
}
);
width = 632;
},
{
layerId = "3A3847A9-C47D-449F-9BC4-FC5D6C4739D9";
shapes = (
{
closed = 1;
nodes = (
(230,308,l),
(190,313,o),
(121,344,o),
(71,393,o),
(43,460,o),
(43,502,q),
(43,596,o),
(161,706,o),
(273,706,q),
(571,706,l),
(571,604,l),
(516,604,l),
(516,-113,l),
(404,-113,l),
(404,604,l),
(342,604,l),
(342,-113,l),
(230,-113,l)
);
}
);
width = 641;
}
);
note = paragraph;
unicode = 182;
},
{
glyphname = periodcentered;
layers = (
{
layerId = m01;
shapes = (
{
closed = 1;
nodes = (
(121,424,o),
(150,424,qs),
(178,424,o),
(218,385,o),
(218,356,qs),
(218,327,o),
(178,287,o),
(150,287,qs),
(121,287,o),
(81,327,o),
(81,356,qs),
(81,385,o)
);
}
);
width = 300;
},
{
layerId = "45735946-F1C1-40B8-8BE5-3E07C57E9E20";
shapes = (
{
closed = 1;
nodes = (
(120,411,o),
(145.113,411,q),
(169.361,411,o),
(204,376,o),
(204,351.5,q),
(204,327,o),
(169,291,o),
(144.753,291,q),
(119.639,291,o),
(85,327,o),
(85,352.113,q),
(85,376,o)
);
}
);
width = 290;
},
{
layerId = "3A3847A9-C47D-449F-9BC4-FC5D6C4739D9";
shapes = (
{
closed = 1;
nodes = (
(126,488,o),
(174,488,q),
(222,488,o),
(287,433,o),
(287,379,q),
(287,325,o),
(222,269,o),
(174,269,q),
(126,269,o),
(62,325,o),
(62,379,q),
(62,433,o)
);
}
);
width = 349;
}
);
note = periodcentered;
unicode = 183;
},
{
glyphname = cedilla;
layers = (
{
layerId = m01;
shapes = (
{
closed = 1;
nodes = (
(163,-70,ls),
(176,-70,o),
(205,-76,o),
(229,-92,o),
(245,-118,o),
(245,-138,qs),
(245,-162,o),
(222,-195,o),
(186,-216,o),
(144,-225,o),
(124,-225,qs),
(100,-225,o),
(57,-214,o),
(37,-204,q),
(51,-161,l),
(66,-167,o),
(92,-172,o),
(103,-172,qs),
(112,-172,o),
(133,-168,o),
(153,-158,o),
(166,-141,o),
(166,-129,qs),
(166,-114,o),
(144,-99,o),
(126,-99,qs),
(117,-99,o),
(102,-103,o),
(92,-107,q),
(73,-92,l),
(135,0,l),
(201,0,l),
(159,-70,l)
);
}
);
width = 290;
},
{
layerId = "45735946-F1C1-40B8-8BE5-3E07C57E9E20";
shapes = (
{
closed = 1;
nodes = (
(153,-70,l),
(165.381,-70,o),
(193,-76,o),
(217,-90,o),
(233,-115.581,o),
(233,-135.258,q),
(233,-158.871,o),
(210,-191.339,o),
(174,-212,o),
(132.488,-221,o),
(112.721,-221,q),
(89,-221,o),
(49,-210,o),
(30,-201,q),
(41,-160,l),
(54.902,-165.455,o),
(79,-170,o),
(90.18,-170,q),
(99.328,-170,o),
(120.672,-165.714,o),
(141,-155,o),
(155,-138,o),
(155,-125,q),
(155,-109.5,o),
(132.45,-94,o),
(114,-94,q),
(105.75,-94,o),
(92,-97,o),
(83.034,-101,q),
(66,-88,l),
(126,0,l),
(191,0,l),
(150,-70,l)
);
}
);
width = 273;
},
{
layerId = "3A3847A9-C47D-449F-9BC4-FC5D6C4739D9";
shapes = (
{
closed = 1;
nodes = (
(214,-68,l),
(231,-68,o),
(263,-78,o),
(290,-99,o),
(306,-129,o),
(306,-150,q),
(306,-177,o),
(282,-214,o),
(245,-237,o),
(201,-246,o),
(180,-246,q),
(154,-246,o),
(98,-233,o),
(72,-220,q),
(98,-164,l),
(118,-173,o),
(156,-180,o),
(170,-180,q),
(178,-180,o),
(196,-177,o),
(212,-170,o),
(223,-159,o),
(223,-151,q),
(223,-139,o),
(202,-126,o),
(184,-126,q),
(173,-126,o),
(151,-131,o),
(139,-136,q),
(108,-110,l),
(178,0,l),
(248,0,l),
(206,-68,l)
);
}
);
width = 372;
}
);
note = cedilla;
unicode = 184;
},
{
glyphname = onesuperior;
layers = (
{
layerId = m01;
shapes = (
{
closed = 1;
nodes = (
(72,602,o),
(41,577,o),
(27,569,q),
(27,643,l),
(50,661,o),
(89,695,o),
(103,713,q),
(163,713,l),
(163,286,l),
(85,286,l),
(85,617,l)
);
}
);
width = 240;
},
{
layerId = "45735946-F1C1-40B8-8BE5-3E07C57E9E20";
shapes = (
{
closed = 1;
nodes = (
(68,602,o),
(36,571,o),
(23,562,q),
(23,631,l),
(49,653,o),
(83,693,o),
(94,714,q),
(148,714,l),
(148,286,l),
(80,286,l),
(80,619,l)
);
}
);
width = 219;
},
{
layerId = "3A3847A9-C47D-449F-9BC4-FC5D6C4739D9";
shapes = (
{
closed = 1;
nodes = (
(92,603,o),
(66,603,o),
(47,602,q),
(47,704,l),
(57,704,o),
(119,706,o),
(150,706,q),
(240,708,l),
(240,285,l),
(112,285,l),
(112,604,l)
);
}
);
width = 347;
}
);
note = onesuperior;
unicode = 185;
},
{
glyphname = ordmasculine;
lastChange = "2023-04-07 17:13:42 +0000";
layers = (
{
layerId = m01;
shapes = (
{
closed = 1;
nodes = (
(83,446,o),
(43,487,o),
(21,541,o),
(21,572,qs),
(21,603,o),
(44,658,o),
(84,699,o),
(139,723,o),
(172,723,qs),
(204,723,o),
(259,699,o),
(299,658,o),
(321,604,o),
(321,575,qs),
(321,544,o),
(298,488,o),
(258,446,o),
(202,422,o),
(170,422,qs),
(138,422,o)
);
},
{
closed = 1;
nodes = (
(315,354,l),
(315,302,l),
(27,302,l),
(27,354,l)
);
},
{
closed = 1;
nodes = (
(259,532,o),
(259,572,qs),
(259,614,o),
(209,667,o),
(170,667,qs),
(129,667,o),
(83,612,o),
(83,575,qs),
(83,533,o),
(133,478,o),
(172,478,qs),
(212,478,o)
);
}
);
width = 342;
},
{
layerId = "45735946-F1C1-40B8-8BE5-3E07C57E9E20";
shapes = (
{
closed = 1;
nodes = (
(81.497,446.631,o),
(42,487,o),
(20,542,o),
(20,572,q),
(20,603,o),
(42,658,o),
(82,699,o),
(137,723,o),
(169.456,723,q),
(200.929,723,o),
(255.022,699.102,o),
(294.363,658.277,o),
(316,604.506,o),
(316,575.63,q),
(316,544.762,o),
(293,489,o),
(253,447,o),
(199,423,o),
(167.403,423,q),
(135,423,o)
);
},
{
closed = 1;
nodes = (
(312,356,l),
(312,304,l),
(24,304,l),
(24,351,l)
);
},
{
closed = 1;
nodes = (
(262,530,o),
(262,572.37,q),
(262,616.859,o),
(208.629,673,o),
(167,673,q),
(124,673,o),
(74,614,o),
(74,576,q),
(74,532.701,o),
(127.409,476,o),
(169.068,476,q),
(211,473,o)
);
}
);
width = 336;
},
{
layerId = "3A3847A9-C47D-449F-9BC4-FC5D6C4739D9";
shapes = (
{
closed = 1;
nodes = (
(90.15,438.738,o),
(47,481,o),
(23,538,o),
(23,569,q),
(23,600.821,o),
(47.949,657.278,o),
(91.339,699.364,o),
(151,724,o),
(186.475,724,q),
(220.875,724,o),
(280,700,o),
(323.226,657.705,o),
(347,602,o),
(347,570,q),
(347,538.287,o),
(323,481,o),
(279,439,o),
(218.545,414,o),
(184,414,q),
(149.48,414,o)
);
},
{
closed = 1;
nodes = (
(329,366,l),
(329,289,l),
(41,289,l),
(41,366,l)
);
},
{
closed = 1;
nodes = (
(245,542,o),
(245,569,q),
(245,596,o),
(210.73,635,o),
(184,635,q),
(157,635,o),
(125,597,o),
(125,570,q),
(125,543,o),
(159,503,o),
(185.619,503,q),
(212.921,503,o)
);
}
);
width = 370;
}
);
note = ordmasculine;
unicode = 186;
},
{
glyphname = guillemotright;
layers = (
{
layerId = m01;
shapes = (
{
closed = 1;
nodes = (
(49,437,l),
(130,468,l),
(285,253,l),
(130,42,l),
(50,76,l),
(179,256,l)
);
},
{
closed = 1;
nodes = (
(268,437,l),
(349,468,l),
(505,253,l),
(349,42,l),
(270,76,l),
(398,256,l)
);
}
);
width = 555;
},
{
layerId = "45735946-F1C1-40B8-8BE5-3E07C57E9E20";
shapes = (
{
closed = 1;
nodes = (
(51,437,l),
(120,461,l),
(272,250,l),
(120,43,l),
(53,72,l),
(181,253,l)
);
},
{
closed = 1;
nodes = (
(259,437,l),
(328,461,l),
(480,250,l),
(328,43,l),
(261,72,l),
(389,253,l)
);
}
);
width = 534;
},
{
layerId = "3A3847A9-C47D-449F-9BC4-FC5D6C4739D9";
shapes = (
{
closed = 1;
nodes = (
(36,439,l),
(177,500,l),
(351,268,l),
(178,37,l),
(36,98,l),
(166,268,l)
);
},
{
closed = 1;
nodes = (
(312,439,l),
(453,500,l),
(627,268,l),
(454,37,l),
(312,98,l),
(442,268,l)
);
}
);
width = 659;
}
);
note = guillemotright;
unicode = 187;
},
{
glyphname = questiondown;
layers = (
{
layerId = m01;
shapes = (
{
closed = 1;
nodes = (
(309,-92,o),
(348,-71,o),
(385,-37,o),
(403,-13,q),
(403,-120,l),
(377,-153,o),
(290,-193,o),
(236,-193,qs),
(195,-193,o),
(126,-168,o),
(77,-123,o),
(50,-59,o),
(50,-20,qs),
(50,9,o),
(64,59,o),
(89,103,o),
(123,140,o),
(143,157,qs),
(162,173,o),
(188,202,o),
(205,234,o),
(212,272,o),
(212,297,qs),
(212,329,l),
(310,329,l),
(310,270,ls),
(310,238,o),
(294,187,o),
(267,146,o),
(234,111,o),
(217,96,qs),
(191,72,o),
(150,21,o),
(150,-13,qs),
(150,-30,o),
(163,-62,o),
(189,-87,o),
(227,-102,o),
(251,-102,qs),
(270,-102,o)
);
},
{
closed = 1;
nodes = (
(283,402,o),
(256,402,qs),
(227,402,o),
(187,440,o),
(187,468,qs),
(187,498,o),
(227,533,o),
(256,533,qs),
(283,533,o),
(324,498,o),
(324,468,qs),
(324,440,o)
);
}
);
width = 452;
},
{
layerId = "45735946-F1C1-40B8-8BE5-3E07C57E9E20";
shapes = (
{
closed = 1;
nodes = (
(293,-109,o),
(331.487,-88,o),
(368,-54,o),
(386,-28,q),
(386,-125.064,l),
(363,-155,o),
(280.319,-193,o),
(229,-193,q),
(189.491,-193,o),
(123,-169,o),
(77,-125,o),
(52,-64.107,o),
(52,-27,q),
(52,1.633,o),
(66,51,o),
(90.051,95.449,o),
(122.759,132.827,o),
(142,150,q),
(162,167,o),
(189.814,198.852,o),
(208,234,o),
(216,275.016,o),
(216,302,q),
(216,334,l),
(298,334,l),
(298,272,l),
(298,239.614,o),
(281,188,o),
(254,146.461,o),
(221,111,o),
(204,95,q),
(176,69,o),
(134,15.6,o),
(134,-20,q),
(134,-38.378,o),
(147,-72.973,o),
(173,-100,o),
(213.452,-117,o),
(239,-117,q),
(256.69,-117,o)
);
},
{
closed = 1;
nodes = (
(276.072,415,o),
(252.412,415,q),
(227,415,o),
(191,451,o),
(191,474,q),
(191,501.231,o),
(227,533,o),
(252.412,533,q),
(276.072,533,o),
(312,501.231,o),
(312,474,q),
(312,451,o)
);
}
);
width = 437;
},
{
layerId = "3A3847A9-C47D-449F-9BC4-FC5D6C4739D9";
shapes = (
{
closed = 1;
nodes = (
(387,-10,o),
(432,17,o),
(472,50,o),
(487,64,q),
(487,-94,l),
(448,-145,o),
(336,-190,o),
(273,-190,q),
(227,-190,o),
(142,-163,o),
(76,-112,o),
(37,-36,o),
(37,13,q),
(37,47,o),
(54,98,o),
(84,140,o),
(125,175,o),
(150,194,q),
(162,204,o),
(179,220,o),
(190,236,o),
(194,256,o),
(194,270,q),
(194,301,l),
(368,301,l),
(368,258,l),
(368,228,o),
(353,181,o),
(329,144,o),
(298,115,o),
(281,102,q),
(261,87,o),
(228,47,o),
(228,25,q),
(228,11,o),
(242,-9,o),
(265,-22,o),
(294,-28,o),
(308,-28,q),
(335,-28,o)
);
},
{
closed = 1;
nodes = (
(319,339,o),
(274,339,q),
(229,339,o),
(166,387,o),
(166,435,q),
(166,483,o),
(229,532,o),
(274,532,q),
(319,532,o),
(381,483,o),
(381,435,q),
(381,387,o)
);
}
);
width = 524;
}
);
note = questiondown;
unicode = 191;
},
{
glyphname = AE;
lastChange = "2023-04-07 17:34:48 +0000";
layers = (
{
layerId = m01;
shapes = (
{
closed = 1;
nodes = (
(931,704,l),
(931,613,l),
(557,613,l),
(557,402,l),
(901,402,l),
(901,314,l),
(557,314,l),
(557,91,l),
(941,91,l),
(941,0,l),
(453,0,l),
(453,185,l),
(214,185,l),
(104,0,l),
(-6,0,l),
(407,704,l)
);
},
{
closed = 1;
nodes = (
(453,599,l),
(262,273,l),
(453,273,l)
);
}
);
width = 940;
},
{
layerId = "45735946-F1C1-40B8-8BE5-3E07C57E9E20";
shapes = (
{
closed = 1;
nodes = (
(915,705,l),
(915,629,l),
(541,629,l),
(541,397,l),
(886,397,l),
(886,321,l),
(541,321,l),
(541,76,l),
(926,76,l),
(926,0,l),
(455,0,l),
(455,197,l),
(206,197,l),
(86,0,l),
(-5,0,l),
(430,705,l)
);
},
{
closed = 1;
nodes = (
(455,602,l),
(252,272,l),
(455,272,l)
);
}
);
width = 926;
},
{
layerId = "3A3847A9-C47D-449F-9BC4-FC5D6C4739D9";
shapes = (
{
closed = 1;
nodes = (
(1010,700,l),
(1010,535,l),
(637,535,l),
(637,429,l),
(975,429,l),
(975,276,l),
(637,276,l),
(637,165,l),
(1015,165,l),
(1015,0,l),
(445,0,l),
(445,125,l),
(255,125,l),
(196,0,l),
(-8,0,l),
(290,700,l)
);
},
{
closed = 1;
nodes = (
(445,582,l),
(312,276,l),
(445,276,l)
);
}
);
width = 1007;
}
);
note = AE;
unicode = 198;
},
{
glyphname = Eth;
lastChange = "2023-04-07 17:41:24 +0000";
layers = (
{
layerId = m01;
shapes = (
{
closed = 1;
nodes = (
(336,704,ls),
(419,704,o),
(558,654,o),
(658,562,o),
(715,433,o),
(715,353,qs),
(715,276,o),
(661,146,o),
(562,52,o),
(422,0,o),
(335,0,qs),
(107,0,l),
(107,704,l)
);
},
{
closed = 1;
nodes = (
(332,92,ls),
(398,92,o),
(500,130,o),
(571,199,o),
(607,294,o),
(607,351,qs),
(607,399,o),
(576,492,o),
(516,566,o),
(429,611,o),
(372,611,qs),
(210,611,l),
(210,92,l)
);
},
{
closed = 1;
nodes = (
(15,307,l),
(15,399,l),
(295,399,l),
(295,307,l)
);
}
);
width = 765;
},
{
layerId = "45735946-F1C1-40B8-8BE5-3E07C57E9E20";
shapes = (
{
closed = 1;
nodes = (
(332.926,705,l),
(413,705,o),
(551,655,o),
(652,563,o),
(709,433.098,o),
(709,352.538,q),
(709,275,o),
(655,146,o),
(556.414,52,o),
(417,0,o),
(332,0,q),
(112,0,l),
(112,705,l)
);
},
{
closed = 1;
nodes = (
(328.085,76,l),
(399,76,o),
(507,117,o),
(581.318,190.059,o),
(619,290.647,o),
(619,351,q),
(619,400,o),
(588,499,o),
(526,578,o),
(435.375,628,o),
(376,628,q),
(197,628,l),
(197,76,l)
);
},
{
closed = 1;
nodes = (
(16,319,l),
(16,396,l),
(287,396,l),
(287,319,l)
);
}
);
width = 761;
},
{
layerId = "3A3847A9-C47D-449F-9BC4-FC5D6C4739D9";
shapes = (
{
closed = 1;
nodes = (
(351,700,l),
(445,700,o),
(592,649,o),
(693,557,o),
(746,430,o),
(746,354,q),
(746,278,o),
(692,149,o),
(590,54,o),
(442,0,o),
(347,0,q),
(81,0,l),
(81,700,l)
);
},
{
closed = 1;
nodes = (
(354,172,l),
(398,172,o),
(469,196,o),
(519,242,o),
(547,309,o),
(547,351,q),
(547,393,o),
(519,459,o),
(468,504,o),
(397,528,o),
(354,528,q),
(275,528,l),
(275,172,l)
);
},
{
closed = 1;
nodes = (
(7,249,l),
(7,416,l),
(335,416,l),
(335,249,l)
);
}
);
width = 784;
}
);
note = Eth;
unicode = 208;
},
{
glyphname = multiply;
layers = (
{
layerId = m01;
shapes = (
{
closed = 1;
nodes = (
(88,528,l),
(146,588,l),
(324,408,l),
(502,588,l),
(561,528,l),
(384,351,l),
(561,173,l),
(502,113,l),
(324,292,l),
(146,113,l),
(87,172,l),
(266,351,l)
);
}
);
width = 648;
},
{
layerId = "45735946-F1C1-40B8-8BE5-3E07C57E9E20";
shapes = (
{
closed = 1;
nodes = (
(87,533,l),
(136,583,l),
(319,399,l),
(501,583,l),
(551,533,l),
(369,351,l),
(551,168,l),
(501,117,l),
(319,301,l),
(136,117,l),
(86,167,l),
(270,351,l)
);
}
);
width = 638;
},
{
layerId = "3A3847A9-C47D-449F-9BC4-FC5D6C4739D9";
shapes = (
{
closed = 1;
nodes = (
(90,505,l),
(196,610,l),
(351,455,l),
(505,610,l),
(610,505,l),
(456,350,l),
(610,195,l),
(505,90,l),
(351,245,l),
(196,90,l),
(90,195,l),
(246,350,l)
);
}
);
width = 700;
}
);
note = multiply;
unicode = 215;
},
{
glyphname = Oslash;
layers = (
{
layerId = m01;
shapes = (
{
closed = 1;
nodes = (
(98,150,o),
(48,277,o),
(48,351,qs),
(48,427,o),
(103,561,o),
(202,660,o),
(337,718,o),
(417,718,qs),
(480,718,o),
(585,680,o),
(629,646,q),
(703,730,l),
(766,699,l),
(684,603,l),
(732,554,o),
(783,427,o),
(783,354,qs),
(783,278,o),
(728,144,o),
(630,44,o),
(495,-14,o),
(416,-14,qs),
(352,-14,o),
(245,24,o),
(202,58,q),
(129,-26,l),
(69,9,l),
(146,101,l)
);
},
{
closed = 1;
nodes = (
(554,581,o),
(527,597,o),
(511,604,qs),
(487,614,o),
(435,624,o),
(407,624,qs),
(351,623,o),
(258,579,o),
(191,506,o),
(154,409,o),
(154,354,qs),
(154,353,o),
(154,351,o),
(154,350,qs),
(154,300,o),
(183,215,o),
(209,180,q),
(567,571,l)
);
},
{
closed = 1;
nodes = (
(271,128,o),
(287,116,o),
(296,111,qs),
(306,106,o),
(326,98,o),
(337,94,qs),
(357,87,o),
(403,80,o),
(427,81,qs),
(488,83,o),
(588,135,o),
(622,179,qs),
(648,214,o),
(677,301,o),
(677,350,qs),
(677,400,o),
(648,487,o),
(621,523,q),
(443,331,l),
(263,134,l)
);
}
);
width = 831;
},
{
layerId = "45735946-F1C1-40B8-8BE5-3E07C57E9E20";
shapes = (
{
closed = 1;
nodes = (
(94,160,o),
(51,282,o),
(51,351,q),
(51,428,o),
(106,562,o),
(204,661,o),
(339,719,o),
(419,719,q),
(488,719,o),
(605,674,o),
(653,635,q),
(733,716,l),
(778,679,l),
(694,594,l),
(736,546,o),
(782,423,o),
(782,354,q),
(782,278,o),
(727,144,o),
(630,44,o),
(496,-14,o),
(417,-14,q),
(345,-14,o),
(226,31,o),
(178,71,q),
(102,-6,l),
(61,36,l),
(136,112,l)
);
},
{
closed = 1;
nodes = (
(581,589,o),
(549,609,o),
(532,617,q),
(506,629,o),
(449,642,o),
(418,642,q),
(356,642,o),
(253,597,o),
(179,519,o),
(138,414,o),
(138,354,q),
(138,354,o),
(138,354,o),
(138,354,q),
(138,300,o),
(168,209,o),
(195,172,q),
(595,577,l)
);
},
{
closed = 1;
nodes = (
(244,121,o),
(263,107,o),
(273,101,q),
(284,95,o),
(306,85,o),
(317,80,q),
(340,72,o),
(391,63,o),
(418,63,q),
(487,63,o),
(597,119,o),
(635,167,q),
(664,205,o),
(695,297,o),
(695,350,q),
(695,404,o),
(664,496,o),
(635,534,q),
(435,332,l),
(235,129,l)
);
}
);
width = 833;
},
{
layerId = "3A3847A9-C47D-449F-9BC4-FC5D6C4739D9";
shapes = (
{
closed = 1;
nodes = (
(120,98,o),
(32,254,o),
(32,350,q),
(32,425,o),
(89,558,o),
(190,657,o),
(328,714,o),
(409,714,q),
(435,714,o),
(484,708,o),
(508,702,q),
(554,798,l),
(708,798,l),
(634,645,l),
(706,594,o),
(786,443,o),
(786,352,q),
(786,277,o),
(728,143,o),
(627,44,o),
(489,-14,o),
(408,-14,q),
(385,-14,o),
(343,-9,o),
(323,-5,q),
(265,-128,l),
(111,-128,l),
(195,47,l)
);
},
{
closed = 1;
nodes = (
(424,539,o),
(413,539,o),
(408,539,q),
(394,539,o),
(367,535,o),
(354,531,q),
(326,522,o),
(280,487,o),
(248,440,o),
(231,383,o),
(231,352,q),
(231,347,o),
(231,336,o),
(232,331,q),
(235,300,o),
(258,244,o),
(278,221,q),
(429,538,l)
);
},
{
closed = 1;
nodes = (
(405,161,o),
(407,161,o),
(409,161,q),
(415,161,o),
(428,161,o),
(434,163,q),
(443,164,o),
(461,168,o),
(469,171,q),
(496,181,o),
(540,216,o),
(555,240,q),
(571,263,o),
(587,320,o),
(587,350,q),
(587,382,o),
(567,442,o),
(549,467,q),
(483,328,l),
(403,161,l)
);
}
);
width = 818;
}
);
note = Oslash;
unicode = 216;
},
{
glyphname = Thorn;
layers = (
{
layerId = m01;
shapes = (
{
closed = 1;
nodes = (
(174,706,l),
(174,580,l),
(216,580,ls),
(267,580,o),
(361,560,o),
(431,513,o),
(473,434,o),
(473,374,qs),
(473,320,o),
(436,243,o),
(373,194,o),
(287,171,o),
(238,171,qs),
(174,171,l),
(174,0,l),
(76,0,l),
(76,706,l)
);
},
{
closed = 1;
nodes = (
(253,256,o),
(309,267,o),
(351,294,o),
(375,340,o),
(375,376,qs),
(375,417,o),
(345,464,o),
(297,487,o),
(235,493,o),
(203,493,qs),
(174,493,l),
(174,256,l),
(222,256,ls)
);
}
);
width = 501;
},
{
layerId = "45735946-F1C1-40B8-8BE5-3E07C57E9E20";
shapes = (
{
closed = 1;
nodes = (
(159,706,l),
(159,575,l),
(196,575,l),
(245.945,575,o),
(338,557,o),
(409,512,o),
(451,435,o),
(451,375.526,q),
(451,322,o),
(414,247,o),
(349,200,o),
(264.274,178,o),
(216,178,q),
(159,178,l),
(159,0,l),
(80,0,l),
(80,706,l)
);
},
{
closed = 1;
nodes = (
(244,251,o),
(302,262,o),
(346,291,o),
(372,340,o),
(372,378.118,q),
(372,421.529,o),
(340.071,471.294,o),
(288.986,495.647,o),
(223,502,o),
(188,502,q),
(159,502,l),
(159,251,l),
(210.646,251,l)
);
}
);
width = 481;
},
{
layerId = "3A3847A9-C47D-449F-9BC4-FC5D6C4739D9";
shapes = (
{
closed = 1;
nodes = (
(250,706,l),
(250,603,l),
(314,603,l),
(373,603,o),
(470,575,o),
(541,517,o),
(580,426,o),
(580,363,q),
(580,308,o),
(549,223,o),
(489,165,o),
(404,135,o),
(350,135,q),
(250,135,l),
(250,0,l),
(58,0,l),
(58,706,l)
);
},
{
closed = 1;
nodes = (
(301,281,o),
(341,287,o),
(370,306,o),
(387,340,o),
(387,368,q),
(387,395,o),
(369,428,o),
(338,444,o),
(298,449,o),
(275,449,q),
(250,449,l),
(250,281,l),
(277,281,l)
);
}
);
width = 603;
}
);
note = Thorn;
unicode = 222;
},
{
glyphname = germandbls;
layers = (
{
layerId = m01;
shapes = (
{
closed = 1;
nodes = (
(11,0,l),
(11,513,ls),
(11,562,o),
(38,648,o),
(95,713,o),
(182,751,o),
(242,751,qs),
(289,751,o),
(366,724,o),
(421,674,o),
(452,606,o),
(452,565,qs),
(452,501,o),
(384,416,o),
(332,393,q),
(365,387,o),
(425,356,o),
(470,308,o),
(497,245,o),
(497,207,qs),
(497,153,o),
(452,73,o),
(374,21,o),
(270,-4,o),
(211,-3,q),
(211,74,l),
(252,74,o),
(320,90,o),
(369,123,o),
(397,174,o),
(397,210,qs),
(397,245,o),
(372,293,o),
(325,325,o),
(260,344,o),
(220,350,q),
(220,418,l),
(248,429,o),
(296,452,o),
(332,484,o),
(353,526,o),
(353,554,qs),
(353,606,o),
(289,663,o),
(239,663,qs),
(205,663,o),
(156,638,o),
(124,596,o),
(109,542,o),
(109,513,qs),
(109,0,l)
);
}
);
width = 531;
},
{
layerId = "45735946-F1C1-40B8-8BE5-3E07C57E9E20";
shapes = (
{
closed = 1;
nodes = (
(12,0,l),
(12,520,l),
(12,567,o),
(37.714,651.291,o),
(92,715,o),
(176.633,753,o),
(235,753,q),
(279,753,o),
(353,727,o),
(406.721,678.695,o),
(437,613,o),
(437,572,q),
(437,507.57,o),
(368,422,o),
(314,399,q),
(349,393,o),
(411,361,o),
(457,313,o),
(484,248.129,o),
(484,209,q),
(484,156,o),
(441,76,o),
(365,23,o),
(261,-3,o),
(201,-3,q),
(201,62,l),
(245.114,62,o),
(318.278,78.98,o),
(371,114,o),
(401,170,o),
(401,209.099,q),
(401,247.113,o),
(374.264,299.245,o),
(324,334,o),
(254,354,o),
(211,359.514,q),
(211,422,l),
(241.25,433.333,o),
(293.107,457.03,o),
(332,490,o),
(354,534,o),
(354,563.839,q),
(354,619.255,o),
(284.811,680,o),
(230.757,680,q),
(194,680,o),
(142,652,o),
(107.957,606.938,o),
(92,549,o),
(92,519,q),
(92,0,l)
);
}
);
width = 519;
},
{
layerId = "3A3847A9-C47D-449F-9BC4-FC5D6C4739D9";
shapes = (
{
closed = 1;
nodes = (
(7,0,l),
(7,479,l),
(7,538,o),
(42,633,o),
(111,702,o),
(213,739,o),
(279,739,q),
(337,739,o),
(430,706,o),
(494,650,o),
(529,574,o),
(529,530,q),
(529,467,o),
(469,386,o),
(424,364,q),
(450,356,o),
(500,328,o),
(539,286,o),
(564,230,o),
(564,194,q),
(564,136,o),
(506,56,o),
(417,9,o),
(311,-8,o),
(263,-3,q),
(263,133,l),
(289,134,o),
(330,146,o),
(359,167,o),
(375,196,o),
(375,214,q),
(375,232,o),
(359,261,o),
(330,282,o),
(289,295,o),
(263,297,q),
(263,398,l),
(280,406,o),
(309,427,o),
(332,454,o),
(345,486,o),
(345,505,q),
(345,540,o),
(307,580,o),
(276,580,q),
(259,580,o),
(230,567,o),
(208,543,o),
(196,507,o),
(196,483,q),
(196,0,l)
);
}
);
width = 593;
}
);
note = germandbls;
unicode = 223;
},
{
glyphname = ae;
layers = (
{
layerId = m01;
shapes = (
{
closed = 1;
nodes = (
(733,81,o),
(776,101,o),
(813,127,o),
(828,142,q),
(828,44,l),
(796,19,o),
(710,-11,o),
(658,-12,qs),
(650,-12,o),
(636,-12,o),
(628,-11,qs),
(574,-6,o),
(488,37,o),
(457,75,q),
(435,53,o),
(383,21,o),
(326,0,o),
(266,-11,o),
(235,-11,qs),
(228,-11,o),
(214,-11,o),
(208,-10,qs),
(177,-8,o),
(117,15,o),
(69,55,o),
(36,110,o),
(32,145,qs),
(31,153,o),
(30,166,o),
(31,174,qs),
(32,219,o),
(69,279,o),
(128,316,o),
(203,332,o),
(241,332,qs),
(284,332,o),
(359,317,o),
(390,300,q),
(390,318,ls),
(390,373,o),
(312,419,o),
(248,419,qs),
(243,419,o),
(233,419,o),
(228,418,q),
(186,416,o),
(104,395,o),
(65,372,q),
(65,460,l),
(100,475,o),
(197,501,o),
(253,501,q),
(261,502,o),
(274,502,o),
(281,501,qs),
(338,496,o),
(428,455,o),
(456,417,q),
(486,457,o),
(576,504,o),
(635,504,qs),
(689,504,o),
(773,465,o),
(833,399,o),
(869,311,o),
(874,262,q),
(502,171,l),
(519,126,o),
(595,69,o),
(655,69,qs),
(683,69,o)
);
},
{
closed = 1;
nodes = (
(367,240,o),
(305,261,o),
(262,261,qs),
(238,261,o),
(190,250,o),
(153,226,o),
(129,189,o),
(129,163,qs),
(129,138,o),
(150,101,o),
(184,77,o),
(230,65,o),
(255,65,qs),
(300,65,o),
(366,97,o),
(390,125,q),
(390,227,l)
);
},
{
closed = 1;
nodes = (
(761,362,o),
(690,422,o),
(636,422,qs),
(601,422,o),
(547,393,o),
(510,346,o),
(492,284,o),
(492,251,q),
(495,254,l),
(774,317,l)
);
}
);
width = 906;
},
{
layerId = "45735946-F1C1-40B8-8BE5-3E07C57E9E20";
shapes = (
{
closed = 1;
nodes = (
(729,71,o),
(770,92,o),
(804,118,o),
(818,132,q),
(818,44,l),
(788,20,o),
(702,-11,o),
(648,-11,q),
(641,-11,o),
(628,-11,o),
(621,-10,q),
(567,-5,o),
(482,42,o),
(453,80,q),
(431,57,o),
(380,23,o),
(324,0,o),
(263,-11,o),
(231,-11,q),
(225,-11,o),
(213,-11,o),
(207,-10,q),
(177,-7,o),
(119,16,o),
(71,55,o),
(38,109,o),
(33,143,q),
(32,150,o),
(31,163,o),
(31,171,q),
(31,218,o),
(69,280,o),
(129,318,o),
(205,333,o),
(242,333,q),
(285,333,o),
(362,318,o),
(394,299,q),
(394,318,l),
(394,375,o),
(313,422,o),
(250,422,q),
(244,422,o),
(232,422,o),
(226,421,q),
(184,419,o),
(101,396,o),
(63,372,q),
(63,450,l),
(97,465,o),
(196,492,o),
(253,492,q),
(260,492,o),
(273,492,o),
(280,491,q),
(334,486,o),
(423,442,o),
(449,402,q),
(478,445,o),
(569,495,o),
(629,495,q),
(681,495,o),
(762,458,o),
(821,396,o),
(856,313,o),
(862,266,q),
(487,175,l),
(504,124,o),
(587,59,o),
(653,59,q),
(681,59,o)
);
},
{
closed = 1;
nodes = (
(369,242,o),
(302,266,o),
(254,266,q),
(230,266,o),
(179,255,o),
(139,230,o),
(113,190,o),
(113,161,q),
(113,134,o),
(135,95,o),
(173,70,o),
(222,57,o),
(249,57,q),
(298,57,o),
(369,92,o),
(394,122,q),
(394,228,l)
);
},
{
closed = 1;
nodes = (
(766,362,o),
(689,425,o),
(632,425,q),
(596,425,o),
(538,396,o),
(499,346,o),
(478,282,o),
(478,247,q),
(482,250,l),
(779,316,l)
);
}
);
width = 895;
},
{
layerId = "3A3847A9-C47D-449F-9BC4-FC5D6C4739D9";
shapes = (
{
closed = 1;
nodes = (
(750,130,o),
(807,147,o),
(860,173,o),
(879,190,q),
(879,42,l),
(837,16,o),
(749,-10,o),
(707,-15,q),
(696,-16,o),
(674,-17,o),
(664,-17,q),
(607,-17,o),
(513,17,o),
(477,48,q),
(452,33,o),
(395,12,o),
(336,-2,o),
(279,-10,o),
(254,-11,q),
(242,-12,o),
(220,-12,o),
(211,-12,q),
(172,-12,o),
(104,10,o),
(54,54,o),
(26,117,o),
(26,157,q),
(26,165,o),
(27,179,o),
(28,186,q),
(33,221,o),
(67,274,o),
(122,309,o),
(195,327,o),
(238,327,q),
(277,327,o),
(347,314,o),
(370,306,q),
(370,315,l),
(370,362,o),
(304,404,o),
(237,404,q),
(237,404,o),
(237,404,o),
(237,404,q),
(197,404,o),
(118,390,o),
(73,373,q),
(73,507,l),
(115,524,o),
(201,546,o),
(255,548,q),
(263,549,o),
(279,549,o),
(287,549,q),
(356,549,o),
(456,520,o),
(488,491,q),
(523,518,o),
(612,548,o),
(664,548,q),
(730,548,o),
(830,497,o),
(898,412,o),
(932,300,o),
(932,240,q),
(577,148,l),
(595,133,o),
(640,121,o),
(667,121,q),
(692,121,o)
);
},
{
closed = 1;
nodes = (
(357,227,o),
(319,235,o),
(299,235,q),
(278,235,o),
(245,225,o),
(223,207,o),
(211,184,o),
(211,170,q),
(211,156,o),
(223,133,o),
(242,116,o),
(268,107,o),
(283,107,q),
(306,107,o),
(350,122,o),
(370,139,q),
(370,221,l)
);
},
{
closed = 1;
nodes = (
(737,361,o),
(688,407,o),
(653,407,q),
(627,407,o),
(590,382,o),
(568,342,o),
(560,295,o),
(562,272,q),
(562,272,l),
(746,319,l)
);
}
);
width = 962;
}
);
note = ae;
unicode = 230;
},
{
glyphname = eth;
layers = (
{
layerId = m01;
shapes = (
{
closed = 1;
nodes = (
(169,767,o),
(201,745,o),
(229,726,o),
(255,705,o),
(271,691,q),
(397,773,l),
(437,732,l),
(315,652,l),
(337,630,o),
(403,557,o),
(465,454,o),
(509,324,o),
(509,245,qs),
(509,177,o),
(465,80,o),
(396,18,o),
(312,-11,o),
(272,-11,qs),
(224,-11,o),
(137,24,o),
(72,87,o),
(34,172,o),
(34,223,qs),
(34,270,o),
(68,354,o),
(128,418,o),
(212,456,o),
(261,456,qs),
(289,456,o),
(333,444,o),
(366,427,o),
(389,409,o),
(396,403,q),
(373,464,o),
(295,564,o),
(247,609,q),
(125,529,l),
(84,571,l),
(204,649,l),
(190,662,o),
(139,701,o),
(92,731,q),
(147,780,l)
);
},
{
closed = 1;
nodes = (
(155,158,o),
(186,118,o),
(231,91,o),
(258,88,qs),
(287,85,o),
(337,100,o),
(375,133,o),
(399,180,o),
(402,208,qs),
(405,234,o),
(393,286,o),
(363,328,o),
(317,357,o),
(288,360,qs),
(260,363,o),
(210,348,o),
(171,316,o),
(146,270,o),
(143,241,qs),
(140,211,o)
);
}
);
width = 543;
},
{
layerId = "45735946-F1C1-40B8-8BE5-3E07C57E9E20";
shapes = (
{
closed = 1;
nodes = (
(155,763,o),
(189,741,o),
(217,721,o),
(244,700,o),
(260,686,q),
(389,772,l),
(426,734,l),
(301,650,l),
(318,633,o),
(384,563,o),
(448,460,o),
(496,324,o),
(496,240,q),
(496,174,o),
(453,79,o),
(386,18,o),
(305,-11,o),
(266,-11,q),
(218,-11,o),
(133,25,o),
(71,88,o),
(35,172,o),
(35,220,q),
(35,264,o),
(67,347,o),
(126,411,o),
(209,450,o),
(259,450,q),
(290,450,o),
(338,436,o),
(374,417,o),
(398,397,o),
(405,390,q),
(382,456,o),
(297,566,o),
(246,614,q),
(122,531,l),
(85,569,l),
(207,651,l),
(195,662,o),
(141,703,o),
(90,735,q),
(131,778,l)
);
},
{
closed = 1;
nodes = (
(136,125,o),
(178,82,o),
(235,58,o),
(267,58,q),
(302,58,o),
(359,84,o),
(400,129,o),
(422,188,o),
(422,221,q),
(422,253,o),
(400,312,o),
(360,357,o),
(303,384,o),
(268,384,q),
(234,384,o),
(176,359,o),
(134,315,o),
(111,256,o),
(111,221,q),
(111,185,o)
);
}
);
width = 531;
},
{
layerId = "3A3847A9-C47D-449F-9BC4-FC5D6C4739D9";
shapes = (
{
closed = 1;
nodes = (
(238,779,o),
(262,763,o),
(286,745,o),
(310,725,o),
(323,714,q),
(437,780,l),
(493,722,l),
(385,659,l),
(432,616,o),
(502,524,o),
(549,427,o),
(573,323,o),
(573,268,q),
(573,190,o),
(522,83,o),
(443,17,o),
(347,-13,o),
(301,-13,q),
(252,-13,o),
(155,18,o),
(78,81,o),
(30,175,o),
(30,239,q),
(30,297,o),
(70,388,o),
(138,450,o),
(225,483,o),
(272,483,q),
(286,483,o),
(309,481,o),
(328,477,o),
(344,472,o),
(350,470,q),
(328,504,o),
(282,559,o),
(254,586,q),
(137,519,l),
(80,578,l),
(191,640,l),
(168,660,o),
(126,691,o),
(103,708,q),
(224,787,l)
);
},
{
closed = 1;
nodes = (
(250,322,o),
(227,293,o),
(214,257,o),
(214,238,q),
(214,219,o),
(227,183,o),
(250,156,o),
(283,140,o),
(302,140,q),
(322,140,o),
(354,156,o),
(377,183,o),
(390,219,o),
(390,238,q),
(390,257,o),
(378,293,o),
(355,322,o),
(322,339,o),
(302,339,q),
(283,339,o)
);
}
);
width = 603;
}
);
note = eth;
unicode = 240;
},
{
glyphname = divide;
layers = (
{
layerId = m01;
shapes = (
{
closed = 1;
nodes = (
(53,317,l),
(53,389,l),
(565,389,l),
(565,317,l)
);
},
{
closed = 1;
nodes = (
(336,453,o),
(308,453,qs),
(281,453,o),
(248,487,o),
(248,512,qs),
(248,536,o),
(281,572,o),
(308,572,qs),
(336,572,o),
(370,536,o),
(370,512,qs),
(370,487,o)
);
},
{
closed = 1;
nodes = (
(336,135,o),
(308,135,qs),
(281,135,o),
(248,171,o),
(248,195,qs),
(248,221,o),
(281,254,o),
(308,254,qs),
(336,254,o),
(370,221,o),
(370,195,qs),
(370,171,o)
);
}
);
width = 618;
},
{
layerId = "45735946-F1C1-40B8-8BE5-3E07C57E9E20";
shapes = (
{
closed = 1;
nodes = (
(47,314,l),
(47,386,l),
(559,386,l),
(557,320,l)
);
},
{
closed = 1;
nodes = (
(327,457,o),
(300.591,457,q),
(275.125,457,o),
(244,490,o),
(244,513,q),
(244,536.2,o),
(275.125,571,o),
(300.591,571,q),
(327,571,o),
(360,536,o),
(360,513.157,q),
(360,490,o)
);
},
{
closed = 1;
nodes = (
(327,136,o),
(300.591,136,q),
(275.125,136,o),
(244,171,o),
(244,193.843,q),
(244,218.59,o),
(275.125,250,o),
(300.591,250,q),
(327,250,o),
(360,219,o),
(360,193.907,q),
(360,170.744,o)
);
}
);
width = 604;
},
{
layerId = "3A3847A9-C47D-449F-9BC4-FC5D6C4739D9";
shapes = (
{
closed = 1;
nodes = (
(81,302,l),
(81,402,l),
(604,402,l),
(604,302,l)
);
},
{
closed = 1;
nodes = (
(376,432,o),
(343,432,q),
(310,432,o),
(268,475,o),
(268,504,q),
(268,533,o),
(310,577,o),
(343,577,q),
(376,577,o),
(417,533,o),
(417,504,q),
(417,475,o)
);
},
{
closed = 1;
nodes = (
(376,128,o),
(343,128,q),
(310,128,o),
(268,172,o),
(268,202,q),
(268,231,o),
(310,273,o),
(343,273,q),
(376,273,o),
(417,231,o),
(417,202,q),
(417,172,o)
);
}
);
width = 685;
}
);
note = divide;
unicode = 247;
},
{
glyphname = oslash;
layers = (
{
layerId = m01;
shapes = (
{
closed = 1;
nodes = (
(214,83,o),
(259,68,o),
(288,68,qs),
(326,68,o),
(387,95,o),
(431,142,o),
(454,205,o),
(454,242,qs),
(454,271,o),
(440,319,o),
(427,340,q),
(194,98,l)
);
},
{
closed = 1;
nodes = (
(368,399,o),
(321,415,o),
(291,415,qs),
(253,415,o),
(193,388,o),
(151,341,o),
(128,278,o),
(128,242,qs),
(128,211,o),
(139,164,o),
(155,142,q),
(386,384,l)
);
},
{
closed = 1;
nodes = (
(62,112,o),
(32,193,o),
(32,242,qs),
(32,295,o),
(70,388,o),
(139,456,o),
(233,495,o),
(290,495,qs),
(335,495,o),
(413,474,o),
(445,448,q),
(504,509,l),
(546,467,l),
(492,407,l),
(519,374,o),
(551,293,o),
(551,242,qs),
(551,188,o),
(512,95,o),
(442,27,o),
(347,-12,o),
(290,-12,qs),
(242,-12,o),
(168,12,o),
(136,37,q),
(64,-41,l),
(20,3,l),
(91,76,l)
);
}
);
width = 573;
},
{
layerId = "45735946-F1C1-40B8-8BE5-3E07C57E9E20";
shapes = (
{
closed = 1;
nodes = (
(194,71,o),
(245,53,o),
(277,53,q),
(317,53,o),
(381,81,o),
(427,131,o),
(452,197,o),
(452,236,q),
(452,268,o),
(435,321,o),
(421,344,q),
(172,88,l)
);
},
{
closed = 1;
nodes = (
(366,399,o),
(314,418,o),
(280,418,q),
(240,418,o),
(177,390,o),
(133,340,o),
(109,274,o),
(109,236,q),
(109,202,o),
(122,150,o),
(139,127,q),
(386,382,l)
);
},
{
closed = 1;
nodes = (
(58,110,o),
(29,188,o),
(29,236,q),
(29,289,o),
(66,379,o),
(132,445,o),
(224,483,o),
(279,483,q),
(324,483,o),
(403,461,o),
(435,435,q),
(490,489,l),
(524,451,l),
(475,398,l),
(501,365,o),
(532,287,o),
(532,236,q),
(532,183,o),
(494,92,o),
(427,26,o),
(334,-12,o),
(279,-12,q),
(231,-12,o),
(157,13,o),
(125,39,q),
(57,-35,l),
(18,4,l),
(87,74,l)
);
}
);
width = 550;
},
{
layerId = "3A3847A9-C47D-449F-9BC4-FC5D6C4739D9";
shapes = (
{
closed = 1;
nodes = (
(311,144,o),
(333,140,o),
(345,140,q),
(372,140,o),
(417,161,o),
(449,196,o),
(466,243,o),
(466,270,q),
(466,284,o),
(461,310,o),
(456,322,q),
(301,148,l)
);
},
{
closed = 1;
nodes = (
(378,396,o),
(355,400,o),
(343,400,q),
(316,400,o),
(271,379,o),
(239,344,o),
(222,297,o),
(222,270,q),
(222,256,o),
(227,230,o),
(232,218,q),
(388,391,l)
);
},
{
closed = 1;
nodes = (
(81,124,o),
(45,216,o),
(45,270,q),
(45,328,o),
(90,431,o),
(170,508,o),
(280,553,o),
(345,553,q),
(387,553,o),
(464,533,o),
(496,515,q),
(574,608,l),
(658,546,l),
(575,454,l),
(607,417,o),
(643,324,o),
(643,270,q),
(643,212,o),
(598,109,o),
(518,32,o),
(408,-13,o),
(343,-13,q),
(300,-13,o),
(224,7,o),
(191,25,q),
(98,-70,l),
(30,-5,l),
(113,87,l)
);
}
);
width = 687;
}
);
note = oslash;
unicode = 248;
},
{
glyphname = thorn;
lastChange = "2023-04-07 18:21:09 +0000";
layers = (
{
layerId = m01;
shapes = (
{
closed = 1;
nodes = (
(373,97,o),
(407,140,o),
(425,196,o),
(425,227,qs),
(425,257,o),
(406,312,o),
(370,352,o),
(319,376,o),
(287,376,qs),
(257,376,o),
(207,351,o),
(173,310,o),
(154,257,o),
(154,228,qs),
(154,198,o),
(172,141,o),
(206,97,o),
(256,71,o),
(288,71,qs),
(321,71,o)
);
},
{
closed = 1;
nodes = (
(158,773,l),
(158,567,ls),
(158,546,o),
(158,504,o),
(158,483,qs),
(157,458,o),
(157,408,o),
(157,384,q),
(159,384,l),
(185,418,o),
(258,456,o),
(302,458,qs),
(314,458,o),
(336,457,o),
(347,455,qs),
(387,448,o),
(451,404,o),
(496,342,o),
(520,265,o),
(520,223,qs),
(520,181,o),
(497,104,o),
(452,41,o),
(388,-1,o),
(347,-8,qs),
(336,-10,o),
(314,-12,o),
(302,-11,qs),
(259,-10,o),
(185,27,o),
(160,61,q),
(157,61,l),
(158,-13,l),
(158,-243,l),
(65,-243,l),
(65,773,l)
);
}
);
width = 553;
},
{
layerId = "45735946-F1C1-40B8-8BE5-3E07C57E9E20";
shapes = (
{
closed = 1;
nodes = (
(374,84,o),
(411,130,o),
(430,190.786,o),
(430,224.436,q),
(430,257,o),
(409.964,315.474,o),
(372,358,o),
(317,383,o),
(281.903,383,q),
(249,383,o),
(197,357,o),
(159,313,o),
(139,256,o),
(139,225.006,q),
(139,192.944,o),
(158.038,132.025,o),
(194,85,o),
(249,57,o),
(283,57,q),
(319,57,o)
);
},
{
closed = 1;
nodes = (
(142,772,l),
(142,566,l),
(142,545.333,o),
(142,504,o),
(142,482.543,q),
(142,457,o),
(142,402.946,o),
(142,377,q),
(144.143,377,l),
(172,414,o),
(250,452,o),
(296,452,q),
(308.353,452,o),
(331,449,o),
(342,447,q),
(380,438,o),
(441.064,394.83,o),
(484,334,o),
(507,260,o),
(507,219.043,q),
(507,178.087,o),
(485,103,o),
(442,43,o),
(381,1,o),
(341.577,-6.778,q),
(331,-9,o),
(308,-12,o),
(295.345,-12,q),
(250,-12,o),
(171,26,o),
(144,62,q),
(142,62,l),
(142,-12,l),
(142,-247,l),
(67,-247,l),
(67,772,l)
);
}
);
width = 541;
},
{
layerId = "3A3847A9-C47D-449F-9BC4-FC5D6C4739D9";
shapes = (
{
closed = 1;
nodes = (
(363,158,o),
(385,187,o),
(397,223,o),
(397,241,q),
(397,259,o),
(385,294,o),
(363,322,o),
(331,339,o),
(311,339,q),
(292,339,o),
(260,322,o),
(238,293,o),
(226,258,o),
(226,240,q),
(226,221,o),
(238,185,o),
(260,157,o),
(292,140,o),
(311,140,q),
(331,140,o)
);
},
{
closed = 1;
nodes = (
(238,776,l),
(238,571,l),
(236,549,o),
(235,503,o),
(235,480,q),
(234,464,o),
(233,433,o),
(232,418,q),
(232,418,l),
(246,435,o),
(298,474,o),
(330,485,q),
(341,488,o),
(363,492,o),
(374,492,q),
(425,492,o),
(503,449,o),
(556,378,o),
(583,289,o),
(583,243,q),
(583,197,o),
(555,106,o),
(502,33,o),
(423,-13,o),
(372,-13,q),
(363,-13,o),
(345,-10,o),
(335,-8,q),
(306,-1,o),
(251,32,o),
(237,55,q),
(233,55,l),
(238,-20,l),
(238,-225,l),
(52,-225,l),
(52,776,l)
);
}
);
width = 612;
}
);
note = thorn;
unicode = 254;
},
